%TF.GenerationSoftware,KiCad,Pcbnew,7.0.9*%
%TF.CreationDate,2024-01-07T22:21:07-08:00*%
%TF.ProjectId,snesypbpr-enhanced,736e6573-7970-4627-9072-2d656e68616e,rev?*%
%TF.SameCoordinates,Original*%
%TF.FileFunction,Legend,Top*%
%TF.FilePolarity,Positive*%
%FSLAX46Y46*%
G04 Gerber Fmt 4.6, Leading zero omitted, Abs format (unit mm)*
G04 Created by KiCad (PCBNEW 7.0.9) date 2024-01-07 22:21:07*
%MOMM*%
%LPD*%
G01*
G04 APERTURE LIST*
%ADD10C,0.100000*%
%ADD11C,0.150000*%
%ADD12C,0.120000*%
G04 APERTURE END LIST*
D10*
X124098800Y-66113925D02*
X124127371Y-66028211D01*
X124127371Y-66028211D02*
X124127371Y-65885353D01*
X124127371Y-65885353D02*
X124098800Y-65828211D01*
X124098800Y-65828211D02*
X124070228Y-65799639D01*
X124070228Y-65799639D02*
X124013085Y-65771068D01*
X124013085Y-65771068D02*
X123955942Y-65771068D01*
X123955942Y-65771068D02*
X123898800Y-65799639D01*
X123898800Y-65799639D02*
X123870228Y-65828211D01*
X123870228Y-65828211D02*
X123841657Y-65885353D01*
X123841657Y-65885353D02*
X123813085Y-65999639D01*
X123813085Y-65999639D02*
X123784514Y-66056782D01*
X123784514Y-66056782D02*
X123755942Y-66085353D01*
X123755942Y-66085353D02*
X123698800Y-66113925D01*
X123698800Y-66113925D02*
X123641657Y-66113925D01*
X123641657Y-66113925D02*
X123584514Y-66085353D01*
X123584514Y-66085353D02*
X123555942Y-66056782D01*
X123555942Y-66056782D02*
X123527371Y-65999639D01*
X123527371Y-65999639D02*
X123527371Y-65856782D01*
X123527371Y-65856782D02*
X123555942Y-65771068D01*
X124098800Y-65542496D02*
X124127371Y-65456782D01*
X124127371Y-65456782D02*
X124127371Y-65313924D01*
X124127371Y-65313924D02*
X124098800Y-65256782D01*
X124098800Y-65256782D02*
X124070228Y-65228210D01*
X124070228Y-65228210D02*
X124013085Y-65199639D01*
X124013085Y-65199639D02*
X123955942Y-65199639D01*
X123955942Y-65199639D02*
X123898800Y-65228210D01*
X123898800Y-65228210D02*
X123870228Y-65256782D01*
X123870228Y-65256782D02*
X123841657Y-65313924D01*
X123841657Y-65313924D02*
X123813085Y-65428210D01*
X123813085Y-65428210D02*
X123784514Y-65485353D01*
X123784514Y-65485353D02*
X123755942Y-65513924D01*
X123755942Y-65513924D02*
X123698800Y-65542496D01*
X123698800Y-65542496D02*
X123641657Y-65542496D01*
X123641657Y-65542496D02*
X123584514Y-65513924D01*
X123584514Y-65513924D02*
X123555942Y-65485353D01*
X123555942Y-65485353D02*
X123527371Y-65428210D01*
X123527371Y-65428210D02*
X123527371Y-65285353D01*
X123527371Y-65285353D02*
X123555942Y-65199639D01*
X123784514Y-64856781D02*
X123755942Y-64913924D01*
X123755942Y-64913924D02*
X123727371Y-64942495D01*
X123727371Y-64942495D02*
X123670228Y-64971067D01*
X123670228Y-64971067D02*
X123641657Y-64971067D01*
X123641657Y-64971067D02*
X123584514Y-64942495D01*
X123584514Y-64942495D02*
X123555942Y-64913924D01*
X123555942Y-64913924D02*
X123527371Y-64856781D01*
X123527371Y-64856781D02*
X123527371Y-64742495D01*
X123527371Y-64742495D02*
X123555942Y-64685353D01*
X123555942Y-64685353D02*
X123584514Y-64656781D01*
X123584514Y-64656781D02*
X123641657Y-64628210D01*
X123641657Y-64628210D02*
X123670228Y-64628210D01*
X123670228Y-64628210D02*
X123727371Y-64656781D01*
X123727371Y-64656781D02*
X123755942Y-64685353D01*
X123755942Y-64685353D02*
X123784514Y-64742495D01*
X123784514Y-64742495D02*
X123784514Y-64856781D01*
X123784514Y-64856781D02*
X123813085Y-64913924D01*
X123813085Y-64913924D02*
X123841657Y-64942495D01*
X123841657Y-64942495D02*
X123898800Y-64971067D01*
X123898800Y-64971067D02*
X124013085Y-64971067D01*
X124013085Y-64971067D02*
X124070228Y-64942495D01*
X124070228Y-64942495D02*
X124098800Y-64913924D01*
X124098800Y-64913924D02*
X124127371Y-64856781D01*
X124127371Y-64856781D02*
X124127371Y-64742495D01*
X124127371Y-64742495D02*
X124098800Y-64685353D01*
X124098800Y-64685353D02*
X124070228Y-64656781D01*
X124070228Y-64656781D02*
X124013085Y-64628210D01*
X124013085Y-64628210D02*
X123898800Y-64628210D01*
X123898800Y-64628210D02*
X123841657Y-64656781D01*
X123841657Y-64656781D02*
X123813085Y-64685353D01*
X123813085Y-64685353D02*
X123784514Y-64742495D01*
X123527371Y-64256781D02*
X123527371Y-64199638D01*
X123527371Y-64199638D02*
X123555942Y-64142495D01*
X123555942Y-64142495D02*
X123584514Y-64113924D01*
X123584514Y-64113924D02*
X123641657Y-64085352D01*
X123641657Y-64085352D02*
X123755942Y-64056781D01*
X123755942Y-64056781D02*
X123898800Y-64056781D01*
X123898800Y-64056781D02*
X124013085Y-64085352D01*
X124013085Y-64085352D02*
X124070228Y-64113924D01*
X124070228Y-64113924D02*
X124098800Y-64142495D01*
X124098800Y-64142495D02*
X124127371Y-64199638D01*
X124127371Y-64199638D02*
X124127371Y-64256781D01*
X124127371Y-64256781D02*
X124098800Y-64313924D01*
X124098800Y-64313924D02*
X124070228Y-64342495D01*
X124070228Y-64342495D02*
X124013085Y-64371066D01*
X124013085Y-64371066D02*
X123898800Y-64399638D01*
X123898800Y-64399638D02*
X123755942Y-64399638D01*
X123755942Y-64399638D02*
X123641657Y-64371066D01*
X123641657Y-64371066D02*
X123584514Y-64342495D01*
X123584514Y-64342495D02*
X123555942Y-64313924D01*
X123555942Y-64313924D02*
X123527371Y-64256781D01*
X123527371Y-63513923D02*
X123527371Y-63799637D01*
X123527371Y-63799637D02*
X123813085Y-63828209D01*
X123813085Y-63828209D02*
X123784514Y-63799637D01*
X123784514Y-63799637D02*
X123755942Y-63742495D01*
X123755942Y-63742495D02*
X123755942Y-63599637D01*
X123755942Y-63599637D02*
X123784514Y-63542495D01*
X123784514Y-63542495D02*
X123813085Y-63513923D01*
X123813085Y-63513923D02*
X123870228Y-63485352D01*
X123870228Y-63485352D02*
X124013085Y-63485352D01*
X124013085Y-63485352D02*
X124070228Y-63513923D01*
X124070228Y-63513923D02*
X124098800Y-63542495D01*
X124098800Y-63542495D02*
X124127371Y-63599637D01*
X124127371Y-63599637D02*
X124127371Y-63742495D01*
X124127371Y-63742495D02*
X124098800Y-63799637D01*
X124098800Y-63799637D02*
X124070228Y-63828209D01*
X123527371Y-63113923D02*
X123527371Y-63056780D01*
X123527371Y-63056780D02*
X123555942Y-62999637D01*
X123555942Y-62999637D02*
X123584514Y-62971066D01*
X123584514Y-62971066D02*
X123641657Y-62942494D01*
X123641657Y-62942494D02*
X123755942Y-62913923D01*
X123755942Y-62913923D02*
X123898800Y-62913923D01*
X123898800Y-62913923D02*
X124013085Y-62942494D01*
X124013085Y-62942494D02*
X124070228Y-62971066D01*
X124070228Y-62971066D02*
X124098800Y-62999637D01*
X124098800Y-62999637D02*
X124127371Y-63056780D01*
X124127371Y-63056780D02*
X124127371Y-63113923D01*
X124127371Y-63113923D02*
X124098800Y-63171066D01*
X124098800Y-63171066D02*
X124070228Y-63199637D01*
X124070228Y-63199637D02*
X124013085Y-63228208D01*
X124013085Y-63228208D02*
X123898800Y-63256780D01*
X123898800Y-63256780D02*
X123755942Y-63256780D01*
X123755942Y-63256780D02*
X123641657Y-63228208D01*
X123641657Y-63228208D02*
X123584514Y-63199637D01*
X123584514Y-63199637D02*
X123555942Y-63171066D01*
X123555942Y-63171066D02*
X123527371Y-63113923D01*
X111203408Y-73734704D02*
X111165312Y-73772800D01*
X111165312Y-73772800D02*
X111051027Y-73810895D01*
X111051027Y-73810895D02*
X110974836Y-73810895D01*
X110974836Y-73810895D02*
X110860550Y-73772800D01*
X110860550Y-73772800D02*
X110784360Y-73696609D01*
X110784360Y-73696609D02*
X110746265Y-73620419D01*
X110746265Y-73620419D02*
X110708169Y-73468038D01*
X110708169Y-73468038D02*
X110708169Y-73353752D01*
X110708169Y-73353752D02*
X110746265Y-73201371D01*
X110746265Y-73201371D02*
X110784360Y-73125180D01*
X110784360Y-73125180D02*
X110860550Y-73048990D01*
X110860550Y-73048990D02*
X110974836Y-73010895D01*
X110974836Y-73010895D02*
X111051027Y-73010895D01*
X111051027Y-73010895D02*
X111165312Y-73048990D01*
X111165312Y-73048990D02*
X111203408Y-73087085D01*
X111889122Y-73810895D02*
X111889122Y-73391847D01*
X111889122Y-73391847D02*
X111851027Y-73315657D01*
X111851027Y-73315657D02*
X111774836Y-73277561D01*
X111774836Y-73277561D02*
X111622455Y-73277561D01*
X111622455Y-73277561D02*
X111546265Y-73315657D01*
X111889122Y-73772800D02*
X111812931Y-73810895D01*
X111812931Y-73810895D02*
X111622455Y-73810895D01*
X111622455Y-73810895D02*
X111546265Y-73772800D01*
X111546265Y-73772800D02*
X111508169Y-73696609D01*
X111508169Y-73696609D02*
X111508169Y-73620419D01*
X111508169Y-73620419D02*
X111546265Y-73544228D01*
X111546265Y-73544228D02*
X111622455Y-73506133D01*
X111622455Y-73506133D02*
X111812931Y-73506133D01*
X111812931Y-73506133D02*
X111889122Y-73468038D01*
X112270075Y-73277561D02*
X112270075Y-74077561D01*
X112270075Y-73315657D02*
X112346265Y-73277561D01*
X112346265Y-73277561D02*
X112498646Y-73277561D01*
X112498646Y-73277561D02*
X112574837Y-73315657D01*
X112574837Y-73315657D02*
X112612932Y-73353752D01*
X112612932Y-73353752D02*
X112651027Y-73429942D01*
X112651027Y-73429942D02*
X112651027Y-73658514D01*
X112651027Y-73658514D02*
X112612932Y-73734704D01*
X112612932Y-73734704D02*
X112574837Y-73772800D01*
X112574837Y-73772800D02*
X112498646Y-73810895D01*
X112498646Y-73810895D02*
X112346265Y-73810895D01*
X112346265Y-73810895D02*
X112270075Y-73772800D01*
X112955789Y-73772800D02*
X113031980Y-73810895D01*
X113031980Y-73810895D02*
X113184361Y-73810895D01*
X113184361Y-73810895D02*
X113260551Y-73772800D01*
X113260551Y-73772800D02*
X113298647Y-73696609D01*
X113298647Y-73696609D02*
X113298647Y-73658514D01*
X113298647Y-73658514D02*
X113260551Y-73582323D01*
X113260551Y-73582323D02*
X113184361Y-73544228D01*
X113184361Y-73544228D02*
X113070075Y-73544228D01*
X113070075Y-73544228D02*
X112993885Y-73506133D01*
X112993885Y-73506133D02*
X112955789Y-73429942D01*
X112955789Y-73429942D02*
X112955789Y-73391847D01*
X112955789Y-73391847D02*
X112993885Y-73315657D01*
X112993885Y-73315657D02*
X113070075Y-73277561D01*
X113070075Y-73277561D02*
X113184361Y-73277561D01*
X113184361Y-73277561D02*
X113260551Y-73315657D01*
X113641504Y-73734704D02*
X113679599Y-73772800D01*
X113679599Y-73772800D02*
X113641504Y-73810895D01*
X113641504Y-73810895D02*
X113603408Y-73772800D01*
X113603408Y-73772800D02*
X113641504Y-73734704D01*
X113641504Y-73734704D02*
X113641504Y-73810895D01*
X113641504Y-73315657D02*
X113679599Y-73353752D01*
X113679599Y-73353752D02*
X113641504Y-73391847D01*
X113641504Y-73391847D02*
X113603408Y-73353752D01*
X113603408Y-73353752D02*
X113641504Y-73315657D01*
X113641504Y-73315657D02*
X113641504Y-73391847D01*
X114593884Y-73087085D02*
X114631980Y-73048990D01*
X114631980Y-73048990D02*
X114708170Y-73010895D01*
X114708170Y-73010895D02*
X114898646Y-73010895D01*
X114898646Y-73010895D02*
X114974837Y-73048990D01*
X114974837Y-73048990D02*
X115012932Y-73087085D01*
X115012932Y-73087085D02*
X115051027Y-73163276D01*
X115051027Y-73163276D02*
X115051027Y-73239466D01*
X115051027Y-73239466D02*
X115012932Y-73353752D01*
X115012932Y-73353752D02*
X114555789Y-73810895D01*
X114555789Y-73810895D02*
X115051027Y-73810895D01*
X115355789Y-73087085D02*
X115393885Y-73048990D01*
X115393885Y-73048990D02*
X115470075Y-73010895D01*
X115470075Y-73010895D02*
X115660551Y-73010895D01*
X115660551Y-73010895D02*
X115736742Y-73048990D01*
X115736742Y-73048990D02*
X115774837Y-73087085D01*
X115774837Y-73087085D02*
X115812932Y-73163276D01*
X115812932Y-73163276D02*
X115812932Y-73239466D01*
X115812932Y-73239466D02*
X115774837Y-73353752D01*
X115774837Y-73353752D02*
X115317694Y-73810895D01*
X115317694Y-73810895D02*
X115812932Y-73810895D01*
X116308171Y-73010895D02*
X116384361Y-73010895D01*
X116384361Y-73010895D02*
X116460552Y-73048990D01*
X116460552Y-73048990D02*
X116498647Y-73087085D01*
X116498647Y-73087085D02*
X116536742Y-73163276D01*
X116536742Y-73163276D02*
X116574837Y-73315657D01*
X116574837Y-73315657D02*
X116574837Y-73506133D01*
X116574837Y-73506133D02*
X116536742Y-73658514D01*
X116536742Y-73658514D02*
X116498647Y-73734704D01*
X116498647Y-73734704D02*
X116460552Y-73772800D01*
X116460552Y-73772800D02*
X116384361Y-73810895D01*
X116384361Y-73810895D02*
X116308171Y-73810895D01*
X116308171Y-73810895D02*
X116231980Y-73772800D01*
X116231980Y-73772800D02*
X116193885Y-73734704D01*
X116193885Y-73734704D02*
X116155790Y-73658514D01*
X116155790Y-73658514D02*
X116117694Y-73506133D01*
X116117694Y-73506133D02*
X116117694Y-73315657D01*
X116117694Y-73315657D02*
X116155790Y-73163276D01*
X116155790Y-73163276D02*
X116193885Y-73087085D01*
X116193885Y-73087085D02*
X116231980Y-73048990D01*
X116231980Y-73048990D02*
X116308171Y-73010895D01*
X117260552Y-73277561D02*
X117260552Y-73810895D01*
X116917695Y-73277561D02*
X116917695Y-73696609D01*
X116917695Y-73696609D02*
X116955790Y-73772800D01*
X116955790Y-73772800D02*
X117031980Y-73810895D01*
X117031980Y-73810895D02*
X117146266Y-73810895D01*
X117146266Y-73810895D02*
X117222457Y-73772800D01*
X117222457Y-73772800D02*
X117260552Y-73734704D01*
X117908171Y-73391847D02*
X117641505Y-73391847D01*
X117641505Y-73810895D02*
X117641505Y-73010895D01*
X117641505Y-73010895D02*
X118022457Y-73010895D01*
X119279600Y-73010895D02*
X119127219Y-73010895D01*
X119127219Y-73010895D02*
X119051028Y-73048990D01*
X119051028Y-73048990D02*
X119012933Y-73087085D01*
X119012933Y-73087085D02*
X118936743Y-73201371D01*
X118936743Y-73201371D02*
X118898647Y-73353752D01*
X118898647Y-73353752D02*
X118898647Y-73658514D01*
X118898647Y-73658514D02*
X118936743Y-73734704D01*
X118936743Y-73734704D02*
X118974838Y-73772800D01*
X118974838Y-73772800D02*
X119051028Y-73810895D01*
X119051028Y-73810895D02*
X119203409Y-73810895D01*
X119203409Y-73810895D02*
X119279600Y-73772800D01*
X119279600Y-73772800D02*
X119317695Y-73734704D01*
X119317695Y-73734704D02*
X119355790Y-73658514D01*
X119355790Y-73658514D02*
X119355790Y-73468038D01*
X119355790Y-73468038D02*
X119317695Y-73391847D01*
X119317695Y-73391847D02*
X119279600Y-73353752D01*
X119279600Y-73353752D02*
X119203409Y-73315657D01*
X119203409Y-73315657D02*
X119051028Y-73315657D01*
X119051028Y-73315657D02*
X118974838Y-73353752D01*
X118974838Y-73353752D02*
X118936743Y-73391847D01*
X118936743Y-73391847D02*
X118898647Y-73468038D01*
X119698648Y-73734704D02*
X119736743Y-73772800D01*
X119736743Y-73772800D02*
X119698648Y-73810895D01*
X119698648Y-73810895D02*
X119660552Y-73772800D01*
X119660552Y-73772800D02*
X119698648Y-73734704D01*
X119698648Y-73734704D02*
X119698648Y-73810895D01*
X120003409Y-73010895D02*
X120498647Y-73010895D01*
X120498647Y-73010895D02*
X120231981Y-73315657D01*
X120231981Y-73315657D02*
X120346266Y-73315657D01*
X120346266Y-73315657D02*
X120422457Y-73353752D01*
X120422457Y-73353752D02*
X120460552Y-73391847D01*
X120460552Y-73391847D02*
X120498647Y-73468038D01*
X120498647Y-73468038D02*
X120498647Y-73658514D01*
X120498647Y-73658514D02*
X120460552Y-73734704D01*
X120460552Y-73734704D02*
X120422457Y-73772800D01*
X120422457Y-73772800D02*
X120346266Y-73810895D01*
X120346266Y-73810895D02*
X120117695Y-73810895D01*
X120117695Y-73810895D02*
X120041504Y-73772800D01*
X120041504Y-73772800D02*
X120003409Y-73734704D01*
X120765314Y-73277561D02*
X120955790Y-73810895D01*
X120955790Y-73810895D02*
X121146267Y-73277561D01*
X119018800Y-66135925D02*
X119047371Y-66050211D01*
X119047371Y-66050211D02*
X119047371Y-65907353D01*
X119047371Y-65907353D02*
X119018800Y-65850211D01*
X119018800Y-65850211D02*
X118990228Y-65821639D01*
X118990228Y-65821639D02*
X118933085Y-65793068D01*
X118933085Y-65793068D02*
X118875942Y-65793068D01*
X118875942Y-65793068D02*
X118818800Y-65821639D01*
X118818800Y-65821639D02*
X118790228Y-65850211D01*
X118790228Y-65850211D02*
X118761657Y-65907353D01*
X118761657Y-65907353D02*
X118733085Y-66021639D01*
X118733085Y-66021639D02*
X118704514Y-66078782D01*
X118704514Y-66078782D02*
X118675942Y-66107353D01*
X118675942Y-66107353D02*
X118618800Y-66135925D01*
X118618800Y-66135925D02*
X118561657Y-66135925D01*
X118561657Y-66135925D02*
X118504514Y-66107353D01*
X118504514Y-66107353D02*
X118475942Y-66078782D01*
X118475942Y-66078782D02*
X118447371Y-66021639D01*
X118447371Y-66021639D02*
X118447371Y-65878782D01*
X118447371Y-65878782D02*
X118475942Y-65793068D01*
X119018800Y-65564496D02*
X119047371Y-65478782D01*
X119047371Y-65478782D02*
X119047371Y-65335924D01*
X119047371Y-65335924D02*
X119018800Y-65278782D01*
X119018800Y-65278782D02*
X118990228Y-65250210D01*
X118990228Y-65250210D02*
X118933085Y-65221639D01*
X118933085Y-65221639D02*
X118875942Y-65221639D01*
X118875942Y-65221639D02*
X118818800Y-65250210D01*
X118818800Y-65250210D02*
X118790228Y-65278782D01*
X118790228Y-65278782D02*
X118761657Y-65335924D01*
X118761657Y-65335924D02*
X118733085Y-65450210D01*
X118733085Y-65450210D02*
X118704514Y-65507353D01*
X118704514Y-65507353D02*
X118675942Y-65535924D01*
X118675942Y-65535924D02*
X118618800Y-65564496D01*
X118618800Y-65564496D02*
X118561657Y-65564496D01*
X118561657Y-65564496D02*
X118504514Y-65535924D01*
X118504514Y-65535924D02*
X118475942Y-65507353D01*
X118475942Y-65507353D02*
X118447371Y-65450210D01*
X118447371Y-65450210D02*
X118447371Y-65307353D01*
X118447371Y-65307353D02*
X118475942Y-65221639D01*
X118704514Y-64878781D02*
X118675942Y-64935924D01*
X118675942Y-64935924D02*
X118647371Y-64964495D01*
X118647371Y-64964495D02*
X118590228Y-64993067D01*
X118590228Y-64993067D02*
X118561657Y-64993067D01*
X118561657Y-64993067D02*
X118504514Y-64964495D01*
X118504514Y-64964495D02*
X118475942Y-64935924D01*
X118475942Y-64935924D02*
X118447371Y-64878781D01*
X118447371Y-64878781D02*
X118447371Y-64764495D01*
X118447371Y-64764495D02*
X118475942Y-64707353D01*
X118475942Y-64707353D02*
X118504514Y-64678781D01*
X118504514Y-64678781D02*
X118561657Y-64650210D01*
X118561657Y-64650210D02*
X118590228Y-64650210D01*
X118590228Y-64650210D02*
X118647371Y-64678781D01*
X118647371Y-64678781D02*
X118675942Y-64707353D01*
X118675942Y-64707353D02*
X118704514Y-64764495D01*
X118704514Y-64764495D02*
X118704514Y-64878781D01*
X118704514Y-64878781D02*
X118733085Y-64935924D01*
X118733085Y-64935924D02*
X118761657Y-64964495D01*
X118761657Y-64964495D02*
X118818800Y-64993067D01*
X118818800Y-64993067D02*
X118933085Y-64993067D01*
X118933085Y-64993067D02*
X118990228Y-64964495D01*
X118990228Y-64964495D02*
X119018800Y-64935924D01*
X119018800Y-64935924D02*
X119047371Y-64878781D01*
X119047371Y-64878781D02*
X119047371Y-64764495D01*
X119047371Y-64764495D02*
X119018800Y-64707353D01*
X119018800Y-64707353D02*
X118990228Y-64678781D01*
X118990228Y-64678781D02*
X118933085Y-64650210D01*
X118933085Y-64650210D02*
X118818800Y-64650210D01*
X118818800Y-64650210D02*
X118761657Y-64678781D01*
X118761657Y-64678781D02*
X118733085Y-64707353D01*
X118733085Y-64707353D02*
X118704514Y-64764495D01*
X118447371Y-64278781D02*
X118447371Y-64221638D01*
X118447371Y-64221638D02*
X118475942Y-64164495D01*
X118475942Y-64164495D02*
X118504514Y-64135924D01*
X118504514Y-64135924D02*
X118561657Y-64107352D01*
X118561657Y-64107352D02*
X118675942Y-64078781D01*
X118675942Y-64078781D02*
X118818800Y-64078781D01*
X118818800Y-64078781D02*
X118933085Y-64107352D01*
X118933085Y-64107352D02*
X118990228Y-64135924D01*
X118990228Y-64135924D02*
X119018800Y-64164495D01*
X119018800Y-64164495D02*
X119047371Y-64221638D01*
X119047371Y-64221638D02*
X119047371Y-64278781D01*
X119047371Y-64278781D02*
X119018800Y-64335924D01*
X119018800Y-64335924D02*
X118990228Y-64364495D01*
X118990228Y-64364495D02*
X118933085Y-64393066D01*
X118933085Y-64393066D02*
X118818800Y-64421638D01*
X118818800Y-64421638D02*
X118675942Y-64421638D01*
X118675942Y-64421638D02*
X118561657Y-64393066D01*
X118561657Y-64393066D02*
X118504514Y-64364495D01*
X118504514Y-64364495D02*
X118475942Y-64335924D01*
X118475942Y-64335924D02*
X118447371Y-64278781D01*
X118447371Y-63535923D02*
X118447371Y-63821637D01*
X118447371Y-63821637D02*
X118733085Y-63850209D01*
X118733085Y-63850209D02*
X118704514Y-63821637D01*
X118704514Y-63821637D02*
X118675942Y-63764495D01*
X118675942Y-63764495D02*
X118675942Y-63621637D01*
X118675942Y-63621637D02*
X118704514Y-63564495D01*
X118704514Y-63564495D02*
X118733085Y-63535923D01*
X118733085Y-63535923D02*
X118790228Y-63507352D01*
X118790228Y-63507352D02*
X118933085Y-63507352D01*
X118933085Y-63507352D02*
X118990228Y-63535923D01*
X118990228Y-63535923D02*
X119018800Y-63564495D01*
X119018800Y-63564495D02*
X119047371Y-63621637D01*
X119047371Y-63621637D02*
X119047371Y-63764495D01*
X119047371Y-63764495D02*
X119018800Y-63821637D01*
X119018800Y-63821637D02*
X118990228Y-63850209D01*
X118447371Y-63135923D02*
X118447371Y-63078780D01*
X118447371Y-63078780D02*
X118475942Y-63021637D01*
X118475942Y-63021637D02*
X118504514Y-62993066D01*
X118504514Y-62993066D02*
X118561657Y-62964494D01*
X118561657Y-62964494D02*
X118675942Y-62935923D01*
X118675942Y-62935923D02*
X118818800Y-62935923D01*
X118818800Y-62935923D02*
X118933085Y-62964494D01*
X118933085Y-62964494D02*
X118990228Y-62993066D01*
X118990228Y-62993066D02*
X119018800Y-63021637D01*
X119018800Y-63021637D02*
X119047371Y-63078780D01*
X119047371Y-63078780D02*
X119047371Y-63135923D01*
X119047371Y-63135923D02*
X119018800Y-63193066D01*
X119018800Y-63193066D02*
X118990228Y-63221637D01*
X118990228Y-63221637D02*
X118933085Y-63250208D01*
X118933085Y-63250208D02*
X118818800Y-63278780D01*
X118818800Y-63278780D02*
X118675942Y-63278780D01*
X118675942Y-63278780D02*
X118561657Y-63250208D01*
X118561657Y-63250208D02*
X118504514Y-63221637D01*
X118504514Y-63221637D02*
X118475942Y-63193066D01*
X118475942Y-63193066D02*
X118447371Y-63135923D01*
D11*
X110445714Y-56750295D02*
X110445714Y-55950295D01*
X110445714Y-55950295D02*
X110750476Y-55950295D01*
X110750476Y-55950295D02*
X110826666Y-55988390D01*
X110826666Y-55988390D02*
X110864761Y-56026485D01*
X110864761Y-56026485D02*
X110902857Y-56102676D01*
X110902857Y-56102676D02*
X110902857Y-56216961D01*
X110902857Y-56216961D02*
X110864761Y-56293152D01*
X110864761Y-56293152D02*
X110826666Y-56331247D01*
X110826666Y-56331247D02*
X110750476Y-56369342D01*
X110750476Y-56369342D02*
X110445714Y-56369342D01*
X111245714Y-56750295D02*
X111245714Y-56216961D01*
X111245714Y-56369342D02*
X111283809Y-56293152D01*
X111283809Y-56293152D02*
X111321904Y-56255057D01*
X111321904Y-56255057D02*
X111398095Y-56216961D01*
X111398095Y-56216961D02*
X111474285Y-56216961D01*
X112350476Y-56750295D02*
X112350476Y-55950295D01*
X112731428Y-56216961D02*
X112731428Y-56750295D01*
X112731428Y-56293152D02*
X112769523Y-56255057D01*
X112769523Y-56255057D02*
X112845713Y-56216961D01*
X112845713Y-56216961D02*
X112959999Y-56216961D01*
X112959999Y-56216961D02*
X113036190Y-56255057D01*
X113036190Y-56255057D02*
X113074285Y-56331247D01*
X113074285Y-56331247D02*
X113074285Y-56750295D01*
X110731429Y-62541533D02*
X111340953Y-62541533D01*
X111036191Y-62846295D02*
X111036191Y-62236771D01*
X112102857Y-62046295D02*
X111721905Y-62046295D01*
X111721905Y-62046295D02*
X111683809Y-62427247D01*
X111683809Y-62427247D02*
X111721905Y-62389152D01*
X111721905Y-62389152D02*
X111798095Y-62351057D01*
X111798095Y-62351057D02*
X111988571Y-62351057D01*
X111988571Y-62351057D02*
X112064762Y-62389152D01*
X112064762Y-62389152D02*
X112102857Y-62427247D01*
X112102857Y-62427247D02*
X112140952Y-62503438D01*
X112140952Y-62503438D02*
X112140952Y-62693914D01*
X112140952Y-62693914D02*
X112102857Y-62770104D01*
X112102857Y-62770104D02*
X112064762Y-62808200D01*
X112064762Y-62808200D02*
X111988571Y-62846295D01*
X111988571Y-62846295D02*
X111798095Y-62846295D01*
X111798095Y-62846295D02*
X111721905Y-62808200D01*
X111721905Y-62808200D02*
X111683809Y-62770104D01*
X112369524Y-62046295D02*
X112636191Y-62846295D01*
X112636191Y-62846295D02*
X112902857Y-62046295D01*
X110331428Y-68942295D02*
X110331428Y-68142295D01*
X110331428Y-68142295D02*
X110636190Y-68142295D01*
X110636190Y-68142295D02*
X110712380Y-68180390D01*
X110712380Y-68180390D02*
X110750475Y-68218485D01*
X110750475Y-68218485D02*
X110788571Y-68294676D01*
X110788571Y-68294676D02*
X110788571Y-68408961D01*
X110788571Y-68408961D02*
X110750475Y-68485152D01*
X110750475Y-68485152D02*
X110712380Y-68523247D01*
X110712380Y-68523247D02*
X110636190Y-68561342D01*
X110636190Y-68561342D02*
X110331428Y-68561342D01*
X111131428Y-68942295D02*
X111131428Y-68142295D01*
X111131428Y-68447057D02*
X111207618Y-68408961D01*
X111207618Y-68408961D02*
X111359999Y-68408961D01*
X111359999Y-68408961D02*
X111436190Y-68447057D01*
X111436190Y-68447057D02*
X111474285Y-68485152D01*
X111474285Y-68485152D02*
X111512380Y-68561342D01*
X111512380Y-68561342D02*
X111512380Y-68789914D01*
X111512380Y-68789914D02*
X111474285Y-68866104D01*
X111474285Y-68866104D02*
X111436190Y-68904200D01*
X111436190Y-68904200D02*
X111359999Y-68942295D01*
X111359999Y-68942295D02*
X111207618Y-68942295D01*
X111207618Y-68942295D02*
X111131428Y-68904200D01*
X112464762Y-68942295D02*
X112464762Y-68142295D01*
X112845714Y-68408961D02*
X112845714Y-68942295D01*
X112845714Y-68485152D02*
X112883809Y-68447057D01*
X112883809Y-68447057D02*
X112959999Y-68408961D01*
X112959999Y-68408961D02*
X113074285Y-68408961D01*
X113074285Y-68408961D02*
X113150476Y-68447057D01*
X113150476Y-68447057D02*
X113188571Y-68523247D01*
X113188571Y-68523247D02*
X113188571Y-68942295D01*
D12*
X118743524Y-58783855D02*
X118743524Y-57983855D01*
X118743524Y-57983855D02*
X118934000Y-57983855D01*
X118934000Y-57983855D02*
X119048286Y-58021950D01*
X119048286Y-58021950D02*
X119124476Y-58098140D01*
X119124476Y-58098140D02*
X119162571Y-58174331D01*
X119162571Y-58174331D02*
X119200667Y-58326712D01*
X119200667Y-58326712D02*
X119200667Y-58440998D01*
X119200667Y-58440998D02*
X119162571Y-58593379D01*
X119162571Y-58593379D02*
X119124476Y-58669569D01*
X119124476Y-58669569D02*
X119048286Y-58745760D01*
X119048286Y-58745760D02*
X118934000Y-58783855D01*
X118934000Y-58783855D02*
X118743524Y-58783855D01*
X119962571Y-58783855D02*
X119505428Y-58783855D01*
X119734000Y-58783855D02*
X119734000Y-57983855D01*
X119734000Y-57983855D02*
X119657809Y-58098140D01*
X119657809Y-58098140D02*
X119581619Y-58174331D01*
X119581619Y-58174331D02*
X119505428Y-58212426D01*
D11*
X123182095Y-57096819D02*
X123182095Y-56096819D01*
X123753523Y-57096819D02*
X123324952Y-56525390D01*
X123753523Y-56096819D02*
X123182095Y-56668247D01*
X123182095Y-72866819D02*
X123182095Y-71866819D01*
X123753523Y-72866819D02*
X123324952Y-72295390D01*
X123753523Y-71866819D02*
X123182095Y-72438247D01*
D12*
X118743524Y-70975855D02*
X118743524Y-70175855D01*
X118743524Y-70175855D02*
X118934000Y-70175855D01*
X118934000Y-70175855D02*
X119048286Y-70213950D01*
X119048286Y-70213950D02*
X119124476Y-70290140D01*
X119124476Y-70290140D02*
X119162571Y-70366331D01*
X119162571Y-70366331D02*
X119200667Y-70518712D01*
X119200667Y-70518712D02*
X119200667Y-70632998D01*
X119200667Y-70632998D02*
X119162571Y-70785379D01*
X119162571Y-70785379D02*
X119124476Y-70861569D01*
X119124476Y-70861569D02*
X119048286Y-70937760D01*
X119048286Y-70937760D02*
X118934000Y-70975855D01*
X118934000Y-70975855D02*
X118743524Y-70975855D01*
X119505428Y-70252045D02*
X119543524Y-70213950D01*
X119543524Y-70213950D02*
X119619714Y-70175855D01*
X119619714Y-70175855D02*
X119810190Y-70175855D01*
X119810190Y-70175855D02*
X119886381Y-70213950D01*
X119886381Y-70213950D02*
X119924476Y-70252045D01*
X119924476Y-70252045D02*
X119962571Y-70328236D01*
X119962571Y-70328236D02*
X119962571Y-70404426D01*
X119962571Y-70404426D02*
X119924476Y-70518712D01*
X119924476Y-70518712D02*
X119467333Y-70975855D01*
X119467333Y-70975855D02*
X119962571Y-70975855D01*
D11*
X128484476Y-62446819D02*
X129151142Y-62446819D01*
X129151142Y-62446819D02*
X128722571Y-63446819D01*
X130008285Y-62446819D02*
X129532095Y-62446819D01*
X129532095Y-62446819D02*
X129484476Y-62923009D01*
X129484476Y-62923009D02*
X129532095Y-62875390D01*
X129532095Y-62875390D02*
X129627333Y-62827771D01*
X129627333Y-62827771D02*
X129865428Y-62827771D01*
X129865428Y-62827771D02*
X129960666Y-62875390D01*
X129960666Y-62875390D02*
X130008285Y-62923009D01*
X130008285Y-62923009D02*
X130055904Y-63018247D01*
X130055904Y-63018247D02*
X130055904Y-63256342D01*
X130055904Y-63256342D02*
X130008285Y-63351580D01*
X130008285Y-63351580D02*
X129960666Y-63399200D01*
X129960666Y-63399200D02*
X129865428Y-63446819D01*
X129865428Y-63446819D02*
X129627333Y-63446819D01*
X129627333Y-63446819D02*
X129532095Y-63399200D01*
X129532095Y-63399200D02*
X129484476Y-63351580D01*
X131055904Y-63446819D02*
X130722571Y-62970628D01*
X130484476Y-63446819D02*
X130484476Y-62446819D01*
X130484476Y-62446819D02*
X130865428Y-62446819D01*
X130865428Y-62446819D02*
X130960666Y-62494438D01*
X130960666Y-62494438D02*
X131008285Y-62542057D01*
X131008285Y-62542057D02*
X131055904Y-62637295D01*
X131055904Y-62637295D02*
X131055904Y-62780152D01*
X131055904Y-62780152D02*
X131008285Y-62875390D01*
X131008285Y-62875390D02*
X130960666Y-62923009D01*
X130960666Y-62923009D02*
X130865428Y-62970628D01*
X130865428Y-62970628D02*
X130484476Y-62970628D01*
X136550476Y-62084390D02*
X136474286Y-62046295D01*
X136474286Y-62046295D02*
X136360000Y-62046295D01*
X136360000Y-62046295D02*
X136245714Y-62084390D01*
X136245714Y-62084390D02*
X136169524Y-62160580D01*
X136169524Y-62160580D02*
X136131429Y-62236771D01*
X136131429Y-62236771D02*
X136093333Y-62389152D01*
X136093333Y-62389152D02*
X136093333Y-62503438D01*
X136093333Y-62503438D02*
X136131429Y-62655819D01*
X136131429Y-62655819D02*
X136169524Y-62732009D01*
X136169524Y-62732009D02*
X136245714Y-62808200D01*
X136245714Y-62808200D02*
X136360000Y-62846295D01*
X136360000Y-62846295D02*
X136436191Y-62846295D01*
X136436191Y-62846295D02*
X136550476Y-62808200D01*
X136550476Y-62808200D02*
X136588572Y-62770104D01*
X136588572Y-62770104D02*
X136588572Y-62503438D01*
X136588572Y-62503438D02*
X136436191Y-62503438D01*
X136931429Y-62846295D02*
X136931429Y-62046295D01*
X136931429Y-62046295D02*
X137388572Y-62846295D01*
X137388572Y-62846295D02*
X137388572Y-62046295D01*
X137769524Y-62846295D02*
X137769524Y-62046295D01*
X137769524Y-62046295D02*
X137960000Y-62046295D01*
X137960000Y-62046295D02*
X138074286Y-62084390D01*
X138074286Y-62084390D02*
X138150476Y-62160580D01*
X138150476Y-62160580D02*
X138188571Y-62236771D01*
X138188571Y-62236771D02*
X138226667Y-62389152D01*
X138226667Y-62389152D02*
X138226667Y-62503438D01*
X138226667Y-62503438D02*
X138188571Y-62655819D01*
X138188571Y-62655819D02*
X138150476Y-62732009D01*
X138150476Y-62732009D02*
X138074286Y-62808200D01*
X138074286Y-62808200D02*
X137960000Y-62846295D01*
X137960000Y-62846295D02*
X137769524Y-62846295D01*
X135388571Y-56750295D02*
X135388571Y-55950295D01*
X135388571Y-55950295D02*
X135693333Y-55950295D01*
X135693333Y-55950295D02*
X135769523Y-55988390D01*
X135769523Y-55988390D02*
X135807618Y-56026485D01*
X135807618Y-56026485D02*
X135845714Y-56102676D01*
X135845714Y-56102676D02*
X135845714Y-56216961D01*
X135845714Y-56216961D02*
X135807618Y-56293152D01*
X135807618Y-56293152D02*
X135769523Y-56331247D01*
X135769523Y-56331247D02*
X135693333Y-56369342D01*
X135693333Y-56369342D02*
X135388571Y-56369342D01*
X136188571Y-56750295D02*
X136188571Y-56216961D01*
X136188571Y-56369342D02*
X136226666Y-56293152D01*
X136226666Y-56293152D02*
X136264761Y-56255057D01*
X136264761Y-56255057D02*
X136340952Y-56216961D01*
X136340952Y-56216961D02*
X136417142Y-56216961D01*
X137445714Y-55950295D02*
X137598095Y-55950295D01*
X137598095Y-55950295D02*
X137674285Y-55988390D01*
X137674285Y-55988390D02*
X137750476Y-56064580D01*
X137750476Y-56064580D02*
X137788571Y-56216961D01*
X137788571Y-56216961D02*
X137788571Y-56483628D01*
X137788571Y-56483628D02*
X137750476Y-56636009D01*
X137750476Y-56636009D02*
X137674285Y-56712200D01*
X137674285Y-56712200D02*
X137598095Y-56750295D01*
X137598095Y-56750295D02*
X137445714Y-56750295D01*
X137445714Y-56750295D02*
X137369523Y-56712200D01*
X137369523Y-56712200D02*
X137293333Y-56636009D01*
X137293333Y-56636009D02*
X137255237Y-56483628D01*
X137255237Y-56483628D02*
X137255237Y-56216961D01*
X137255237Y-56216961D02*
X137293333Y-56064580D01*
X137293333Y-56064580D02*
X137369523Y-55988390D01*
X137369523Y-55988390D02*
X137445714Y-55950295D01*
X138474285Y-56216961D02*
X138474285Y-56750295D01*
X138131428Y-56216961D02*
X138131428Y-56636009D01*
X138131428Y-56636009D02*
X138169523Y-56712200D01*
X138169523Y-56712200D02*
X138245713Y-56750295D01*
X138245713Y-56750295D02*
X138359999Y-56750295D01*
X138359999Y-56750295D02*
X138436190Y-56712200D01*
X138436190Y-56712200D02*
X138474285Y-56674104D01*
X138740952Y-56216961D02*
X139045714Y-56216961D01*
X138855238Y-55950295D02*
X138855238Y-56636009D01*
X138855238Y-56636009D02*
X138893333Y-56712200D01*
X138893333Y-56712200D02*
X138969523Y-56750295D01*
X138969523Y-56750295D02*
X139045714Y-56750295D01*
X128484476Y-65494819D02*
X129151142Y-65494819D01*
X129151142Y-65494819D02*
X128722571Y-66494819D01*
X130008285Y-65494819D02*
X129532095Y-65494819D01*
X129532095Y-65494819D02*
X129484476Y-65971009D01*
X129484476Y-65971009D02*
X129532095Y-65923390D01*
X129532095Y-65923390D02*
X129627333Y-65875771D01*
X129627333Y-65875771D02*
X129865428Y-65875771D01*
X129865428Y-65875771D02*
X129960666Y-65923390D01*
X129960666Y-65923390D02*
X130008285Y-65971009D01*
X130008285Y-65971009D02*
X130055904Y-66066247D01*
X130055904Y-66066247D02*
X130055904Y-66304342D01*
X130055904Y-66304342D02*
X130008285Y-66399580D01*
X130008285Y-66399580D02*
X129960666Y-66447200D01*
X129960666Y-66447200D02*
X129865428Y-66494819D01*
X129865428Y-66494819D02*
X129627333Y-66494819D01*
X129627333Y-66494819D02*
X129532095Y-66447200D01*
X129532095Y-66447200D02*
X129484476Y-66399580D01*
X131055904Y-66494819D02*
X130722571Y-66018628D01*
X130484476Y-66494819D02*
X130484476Y-65494819D01*
X130484476Y-65494819D02*
X130865428Y-65494819D01*
X130865428Y-65494819D02*
X130960666Y-65542438D01*
X130960666Y-65542438D02*
X131008285Y-65590057D01*
X131008285Y-65590057D02*
X131055904Y-65685295D01*
X131055904Y-65685295D02*
X131055904Y-65828152D01*
X131055904Y-65828152D02*
X131008285Y-65923390D01*
X131008285Y-65923390D02*
X130960666Y-65971009D01*
X130960666Y-65971009D02*
X130865428Y-66018628D01*
X130865428Y-66018628D02*
X130484476Y-66018628D01*
X135223485Y-68942295D02*
X135223485Y-68142295D01*
X135223485Y-68142295D02*
X135528247Y-68142295D01*
X135528247Y-68142295D02*
X135604437Y-68180390D01*
X135604437Y-68180390D02*
X135642532Y-68218485D01*
X135642532Y-68218485D02*
X135680628Y-68294676D01*
X135680628Y-68294676D02*
X135680628Y-68408961D01*
X135680628Y-68408961D02*
X135642532Y-68485152D01*
X135642532Y-68485152D02*
X135604437Y-68523247D01*
X135604437Y-68523247D02*
X135528247Y-68561342D01*
X135528247Y-68561342D02*
X135223485Y-68561342D01*
X136023485Y-68942295D02*
X136023485Y-68142295D01*
X136023485Y-68447057D02*
X136099675Y-68408961D01*
X136099675Y-68408961D02*
X136252056Y-68408961D01*
X136252056Y-68408961D02*
X136328247Y-68447057D01*
X136328247Y-68447057D02*
X136366342Y-68485152D01*
X136366342Y-68485152D02*
X136404437Y-68561342D01*
X136404437Y-68561342D02*
X136404437Y-68789914D01*
X136404437Y-68789914D02*
X136366342Y-68866104D01*
X136366342Y-68866104D02*
X136328247Y-68904200D01*
X136328247Y-68904200D02*
X136252056Y-68942295D01*
X136252056Y-68942295D02*
X136099675Y-68942295D01*
X136099675Y-68942295D02*
X136023485Y-68904200D01*
X137509200Y-68142295D02*
X137661581Y-68142295D01*
X137661581Y-68142295D02*
X137737771Y-68180390D01*
X137737771Y-68180390D02*
X137813962Y-68256580D01*
X137813962Y-68256580D02*
X137852057Y-68408961D01*
X137852057Y-68408961D02*
X137852057Y-68675628D01*
X137852057Y-68675628D02*
X137813962Y-68828009D01*
X137813962Y-68828009D02*
X137737771Y-68904200D01*
X137737771Y-68904200D02*
X137661581Y-68942295D01*
X137661581Y-68942295D02*
X137509200Y-68942295D01*
X137509200Y-68942295D02*
X137433009Y-68904200D01*
X137433009Y-68904200D02*
X137356819Y-68828009D01*
X137356819Y-68828009D02*
X137318723Y-68675628D01*
X137318723Y-68675628D02*
X137318723Y-68408961D01*
X137318723Y-68408961D02*
X137356819Y-68256580D01*
X137356819Y-68256580D02*
X137433009Y-68180390D01*
X137433009Y-68180390D02*
X137509200Y-68142295D01*
X138537771Y-68408961D02*
X138537771Y-68942295D01*
X138194914Y-68408961D02*
X138194914Y-68828009D01*
X138194914Y-68828009D02*
X138233009Y-68904200D01*
X138233009Y-68904200D02*
X138309199Y-68942295D01*
X138309199Y-68942295D02*
X138423485Y-68942295D01*
X138423485Y-68942295D02*
X138499676Y-68904200D01*
X138499676Y-68904200D02*
X138537771Y-68866104D01*
X138804438Y-68408961D02*
X139109200Y-68408961D01*
X138918724Y-68142295D02*
X138918724Y-68828009D01*
X138918724Y-68828009D02*
X138956819Y-68904200D01*
X138956819Y-68904200D02*
X139033009Y-68942295D01*
X139033009Y-68942295D02*
X139109200Y-68942295D01*
D12*
%TO.C,Q1*%
X124384000Y-66316000D02*
X124384000Y-62716000D01*
X119934001Y-64516000D02*
G75*
G03*
X121435193Y-66872399I2599999J0D01*
G01*
X123656795Y-66840183D02*
G75*
G03*
X124383999Y-66315999I-1122795J2324183D01*
G01*
X121435193Y-62159600D02*
G75*
G03*
X119934000Y-64516000I1098807J-2356400D01*
G01*
X124383999Y-62716001D02*
G75*
G03*
X123656795Y-62191817I-1849999J-1799999D01*
G01*
%TO.C,C1*%
X125805759Y-56073000D02*
X126435759Y-56073000D01*
X126120759Y-55758000D02*
X126120759Y-56388000D01*
X129306000Y-54682000D02*
X129306000Y-61142000D01*
X129346000Y-54682000D02*
X129346000Y-61142000D01*
X129386000Y-54682000D02*
X129386000Y-61142000D01*
X129426000Y-54684000D02*
X129426000Y-61140000D01*
X129466000Y-54685000D02*
X129466000Y-61139000D01*
X129506000Y-54688000D02*
X129506000Y-61136000D01*
X129546000Y-54690000D02*
X129546000Y-56872000D01*
X129546000Y-58952000D02*
X129546000Y-61134000D01*
X129586000Y-54694000D02*
X129586000Y-56872000D01*
X129586000Y-58952000D02*
X129586000Y-61130000D01*
X129626000Y-54697000D02*
X129626000Y-56872000D01*
X129626000Y-58952000D02*
X129626000Y-61127000D01*
X129666000Y-54701000D02*
X129666000Y-56872000D01*
X129666000Y-58952000D02*
X129666000Y-61123000D01*
X129706000Y-54706000D02*
X129706000Y-56872000D01*
X129706000Y-58952000D02*
X129706000Y-61118000D01*
X129746000Y-54711000D02*
X129746000Y-56872000D01*
X129746000Y-58952000D02*
X129746000Y-61113000D01*
X129786000Y-54717000D02*
X129786000Y-56872000D01*
X129786000Y-58952000D02*
X129786000Y-61107000D01*
X129826000Y-54723000D02*
X129826000Y-56872000D01*
X129826000Y-58952000D02*
X129826000Y-61101000D01*
X129866000Y-54730000D02*
X129866000Y-56872000D01*
X129866000Y-58952000D02*
X129866000Y-61094000D01*
X129906000Y-54737000D02*
X129906000Y-56872000D01*
X129906000Y-58952000D02*
X129906000Y-61087000D01*
X129946000Y-54745000D02*
X129946000Y-56872000D01*
X129946000Y-58952000D02*
X129946000Y-61079000D01*
X129986000Y-54753000D02*
X129986000Y-56872000D01*
X129986000Y-58952000D02*
X129986000Y-61071000D01*
X130027000Y-54762000D02*
X130027000Y-56872000D01*
X130027000Y-58952000D02*
X130027000Y-61062000D01*
X130067000Y-54771000D02*
X130067000Y-56872000D01*
X130067000Y-58952000D02*
X130067000Y-61053000D01*
X130107000Y-54781000D02*
X130107000Y-56872000D01*
X130107000Y-58952000D02*
X130107000Y-61043000D01*
X130147000Y-54791000D02*
X130147000Y-56872000D01*
X130147000Y-58952000D02*
X130147000Y-61033000D01*
X130187000Y-54802000D02*
X130187000Y-56872000D01*
X130187000Y-58952000D02*
X130187000Y-61022000D01*
X130227000Y-54814000D02*
X130227000Y-56872000D01*
X130227000Y-58952000D02*
X130227000Y-61010000D01*
X130267000Y-54826000D02*
X130267000Y-56872000D01*
X130267000Y-58952000D02*
X130267000Y-60998000D01*
X130307000Y-54838000D02*
X130307000Y-56872000D01*
X130307000Y-58952000D02*
X130307000Y-60986000D01*
X130347000Y-54851000D02*
X130347000Y-56872000D01*
X130347000Y-58952000D02*
X130347000Y-60973000D01*
X130387000Y-54865000D02*
X130387000Y-56872000D01*
X130387000Y-58952000D02*
X130387000Y-60959000D01*
X130427000Y-54879000D02*
X130427000Y-56872000D01*
X130427000Y-58952000D02*
X130427000Y-60945000D01*
X130467000Y-54894000D02*
X130467000Y-56872000D01*
X130467000Y-58952000D02*
X130467000Y-60930000D01*
X130507000Y-54910000D02*
X130507000Y-56872000D01*
X130507000Y-58952000D02*
X130507000Y-60914000D01*
X130547000Y-54926000D02*
X130547000Y-56872000D01*
X130547000Y-58952000D02*
X130547000Y-60898000D01*
X130587000Y-54942000D02*
X130587000Y-56872000D01*
X130587000Y-58952000D02*
X130587000Y-60882000D01*
X130627000Y-54960000D02*
X130627000Y-56872000D01*
X130627000Y-58952000D02*
X130627000Y-60864000D01*
X130667000Y-54978000D02*
X130667000Y-56872000D01*
X130667000Y-58952000D02*
X130667000Y-60846000D01*
X130707000Y-54996000D02*
X130707000Y-56872000D01*
X130707000Y-58952000D02*
X130707000Y-60828000D01*
X130747000Y-55016000D02*
X130747000Y-56872000D01*
X130747000Y-58952000D02*
X130747000Y-60808000D01*
X130787000Y-55036000D02*
X130787000Y-56872000D01*
X130787000Y-58952000D02*
X130787000Y-60788000D01*
X130827000Y-55056000D02*
X130827000Y-56872000D01*
X130827000Y-58952000D02*
X130827000Y-60768000D01*
X130867000Y-55078000D02*
X130867000Y-56872000D01*
X130867000Y-58952000D02*
X130867000Y-60746000D01*
X130907000Y-55100000D02*
X130907000Y-56872000D01*
X130907000Y-58952000D02*
X130907000Y-60724000D01*
X130947000Y-55122000D02*
X130947000Y-56872000D01*
X130947000Y-58952000D02*
X130947000Y-60702000D01*
X130987000Y-55146000D02*
X130987000Y-56872000D01*
X130987000Y-58952000D02*
X130987000Y-60678000D01*
X131027000Y-55170000D02*
X131027000Y-56872000D01*
X131027000Y-58952000D02*
X131027000Y-60654000D01*
X131067000Y-55196000D02*
X131067000Y-56872000D01*
X131067000Y-58952000D02*
X131067000Y-60628000D01*
X131107000Y-55222000D02*
X131107000Y-56872000D01*
X131107000Y-58952000D02*
X131107000Y-60602000D01*
X131147000Y-55248000D02*
X131147000Y-56872000D01*
X131147000Y-58952000D02*
X131147000Y-60576000D01*
X131187000Y-55276000D02*
X131187000Y-56872000D01*
X131187000Y-58952000D02*
X131187000Y-60548000D01*
X131227000Y-55305000D02*
X131227000Y-56872000D01*
X131227000Y-58952000D02*
X131227000Y-60519000D01*
X131267000Y-55334000D02*
X131267000Y-56872000D01*
X131267000Y-58952000D02*
X131267000Y-60490000D01*
X131307000Y-55364000D02*
X131307000Y-56872000D01*
X131307000Y-58952000D02*
X131307000Y-60460000D01*
X131347000Y-55396000D02*
X131347000Y-56872000D01*
X131347000Y-58952000D02*
X131347000Y-60428000D01*
X131387000Y-55428000D02*
X131387000Y-56872000D01*
X131387000Y-58952000D02*
X131387000Y-60396000D01*
X131427000Y-55462000D02*
X131427000Y-56872000D01*
X131427000Y-58952000D02*
X131427000Y-60362000D01*
X131467000Y-55496000D02*
X131467000Y-56872000D01*
X131467000Y-58952000D02*
X131467000Y-60328000D01*
X131507000Y-55532000D02*
X131507000Y-56872000D01*
X131507000Y-58952000D02*
X131507000Y-60292000D01*
X131547000Y-55569000D02*
X131547000Y-56872000D01*
X131547000Y-58952000D02*
X131547000Y-60255000D01*
X131587000Y-55607000D02*
X131587000Y-56872000D01*
X131587000Y-58952000D02*
X131587000Y-60217000D01*
X131627000Y-55647000D02*
X131627000Y-60177000D01*
X131667000Y-55688000D02*
X131667000Y-60136000D01*
X131707000Y-55730000D02*
X131707000Y-60094000D01*
X131747000Y-55775000D02*
X131747000Y-60049000D01*
X131787000Y-55820000D02*
X131787000Y-60004000D01*
X131827000Y-55868000D02*
X131827000Y-59956000D01*
X131867000Y-55917000D02*
X131867000Y-59907000D01*
X131907000Y-55968000D02*
X131907000Y-59856000D01*
X131947000Y-56022000D02*
X131947000Y-59802000D01*
X131987000Y-56078000D02*
X131987000Y-59746000D01*
X132027000Y-56136000D02*
X132027000Y-59688000D01*
X132067000Y-56198000D02*
X132067000Y-59626000D01*
X132107000Y-56262000D02*
X132107000Y-59562000D01*
X132147000Y-56331000D02*
X132147000Y-59493000D01*
X132187000Y-56403000D02*
X132187000Y-59421000D01*
X132227000Y-56480000D02*
X132227000Y-59344000D01*
X132267000Y-56562000D02*
X132267000Y-59262000D01*
X132307000Y-56650000D02*
X132307000Y-59174000D01*
X132347000Y-56747000D02*
X132347000Y-59077000D01*
X132387000Y-56853000D02*
X132387000Y-58971000D01*
X132427000Y-56972000D02*
X132427000Y-58852000D01*
X132467000Y-57110000D02*
X132467000Y-58714000D01*
X132507000Y-57279000D02*
X132507000Y-58545000D01*
X132547000Y-57510000D02*
X132547000Y-58314000D01*
X132576000Y-57912000D02*
G75*
G03*
X132576000Y-57912000I-3270000J0D01*
G01*
%TO.C,D1*%
X122404000Y-58420000D02*
X121754000Y-58420000D01*
X121754000Y-59540000D02*
X121754000Y-57300000D01*
X121754000Y-57300000D02*
X117514000Y-57300000D01*
X121154000Y-59540000D02*
X121154000Y-57300000D01*
X121034000Y-59540000D02*
X121034000Y-57300000D01*
X120914000Y-59540000D02*
X120914000Y-57300000D01*
X117514000Y-59540000D02*
X121754000Y-59540000D01*
X117514000Y-57300000D02*
X117514000Y-59540000D01*
X116864000Y-58420000D02*
X117514000Y-58420000D01*
%TO.C,C2*%
X125805759Y-69281000D02*
X126435759Y-69281000D01*
X126120759Y-68966000D02*
X126120759Y-69596000D01*
X129306000Y-67890000D02*
X129306000Y-74350000D01*
X129346000Y-67890000D02*
X129346000Y-74350000D01*
X129386000Y-67890000D02*
X129386000Y-74350000D01*
X129426000Y-67892000D02*
X129426000Y-74348000D01*
X129466000Y-67893000D02*
X129466000Y-74347000D01*
X129506000Y-67896000D02*
X129506000Y-74344000D01*
X129546000Y-67898000D02*
X129546000Y-70080000D01*
X129546000Y-72160000D02*
X129546000Y-74342000D01*
X129586000Y-67902000D02*
X129586000Y-70080000D01*
X129586000Y-72160000D02*
X129586000Y-74338000D01*
X129626000Y-67905000D02*
X129626000Y-70080000D01*
X129626000Y-72160000D02*
X129626000Y-74335000D01*
X129666000Y-67909000D02*
X129666000Y-70080000D01*
X129666000Y-72160000D02*
X129666000Y-74331000D01*
X129706000Y-67914000D02*
X129706000Y-70080000D01*
X129706000Y-72160000D02*
X129706000Y-74326000D01*
X129746000Y-67919000D02*
X129746000Y-70080000D01*
X129746000Y-72160000D02*
X129746000Y-74321000D01*
X129786000Y-67925000D02*
X129786000Y-70080000D01*
X129786000Y-72160000D02*
X129786000Y-74315000D01*
X129826000Y-67931000D02*
X129826000Y-70080000D01*
X129826000Y-72160000D02*
X129826000Y-74309000D01*
X129866000Y-67938000D02*
X129866000Y-70080000D01*
X129866000Y-72160000D02*
X129866000Y-74302000D01*
X129906000Y-67945000D02*
X129906000Y-70080000D01*
X129906000Y-72160000D02*
X129906000Y-74295000D01*
X129946000Y-67953000D02*
X129946000Y-70080000D01*
X129946000Y-72160000D02*
X129946000Y-74287000D01*
X129986000Y-67961000D02*
X129986000Y-70080000D01*
X129986000Y-72160000D02*
X129986000Y-74279000D01*
X130027000Y-67970000D02*
X130027000Y-70080000D01*
X130027000Y-72160000D02*
X130027000Y-74270000D01*
X130067000Y-67979000D02*
X130067000Y-70080000D01*
X130067000Y-72160000D02*
X130067000Y-74261000D01*
X130107000Y-67989000D02*
X130107000Y-70080000D01*
X130107000Y-72160000D02*
X130107000Y-74251000D01*
X130147000Y-67999000D02*
X130147000Y-70080000D01*
X130147000Y-72160000D02*
X130147000Y-74241000D01*
X130187000Y-68010000D02*
X130187000Y-70080000D01*
X130187000Y-72160000D02*
X130187000Y-74230000D01*
X130227000Y-68022000D02*
X130227000Y-70080000D01*
X130227000Y-72160000D02*
X130227000Y-74218000D01*
X130267000Y-68034000D02*
X130267000Y-70080000D01*
X130267000Y-72160000D02*
X130267000Y-74206000D01*
X130307000Y-68046000D02*
X130307000Y-70080000D01*
X130307000Y-72160000D02*
X130307000Y-74194000D01*
X130347000Y-68059000D02*
X130347000Y-70080000D01*
X130347000Y-72160000D02*
X130347000Y-74181000D01*
X130387000Y-68073000D02*
X130387000Y-70080000D01*
X130387000Y-72160000D02*
X130387000Y-74167000D01*
X130427000Y-68087000D02*
X130427000Y-70080000D01*
X130427000Y-72160000D02*
X130427000Y-74153000D01*
X130467000Y-68102000D02*
X130467000Y-70080000D01*
X130467000Y-72160000D02*
X130467000Y-74138000D01*
X130507000Y-68118000D02*
X130507000Y-70080000D01*
X130507000Y-72160000D02*
X130507000Y-74122000D01*
X130547000Y-68134000D02*
X130547000Y-70080000D01*
X130547000Y-72160000D02*
X130547000Y-74106000D01*
X130587000Y-68150000D02*
X130587000Y-70080000D01*
X130587000Y-72160000D02*
X130587000Y-74090000D01*
X130627000Y-68168000D02*
X130627000Y-70080000D01*
X130627000Y-72160000D02*
X130627000Y-74072000D01*
X130667000Y-68186000D02*
X130667000Y-70080000D01*
X130667000Y-72160000D02*
X130667000Y-74054000D01*
X130707000Y-68204000D02*
X130707000Y-70080000D01*
X130707000Y-72160000D02*
X130707000Y-74036000D01*
X130747000Y-68224000D02*
X130747000Y-70080000D01*
X130747000Y-72160000D02*
X130747000Y-74016000D01*
X130787000Y-68244000D02*
X130787000Y-70080000D01*
X130787000Y-72160000D02*
X130787000Y-73996000D01*
X130827000Y-68264000D02*
X130827000Y-70080000D01*
X130827000Y-72160000D02*
X130827000Y-73976000D01*
X130867000Y-68286000D02*
X130867000Y-70080000D01*
X130867000Y-72160000D02*
X130867000Y-73954000D01*
X130907000Y-68308000D02*
X130907000Y-70080000D01*
X130907000Y-72160000D02*
X130907000Y-73932000D01*
X130947000Y-68330000D02*
X130947000Y-70080000D01*
X130947000Y-72160000D02*
X130947000Y-73910000D01*
X130987000Y-68354000D02*
X130987000Y-70080000D01*
X130987000Y-72160000D02*
X130987000Y-73886000D01*
X131027000Y-68378000D02*
X131027000Y-70080000D01*
X131027000Y-72160000D02*
X131027000Y-73862000D01*
X131067000Y-68404000D02*
X131067000Y-70080000D01*
X131067000Y-72160000D02*
X131067000Y-73836000D01*
X131107000Y-68430000D02*
X131107000Y-70080000D01*
X131107000Y-72160000D02*
X131107000Y-73810000D01*
X131147000Y-68456000D02*
X131147000Y-70080000D01*
X131147000Y-72160000D02*
X131147000Y-73784000D01*
X131187000Y-68484000D02*
X131187000Y-70080000D01*
X131187000Y-72160000D02*
X131187000Y-73756000D01*
X131227000Y-68513000D02*
X131227000Y-70080000D01*
X131227000Y-72160000D02*
X131227000Y-73727000D01*
X131267000Y-68542000D02*
X131267000Y-70080000D01*
X131267000Y-72160000D02*
X131267000Y-73698000D01*
X131307000Y-68572000D02*
X131307000Y-70080000D01*
X131307000Y-72160000D02*
X131307000Y-73668000D01*
X131347000Y-68604000D02*
X131347000Y-70080000D01*
X131347000Y-72160000D02*
X131347000Y-73636000D01*
X131387000Y-68636000D02*
X131387000Y-70080000D01*
X131387000Y-72160000D02*
X131387000Y-73604000D01*
X131427000Y-68670000D02*
X131427000Y-70080000D01*
X131427000Y-72160000D02*
X131427000Y-73570000D01*
X131467000Y-68704000D02*
X131467000Y-70080000D01*
X131467000Y-72160000D02*
X131467000Y-73536000D01*
X131507000Y-68740000D02*
X131507000Y-70080000D01*
X131507000Y-72160000D02*
X131507000Y-73500000D01*
X131547000Y-68777000D02*
X131547000Y-70080000D01*
X131547000Y-72160000D02*
X131547000Y-73463000D01*
X131587000Y-68815000D02*
X131587000Y-70080000D01*
X131587000Y-72160000D02*
X131587000Y-73425000D01*
X131627000Y-68855000D02*
X131627000Y-73385000D01*
X131667000Y-68896000D02*
X131667000Y-73344000D01*
X131707000Y-68938000D02*
X131707000Y-73302000D01*
X131747000Y-68983000D02*
X131747000Y-73257000D01*
X131787000Y-69028000D02*
X131787000Y-73212000D01*
X131827000Y-69076000D02*
X131827000Y-73164000D01*
X131867000Y-69125000D02*
X131867000Y-73115000D01*
X131907000Y-69176000D02*
X131907000Y-73064000D01*
X131947000Y-69230000D02*
X131947000Y-73010000D01*
X131987000Y-69286000D02*
X131987000Y-72954000D01*
X132027000Y-69344000D02*
X132027000Y-72896000D01*
X132067000Y-69406000D02*
X132067000Y-72834000D01*
X132107000Y-69470000D02*
X132107000Y-72770000D01*
X132147000Y-69539000D02*
X132147000Y-72701000D01*
X132187000Y-69611000D02*
X132187000Y-72629000D01*
X132227000Y-69688000D02*
X132227000Y-72552000D01*
X132267000Y-69770000D02*
X132267000Y-72470000D01*
X132307000Y-69858000D02*
X132307000Y-72382000D01*
X132347000Y-69955000D02*
X132347000Y-72285000D01*
X132387000Y-70061000D02*
X132387000Y-72179000D01*
X132427000Y-70180000D02*
X132427000Y-72060000D01*
X132467000Y-70318000D02*
X132467000Y-71922000D01*
X132507000Y-70487000D02*
X132507000Y-71753000D01*
X132547000Y-70718000D02*
X132547000Y-71522000D01*
X132576000Y-71120000D02*
G75*
G03*
X132576000Y-71120000I-3270000J0D01*
G01*
%TO.C,Q2*%
X119304000Y-66316000D02*
X119304000Y-62716000D01*
X114854001Y-64516000D02*
G75*
G03*
X116355193Y-66872399I2599999J0D01*
G01*
X118576795Y-66840183D02*
G75*
G03*
X119303999Y-66315999I-1122795J2324183D01*
G01*
X116355193Y-62159600D02*
G75*
G03*
X114854000Y-64516000I1098807J-2356400D01*
G01*
X119303999Y-62716001D02*
G75*
G03*
X118576795Y-62191817I-1849999J-1799999D01*
G01*
%TO.C,D2*%
X122404000Y-70612000D02*
X121754000Y-70612000D01*
X121754000Y-71732000D02*
X121754000Y-69492000D01*
X121754000Y-69492000D02*
X117514000Y-69492000D01*
X121154000Y-71732000D02*
X121154000Y-69492000D01*
X121034000Y-71732000D02*
X121034000Y-69492000D01*
X120914000Y-71732000D02*
X120914000Y-69492000D01*
X117514000Y-71732000D02*
X121754000Y-71732000D01*
X117514000Y-69492000D02*
X117514000Y-71732000D01*
X116864000Y-70612000D02*
X117514000Y-70612000D01*
%TO.C,R1*%
X126524000Y-61622000D02*
X133064000Y-61622000D01*
X126524000Y-61952000D02*
X126524000Y-61622000D01*
X126524000Y-64032000D02*
X126524000Y-64362000D01*
X126524000Y-64362000D02*
X133064000Y-64362000D01*
X133064000Y-61622000D02*
X133064000Y-61952000D01*
X133064000Y-64362000D02*
X133064000Y-64032000D01*
%TO.C,R2*%
X126524000Y-64670000D02*
X133064000Y-64670000D01*
X126524000Y-65000000D02*
X126524000Y-64670000D01*
X126524000Y-67080000D02*
X126524000Y-67410000D01*
X126524000Y-67410000D02*
X133064000Y-67410000D01*
X133064000Y-64670000D02*
X133064000Y-65000000D01*
X133064000Y-67410000D02*
X133064000Y-67080000D01*
%TD*%
M02*
