%TF.GenerationSoftware,KiCad,Pcbnew,7.0.7*%
%TF.CreationDate,2023-08-19T23:12:14-07:00*%
%TF.ProjectId,snesypbpr-enhanced,736e6573-7970-4627-9072-2d656e68616e,rev?*%
%TF.SameCoordinates,Original*%
%TF.FileFunction,Legend,Top*%
%TF.FilePolarity,Positive*%
%FSLAX46Y46*%
G04 Gerber Fmt 4.6, Leading zero omitted, Abs format (unit mm)*
G04 Created by KiCad (PCBNEW 7.0.7) date 2023-08-19 23:12:14*
%MOMM*%
%LPD*%
G01*
G04 APERTURE LIST*
%ADD10C,0.150000*%
%ADD11C,0.120000*%
G04 APERTURE END LIST*
D10*
X123006295Y-82340190D02*
X123006295Y-82264000D01*
X123006295Y-82264000D02*
X123044390Y-82187809D01*
X123044390Y-82187809D02*
X123082485Y-82149714D01*
X123082485Y-82149714D02*
X123158676Y-82111619D01*
X123158676Y-82111619D02*
X123311057Y-82073524D01*
X123311057Y-82073524D02*
X123501533Y-82073524D01*
X123501533Y-82073524D02*
X123653914Y-82111619D01*
X123653914Y-82111619D02*
X123730104Y-82149714D01*
X123730104Y-82149714D02*
X123768200Y-82187809D01*
X123768200Y-82187809D02*
X123806295Y-82264000D01*
X123806295Y-82264000D02*
X123806295Y-82340190D01*
X123806295Y-82340190D02*
X123768200Y-82416381D01*
X123768200Y-82416381D02*
X123730104Y-82454476D01*
X123730104Y-82454476D02*
X123653914Y-82492571D01*
X123653914Y-82492571D02*
X123501533Y-82530667D01*
X123501533Y-82530667D02*
X123311057Y-82530667D01*
X123311057Y-82530667D02*
X123158676Y-82492571D01*
X123158676Y-82492571D02*
X123082485Y-82454476D01*
X123082485Y-82454476D02*
X123044390Y-82416381D01*
X123044390Y-82416381D02*
X123006295Y-82340190D01*
X123501533Y-81730666D02*
X123501533Y-81121143D01*
X123806295Y-80321143D02*
X123806295Y-80778286D01*
X123806295Y-80549714D02*
X123006295Y-80549714D01*
X123006295Y-80549714D02*
X123120580Y-80625905D01*
X123120580Y-80625905D02*
X123196771Y-80702095D01*
X123196771Y-80702095D02*
X123234866Y-80778286D01*
X123006295Y-79825904D02*
X123006295Y-79749714D01*
X123006295Y-79749714D02*
X123044390Y-79673523D01*
X123044390Y-79673523D02*
X123082485Y-79635428D01*
X123082485Y-79635428D02*
X123158676Y-79597333D01*
X123158676Y-79597333D02*
X123311057Y-79559238D01*
X123311057Y-79559238D02*
X123501533Y-79559238D01*
X123501533Y-79559238D02*
X123653914Y-79597333D01*
X123653914Y-79597333D02*
X123730104Y-79635428D01*
X123730104Y-79635428D02*
X123768200Y-79673523D01*
X123768200Y-79673523D02*
X123806295Y-79749714D01*
X123806295Y-79749714D02*
X123806295Y-79825904D01*
X123806295Y-79825904D02*
X123768200Y-79902095D01*
X123768200Y-79902095D02*
X123730104Y-79940190D01*
X123730104Y-79940190D02*
X123653914Y-79978285D01*
X123653914Y-79978285D02*
X123501533Y-80016381D01*
X123501533Y-80016381D02*
X123311057Y-80016381D01*
X123311057Y-80016381D02*
X123158676Y-79978285D01*
X123158676Y-79978285D02*
X123082485Y-79940190D01*
X123082485Y-79940190D02*
X123044390Y-79902095D01*
X123044390Y-79902095D02*
X123006295Y-79825904D01*
X123006295Y-79063999D02*
X123006295Y-78987809D01*
X123006295Y-78987809D02*
X123044390Y-78911618D01*
X123044390Y-78911618D02*
X123082485Y-78873523D01*
X123082485Y-78873523D02*
X123158676Y-78835428D01*
X123158676Y-78835428D02*
X123311057Y-78797333D01*
X123311057Y-78797333D02*
X123501533Y-78797333D01*
X123501533Y-78797333D02*
X123653914Y-78835428D01*
X123653914Y-78835428D02*
X123730104Y-78873523D01*
X123730104Y-78873523D02*
X123768200Y-78911618D01*
X123768200Y-78911618D02*
X123806295Y-78987809D01*
X123806295Y-78987809D02*
X123806295Y-79063999D01*
X123806295Y-79063999D02*
X123768200Y-79140190D01*
X123768200Y-79140190D02*
X123730104Y-79178285D01*
X123730104Y-79178285D02*
X123653914Y-79216380D01*
X123653914Y-79216380D02*
X123501533Y-79254476D01*
X123501533Y-79254476D02*
X123311057Y-79254476D01*
X123311057Y-79254476D02*
X123158676Y-79216380D01*
X123158676Y-79216380D02*
X123082485Y-79178285D01*
X123082485Y-79178285D02*
X123044390Y-79140190D01*
X123044390Y-79140190D02*
X123006295Y-79063999D01*
X123806295Y-77997332D02*
X123425342Y-78263999D01*
X123806295Y-78454475D02*
X123006295Y-78454475D01*
X123006295Y-78454475D02*
X123006295Y-78149713D01*
X123006295Y-78149713D02*
X123044390Y-78073523D01*
X123044390Y-78073523D02*
X123082485Y-78035428D01*
X123082485Y-78035428D02*
X123158676Y-77997332D01*
X123158676Y-77997332D02*
X123272961Y-77997332D01*
X123272961Y-77997332D02*
X123349152Y-78035428D01*
X123349152Y-78035428D02*
X123387247Y-78073523D01*
X123387247Y-78073523D02*
X123425342Y-78149713D01*
X123425342Y-78149713D02*
X123425342Y-78454475D01*
X129778819Y-81938475D02*
X129778819Y-81367047D01*
X130778819Y-81652761D02*
X129778819Y-81652761D01*
X130778819Y-81033713D02*
X129778819Y-81033713D01*
X129778819Y-81033713D02*
X129778819Y-80652761D01*
X129778819Y-80652761D02*
X129826438Y-80557523D01*
X129826438Y-80557523D02*
X129874057Y-80509904D01*
X129874057Y-80509904D02*
X129969295Y-80462285D01*
X129969295Y-80462285D02*
X130112152Y-80462285D01*
X130112152Y-80462285D02*
X130207390Y-80509904D01*
X130207390Y-80509904D02*
X130255009Y-80557523D01*
X130255009Y-80557523D02*
X130302628Y-80652761D01*
X130302628Y-80652761D02*
X130302628Y-81033713D01*
X129778819Y-79843237D02*
X129778819Y-79652761D01*
X129778819Y-79652761D02*
X129826438Y-79557523D01*
X129826438Y-79557523D02*
X129921676Y-79462285D01*
X129921676Y-79462285D02*
X130112152Y-79414666D01*
X130112152Y-79414666D02*
X130445485Y-79414666D01*
X130445485Y-79414666D02*
X130635961Y-79462285D01*
X130635961Y-79462285D02*
X130731200Y-79557523D01*
X130731200Y-79557523D02*
X130778819Y-79652761D01*
X130778819Y-79652761D02*
X130778819Y-79843237D01*
X130778819Y-79843237D02*
X130731200Y-79938475D01*
X130731200Y-79938475D02*
X130635961Y-80033713D01*
X130635961Y-80033713D02*
X130445485Y-80081332D01*
X130445485Y-80081332D02*
X130112152Y-80081332D01*
X130112152Y-80081332D02*
X129921676Y-80033713D01*
X129921676Y-80033713D02*
X129826438Y-79938475D01*
X129826438Y-79938475D02*
X129778819Y-79843237D01*
X129778819Y-79128951D02*
X129778819Y-78557523D01*
X130778819Y-78843237D02*
X129778819Y-78843237D01*
X129247834Y-69144762D02*
X129209739Y-69106666D01*
X129209739Y-69106666D02*
X129171644Y-69030476D01*
X129171644Y-69030476D02*
X129171644Y-68840000D01*
X129171644Y-68840000D02*
X129209739Y-68763809D01*
X129209739Y-68763809D02*
X129247834Y-68725714D01*
X129247834Y-68725714D02*
X129324025Y-68687619D01*
X129324025Y-68687619D02*
X129400215Y-68687619D01*
X129400215Y-68687619D02*
X129514501Y-68725714D01*
X129514501Y-68725714D02*
X129971644Y-69182857D01*
X129971644Y-69182857D02*
X129971644Y-68687619D01*
X129247834Y-68382857D02*
X129209739Y-68344761D01*
X129209739Y-68344761D02*
X129171644Y-68268571D01*
X129171644Y-68268571D02*
X129171644Y-68078095D01*
X129171644Y-68078095D02*
X129209739Y-68001904D01*
X129209739Y-68001904D02*
X129247834Y-67963809D01*
X129247834Y-67963809D02*
X129324025Y-67925714D01*
X129324025Y-67925714D02*
X129400215Y-67925714D01*
X129400215Y-67925714D02*
X129514501Y-67963809D01*
X129514501Y-67963809D02*
X129971644Y-68420952D01*
X129971644Y-68420952D02*
X129971644Y-67925714D01*
X129171644Y-67430475D02*
X129171644Y-67354285D01*
X129171644Y-67354285D02*
X129209739Y-67278094D01*
X129209739Y-67278094D02*
X129247834Y-67239999D01*
X129247834Y-67239999D02*
X129324025Y-67201904D01*
X129324025Y-67201904D02*
X129476406Y-67163809D01*
X129476406Y-67163809D02*
X129666882Y-67163809D01*
X129666882Y-67163809D02*
X129819263Y-67201904D01*
X129819263Y-67201904D02*
X129895453Y-67239999D01*
X129895453Y-67239999D02*
X129933549Y-67278094D01*
X129933549Y-67278094D02*
X129971644Y-67354285D01*
X129971644Y-67354285D02*
X129971644Y-67430475D01*
X129971644Y-67430475D02*
X129933549Y-67506666D01*
X129933549Y-67506666D02*
X129895453Y-67544761D01*
X129895453Y-67544761D02*
X129819263Y-67582856D01*
X129819263Y-67582856D02*
X129666882Y-67620952D01*
X129666882Y-67620952D02*
X129476406Y-67620952D01*
X129476406Y-67620952D02*
X129324025Y-67582856D01*
X129324025Y-67582856D02*
X129247834Y-67544761D01*
X129247834Y-67544761D02*
X129209739Y-67506666D01*
X129209739Y-67506666D02*
X129171644Y-67430475D01*
X129438310Y-66478094D02*
X129971644Y-66478094D01*
X129438310Y-66820951D02*
X129857358Y-66820951D01*
X129857358Y-66820951D02*
X129933549Y-66782856D01*
X129933549Y-66782856D02*
X129971644Y-66706666D01*
X129971644Y-66706666D02*
X129971644Y-66592380D01*
X129971644Y-66592380D02*
X129933549Y-66516189D01*
X129933549Y-66516189D02*
X129895453Y-66478094D01*
X129552596Y-65830475D02*
X129552596Y-66097141D01*
X129971644Y-66097141D02*
X129171644Y-66097141D01*
X129171644Y-66097141D02*
X129171644Y-65716189D01*
X129171644Y-64878094D02*
X129171644Y-64382856D01*
X129171644Y-64382856D02*
X129476406Y-64649522D01*
X129476406Y-64649522D02*
X129476406Y-64535237D01*
X129476406Y-64535237D02*
X129514501Y-64459046D01*
X129514501Y-64459046D02*
X129552596Y-64420951D01*
X129552596Y-64420951D02*
X129628787Y-64382856D01*
X129628787Y-64382856D02*
X129819263Y-64382856D01*
X129819263Y-64382856D02*
X129895453Y-64420951D01*
X129895453Y-64420951D02*
X129933549Y-64459046D01*
X129933549Y-64459046D02*
X129971644Y-64535237D01*
X129971644Y-64535237D02*
X129971644Y-64763808D01*
X129971644Y-64763808D02*
X129933549Y-64839999D01*
X129933549Y-64839999D02*
X129895453Y-64878094D01*
X129171644Y-63659046D02*
X129171644Y-64039998D01*
X129171644Y-64039998D02*
X129552596Y-64078094D01*
X129552596Y-64078094D02*
X129514501Y-64039998D01*
X129514501Y-64039998D02*
X129476406Y-63963808D01*
X129476406Y-63963808D02*
X129476406Y-63773332D01*
X129476406Y-63773332D02*
X129514501Y-63697141D01*
X129514501Y-63697141D02*
X129552596Y-63659046D01*
X129552596Y-63659046D02*
X129628787Y-63620951D01*
X129628787Y-63620951D02*
X129819263Y-63620951D01*
X129819263Y-63620951D02*
X129895453Y-63659046D01*
X129895453Y-63659046D02*
X129933549Y-63697141D01*
X129933549Y-63697141D02*
X129971644Y-63773332D01*
X129971644Y-63773332D02*
X129971644Y-63963808D01*
X129971644Y-63963808D02*
X129933549Y-64039998D01*
X129933549Y-64039998D02*
X129895453Y-64078094D01*
X129171644Y-63392379D02*
X129971644Y-63125712D01*
X129971644Y-63125712D02*
X129171644Y-62859046D01*
X105402286Y-77924819D02*
X105402286Y-76924819D01*
X105402286Y-76924819D02*
X105783238Y-76924819D01*
X105783238Y-76924819D02*
X105878476Y-76972438D01*
X105878476Y-76972438D02*
X105926095Y-77020057D01*
X105926095Y-77020057D02*
X105973714Y-77115295D01*
X105973714Y-77115295D02*
X105973714Y-77258152D01*
X105973714Y-77258152D02*
X105926095Y-77353390D01*
X105926095Y-77353390D02*
X105878476Y-77401009D01*
X105878476Y-77401009D02*
X105783238Y-77448628D01*
X105783238Y-77448628D02*
X105402286Y-77448628D01*
X106402286Y-77924819D02*
X106402286Y-76924819D01*
X106402286Y-77305771D02*
X106497524Y-77258152D01*
X106497524Y-77258152D02*
X106688000Y-77258152D01*
X106688000Y-77258152D02*
X106783238Y-77305771D01*
X106783238Y-77305771D02*
X106830857Y-77353390D01*
X106830857Y-77353390D02*
X106878476Y-77448628D01*
X106878476Y-77448628D02*
X106878476Y-77734342D01*
X106878476Y-77734342D02*
X106830857Y-77829580D01*
X106830857Y-77829580D02*
X106783238Y-77877200D01*
X106783238Y-77877200D02*
X106688000Y-77924819D01*
X106688000Y-77924819D02*
X106497524Y-77924819D01*
X106497524Y-77924819D02*
X106402286Y-77877200D01*
X108068953Y-77924819D02*
X108068953Y-76924819D01*
X108545143Y-77258152D02*
X108545143Y-77924819D01*
X108545143Y-77353390D02*
X108592762Y-77305771D01*
X108592762Y-77305771D02*
X108688000Y-77258152D01*
X108688000Y-77258152D02*
X108830857Y-77258152D01*
X108830857Y-77258152D02*
X108926095Y-77305771D01*
X108926095Y-77305771D02*
X108973714Y-77401009D01*
X108973714Y-77401009D02*
X108973714Y-77924819D01*
X130106057Y-75429904D02*
X130058438Y-75382285D01*
X130058438Y-75382285D02*
X130010819Y-75287047D01*
X130010819Y-75287047D02*
X130010819Y-75048952D01*
X130010819Y-75048952D02*
X130058438Y-74953714D01*
X130058438Y-74953714D02*
X130106057Y-74906095D01*
X130106057Y-74906095D02*
X130201295Y-74858476D01*
X130201295Y-74858476D02*
X130296533Y-74858476D01*
X130296533Y-74858476D02*
X130439390Y-74906095D01*
X130439390Y-74906095D02*
X131010819Y-75477523D01*
X131010819Y-75477523D02*
X131010819Y-74858476D01*
X130010819Y-74239428D02*
X130010819Y-74144190D01*
X130010819Y-74144190D02*
X130058438Y-74048952D01*
X130058438Y-74048952D02*
X130106057Y-74001333D01*
X130106057Y-74001333D02*
X130201295Y-73953714D01*
X130201295Y-73953714D02*
X130391771Y-73906095D01*
X130391771Y-73906095D02*
X130629866Y-73906095D01*
X130629866Y-73906095D02*
X130820342Y-73953714D01*
X130820342Y-73953714D02*
X130915580Y-74001333D01*
X130915580Y-74001333D02*
X130963200Y-74048952D01*
X130963200Y-74048952D02*
X131010819Y-74144190D01*
X131010819Y-74144190D02*
X131010819Y-74239428D01*
X131010819Y-74239428D02*
X130963200Y-74334666D01*
X130963200Y-74334666D02*
X130915580Y-74382285D01*
X130915580Y-74382285D02*
X130820342Y-74429904D01*
X130820342Y-74429904D02*
X130629866Y-74477523D01*
X130629866Y-74477523D02*
X130391771Y-74477523D01*
X130391771Y-74477523D02*
X130201295Y-74429904D01*
X130201295Y-74429904D02*
X130106057Y-74382285D01*
X130106057Y-74382285D02*
X130058438Y-74334666D01*
X130058438Y-74334666D02*
X130010819Y-74239428D01*
X131010819Y-72906095D02*
X130534628Y-73239428D01*
X131010819Y-73477523D02*
X130010819Y-73477523D01*
X130010819Y-73477523D02*
X130010819Y-73096571D01*
X130010819Y-73096571D02*
X130058438Y-73001333D01*
X130058438Y-73001333D02*
X130106057Y-72953714D01*
X130106057Y-72953714D02*
X130201295Y-72906095D01*
X130201295Y-72906095D02*
X130344152Y-72906095D01*
X130344152Y-72906095D02*
X130439390Y-72953714D01*
X130439390Y-72953714D02*
X130487009Y-73001333D01*
X130487009Y-73001333D02*
X130534628Y-73096571D01*
X130534628Y-73096571D02*
X130534628Y-73477523D01*
X115220761Y-67352057D02*
X115125523Y-67304438D01*
X115125523Y-67304438D02*
X115030285Y-67209200D01*
X115030285Y-67209200D02*
X114887428Y-67066342D01*
X114887428Y-67066342D02*
X114792190Y-67018723D01*
X114792190Y-67018723D02*
X114696952Y-67018723D01*
X114744571Y-67256819D02*
X114649333Y-67209200D01*
X114649333Y-67209200D02*
X114554095Y-67113961D01*
X114554095Y-67113961D02*
X114506476Y-66923485D01*
X114506476Y-66923485D02*
X114506476Y-66590152D01*
X114506476Y-66590152D02*
X114554095Y-66399676D01*
X114554095Y-66399676D02*
X114649333Y-66304438D01*
X114649333Y-66304438D02*
X114744571Y-66256819D01*
X114744571Y-66256819D02*
X114935047Y-66256819D01*
X114935047Y-66256819D02*
X115030285Y-66304438D01*
X115030285Y-66304438D02*
X115125523Y-66399676D01*
X115125523Y-66399676D02*
X115173142Y-66590152D01*
X115173142Y-66590152D02*
X115173142Y-66923485D01*
X115173142Y-66923485D02*
X115125523Y-67113961D01*
X115125523Y-67113961D02*
X115030285Y-67209200D01*
X115030285Y-67209200D02*
X114935047Y-67256819D01*
X114935047Y-67256819D02*
X114744571Y-67256819D01*
X116125523Y-67256819D02*
X115554095Y-67256819D01*
X115839809Y-67256819D02*
X115839809Y-66256819D01*
X115839809Y-66256819D02*
X115744571Y-66399676D01*
X115744571Y-66399676D02*
X115649333Y-66494914D01*
X115649333Y-66494914D02*
X115554095Y-66542533D01*
X110858855Y-62706200D02*
X110973141Y-62744295D01*
X110973141Y-62744295D02*
X111163617Y-62744295D01*
X111163617Y-62744295D02*
X111239808Y-62706200D01*
X111239808Y-62706200D02*
X111277903Y-62668104D01*
X111277903Y-62668104D02*
X111315998Y-62591914D01*
X111315998Y-62591914D02*
X111315998Y-62515723D01*
X111315998Y-62515723D02*
X111277903Y-62439533D01*
X111277903Y-62439533D02*
X111239808Y-62401438D01*
X111239808Y-62401438D02*
X111163617Y-62363342D01*
X111163617Y-62363342D02*
X111011236Y-62325247D01*
X111011236Y-62325247D02*
X110935046Y-62287152D01*
X110935046Y-62287152D02*
X110896951Y-62249057D01*
X110896951Y-62249057D02*
X110858855Y-62172866D01*
X110858855Y-62172866D02*
X110858855Y-62096676D01*
X110858855Y-62096676D02*
X110896951Y-62020485D01*
X110896951Y-62020485D02*
X110935046Y-61982390D01*
X110935046Y-61982390D02*
X111011236Y-61944295D01*
X111011236Y-61944295D02*
X111201713Y-61944295D01*
X111201713Y-61944295D02*
X111315998Y-61982390D01*
X111773141Y-62287152D02*
X111696951Y-62249057D01*
X111696951Y-62249057D02*
X111658856Y-62210961D01*
X111658856Y-62210961D02*
X111620760Y-62134771D01*
X111620760Y-62134771D02*
X111620760Y-62096676D01*
X111620760Y-62096676D02*
X111658856Y-62020485D01*
X111658856Y-62020485D02*
X111696951Y-61982390D01*
X111696951Y-61982390D02*
X111773141Y-61944295D01*
X111773141Y-61944295D02*
X111925522Y-61944295D01*
X111925522Y-61944295D02*
X112001713Y-61982390D01*
X112001713Y-61982390D02*
X112039808Y-62020485D01*
X112039808Y-62020485D02*
X112077903Y-62096676D01*
X112077903Y-62096676D02*
X112077903Y-62134771D01*
X112077903Y-62134771D02*
X112039808Y-62210961D01*
X112039808Y-62210961D02*
X112001713Y-62249057D01*
X112001713Y-62249057D02*
X111925522Y-62287152D01*
X111925522Y-62287152D02*
X111773141Y-62287152D01*
X111773141Y-62287152D02*
X111696951Y-62325247D01*
X111696951Y-62325247D02*
X111658856Y-62363342D01*
X111658856Y-62363342D02*
X111620760Y-62439533D01*
X111620760Y-62439533D02*
X111620760Y-62591914D01*
X111620760Y-62591914D02*
X111658856Y-62668104D01*
X111658856Y-62668104D02*
X111696951Y-62706200D01*
X111696951Y-62706200D02*
X111773141Y-62744295D01*
X111773141Y-62744295D02*
X111925522Y-62744295D01*
X111925522Y-62744295D02*
X112001713Y-62706200D01*
X112001713Y-62706200D02*
X112039808Y-62668104D01*
X112039808Y-62668104D02*
X112077903Y-62591914D01*
X112077903Y-62591914D02*
X112077903Y-62439533D01*
X112077903Y-62439533D02*
X112039808Y-62363342D01*
X112039808Y-62363342D02*
X112001713Y-62325247D01*
X112001713Y-62325247D02*
X111925522Y-62287152D01*
X112573142Y-61944295D02*
X112649332Y-61944295D01*
X112649332Y-61944295D02*
X112725523Y-61982390D01*
X112725523Y-61982390D02*
X112763618Y-62020485D01*
X112763618Y-62020485D02*
X112801713Y-62096676D01*
X112801713Y-62096676D02*
X112839808Y-62249057D01*
X112839808Y-62249057D02*
X112839808Y-62439533D01*
X112839808Y-62439533D02*
X112801713Y-62591914D01*
X112801713Y-62591914D02*
X112763618Y-62668104D01*
X112763618Y-62668104D02*
X112725523Y-62706200D01*
X112725523Y-62706200D02*
X112649332Y-62744295D01*
X112649332Y-62744295D02*
X112573142Y-62744295D01*
X112573142Y-62744295D02*
X112496951Y-62706200D01*
X112496951Y-62706200D02*
X112458856Y-62668104D01*
X112458856Y-62668104D02*
X112420761Y-62591914D01*
X112420761Y-62591914D02*
X112382665Y-62439533D01*
X112382665Y-62439533D02*
X112382665Y-62249057D01*
X112382665Y-62249057D02*
X112420761Y-62096676D01*
X112420761Y-62096676D02*
X112458856Y-62020485D01*
X112458856Y-62020485D02*
X112496951Y-61982390D01*
X112496951Y-61982390D02*
X112573142Y-61944295D01*
X113563618Y-61944295D02*
X113182666Y-61944295D01*
X113182666Y-61944295D02*
X113144570Y-62325247D01*
X113144570Y-62325247D02*
X113182666Y-62287152D01*
X113182666Y-62287152D02*
X113258856Y-62249057D01*
X113258856Y-62249057D02*
X113449332Y-62249057D01*
X113449332Y-62249057D02*
X113525523Y-62287152D01*
X113525523Y-62287152D02*
X113563618Y-62325247D01*
X113563618Y-62325247D02*
X113601713Y-62401438D01*
X113601713Y-62401438D02*
X113601713Y-62591914D01*
X113601713Y-62591914D02*
X113563618Y-62668104D01*
X113563618Y-62668104D02*
X113525523Y-62706200D01*
X113525523Y-62706200D02*
X113449332Y-62744295D01*
X113449332Y-62744295D02*
X113258856Y-62744295D01*
X113258856Y-62744295D02*
X113182666Y-62706200D01*
X113182666Y-62706200D02*
X113144570Y-62668104D01*
X114096952Y-61944295D02*
X114173142Y-61944295D01*
X114173142Y-61944295D02*
X114249333Y-61982390D01*
X114249333Y-61982390D02*
X114287428Y-62020485D01*
X114287428Y-62020485D02*
X114325523Y-62096676D01*
X114325523Y-62096676D02*
X114363618Y-62249057D01*
X114363618Y-62249057D02*
X114363618Y-62439533D01*
X114363618Y-62439533D02*
X114325523Y-62591914D01*
X114325523Y-62591914D02*
X114287428Y-62668104D01*
X114287428Y-62668104D02*
X114249333Y-62706200D01*
X114249333Y-62706200D02*
X114173142Y-62744295D01*
X114173142Y-62744295D02*
X114096952Y-62744295D01*
X114096952Y-62744295D02*
X114020761Y-62706200D01*
X114020761Y-62706200D02*
X113982666Y-62668104D01*
X113982666Y-62668104D02*
X113944571Y-62591914D01*
X113944571Y-62591914D02*
X113906475Y-62439533D01*
X113906475Y-62439533D02*
X113906475Y-62249057D01*
X113906475Y-62249057D02*
X113944571Y-62096676D01*
X113944571Y-62096676D02*
X113982666Y-62020485D01*
X113982666Y-62020485D02*
X114020761Y-61982390D01*
X114020761Y-61982390D02*
X114096952Y-61944295D01*
X115277904Y-61906200D02*
X114592190Y-62934771D01*
X115506475Y-62706200D02*
X115620761Y-62744295D01*
X115620761Y-62744295D02*
X115811237Y-62744295D01*
X115811237Y-62744295D02*
X115887428Y-62706200D01*
X115887428Y-62706200D02*
X115925523Y-62668104D01*
X115925523Y-62668104D02*
X115963618Y-62591914D01*
X115963618Y-62591914D02*
X115963618Y-62515723D01*
X115963618Y-62515723D02*
X115925523Y-62439533D01*
X115925523Y-62439533D02*
X115887428Y-62401438D01*
X115887428Y-62401438D02*
X115811237Y-62363342D01*
X115811237Y-62363342D02*
X115658856Y-62325247D01*
X115658856Y-62325247D02*
X115582666Y-62287152D01*
X115582666Y-62287152D02*
X115544571Y-62249057D01*
X115544571Y-62249057D02*
X115506475Y-62172866D01*
X115506475Y-62172866D02*
X115506475Y-62096676D01*
X115506475Y-62096676D02*
X115544571Y-62020485D01*
X115544571Y-62020485D02*
X115582666Y-61982390D01*
X115582666Y-61982390D02*
X115658856Y-61944295D01*
X115658856Y-61944295D02*
X115849333Y-61944295D01*
X115849333Y-61944295D02*
X115963618Y-61982390D01*
X116268380Y-62706200D02*
X116382666Y-62744295D01*
X116382666Y-62744295D02*
X116573142Y-62744295D01*
X116573142Y-62744295D02*
X116649333Y-62706200D01*
X116649333Y-62706200D02*
X116687428Y-62668104D01*
X116687428Y-62668104D02*
X116725523Y-62591914D01*
X116725523Y-62591914D02*
X116725523Y-62515723D01*
X116725523Y-62515723D02*
X116687428Y-62439533D01*
X116687428Y-62439533D02*
X116649333Y-62401438D01*
X116649333Y-62401438D02*
X116573142Y-62363342D01*
X116573142Y-62363342D02*
X116420761Y-62325247D01*
X116420761Y-62325247D02*
X116344571Y-62287152D01*
X116344571Y-62287152D02*
X116306476Y-62249057D01*
X116306476Y-62249057D02*
X116268380Y-62172866D01*
X116268380Y-62172866D02*
X116268380Y-62096676D01*
X116268380Y-62096676D02*
X116306476Y-62020485D01*
X116306476Y-62020485D02*
X116344571Y-61982390D01*
X116344571Y-61982390D02*
X116420761Y-61944295D01*
X116420761Y-61944295D02*
X116611238Y-61944295D01*
X116611238Y-61944295D02*
X116725523Y-61982390D01*
X117182666Y-62287152D02*
X117106476Y-62249057D01*
X117106476Y-62249057D02*
X117068381Y-62210961D01*
X117068381Y-62210961D02*
X117030285Y-62134771D01*
X117030285Y-62134771D02*
X117030285Y-62096676D01*
X117030285Y-62096676D02*
X117068381Y-62020485D01*
X117068381Y-62020485D02*
X117106476Y-61982390D01*
X117106476Y-61982390D02*
X117182666Y-61944295D01*
X117182666Y-61944295D02*
X117335047Y-61944295D01*
X117335047Y-61944295D02*
X117411238Y-61982390D01*
X117411238Y-61982390D02*
X117449333Y-62020485D01*
X117449333Y-62020485D02*
X117487428Y-62096676D01*
X117487428Y-62096676D02*
X117487428Y-62134771D01*
X117487428Y-62134771D02*
X117449333Y-62210961D01*
X117449333Y-62210961D02*
X117411238Y-62249057D01*
X117411238Y-62249057D02*
X117335047Y-62287152D01*
X117335047Y-62287152D02*
X117182666Y-62287152D01*
X117182666Y-62287152D02*
X117106476Y-62325247D01*
X117106476Y-62325247D02*
X117068381Y-62363342D01*
X117068381Y-62363342D02*
X117030285Y-62439533D01*
X117030285Y-62439533D02*
X117030285Y-62591914D01*
X117030285Y-62591914D02*
X117068381Y-62668104D01*
X117068381Y-62668104D02*
X117106476Y-62706200D01*
X117106476Y-62706200D02*
X117182666Y-62744295D01*
X117182666Y-62744295D02*
X117335047Y-62744295D01*
X117335047Y-62744295D02*
X117411238Y-62706200D01*
X117411238Y-62706200D02*
X117449333Y-62668104D01*
X117449333Y-62668104D02*
X117487428Y-62591914D01*
X117487428Y-62591914D02*
X117487428Y-62439533D01*
X117487428Y-62439533D02*
X117449333Y-62363342D01*
X117449333Y-62363342D02*
X117411238Y-62325247D01*
X117411238Y-62325247D02*
X117335047Y-62287152D01*
X117982667Y-61944295D02*
X118058857Y-61944295D01*
X118058857Y-61944295D02*
X118135048Y-61982390D01*
X118135048Y-61982390D02*
X118173143Y-62020485D01*
X118173143Y-62020485D02*
X118211238Y-62096676D01*
X118211238Y-62096676D02*
X118249333Y-62249057D01*
X118249333Y-62249057D02*
X118249333Y-62439533D01*
X118249333Y-62439533D02*
X118211238Y-62591914D01*
X118211238Y-62591914D02*
X118173143Y-62668104D01*
X118173143Y-62668104D02*
X118135048Y-62706200D01*
X118135048Y-62706200D02*
X118058857Y-62744295D01*
X118058857Y-62744295D02*
X117982667Y-62744295D01*
X117982667Y-62744295D02*
X117906476Y-62706200D01*
X117906476Y-62706200D02*
X117868381Y-62668104D01*
X117868381Y-62668104D02*
X117830286Y-62591914D01*
X117830286Y-62591914D02*
X117792190Y-62439533D01*
X117792190Y-62439533D02*
X117792190Y-62249057D01*
X117792190Y-62249057D02*
X117830286Y-62096676D01*
X117830286Y-62096676D02*
X117868381Y-62020485D01*
X117868381Y-62020485D02*
X117906476Y-61982390D01*
X117906476Y-61982390D02*
X117982667Y-61944295D01*
X118973143Y-61944295D02*
X118592191Y-61944295D01*
X118592191Y-61944295D02*
X118554095Y-62325247D01*
X118554095Y-62325247D02*
X118592191Y-62287152D01*
X118592191Y-62287152D02*
X118668381Y-62249057D01*
X118668381Y-62249057D02*
X118858857Y-62249057D01*
X118858857Y-62249057D02*
X118935048Y-62287152D01*
X118935048Y-62287152D02*
X118973143Y-62325247D01*
X118973143Y-62325247D02*
X119011238Y-62401438D01*
X119011238Y-62401438D02*
X119011238Y-62591914D01*
X119011238Y-62591914D02*
X118973143Y-62668104D01*
X118973143Y-62668104D02*
X118935048Y-62706200D01*
X118935048Y-62706200D02*
X118858857Y-62744295D01*
X118858857Y-62744295D02*
X118668381Y-62744295D01*
X118668381Y-62744295D02*
X118592191Y-62706200D01*
X118592191Y-62706200D02*
X118554095Y-62668104D01*
X119506477Y-61944295D02*
X119582667Y-61944295D01*
X119582667Y-61944295D02*
X119658858Y-61982390D01*
X119658858Y-61982390D02*
X119696953Y-62020485D01*
X119696953Y-62020485D02*
X119735048Y-62096676D01*
X119735048Y-62096676D02*
X119773143Y-62249057D01*
X119773143Y-62249057D02*
X119773143Y-62439533D01*
X119773143Y-62439533D02*
X119735048Y-62591914D01*
X119735048Y-62591914D02*
X119696953Y-62668104D01*
X119696953Y-62668104D02*
X119658858Y-62706200D01*
X119658858Y-62706200D02*
X119582667Y-62744295D01*
X119582667Y-62744295D02*
X119506477Y-62744295D01*
X119506477Y-62744295D02*
X119430286Y-62706200D01*
X119430286Y-62706200D02*
X119392191Y-62668104D01*
X119392191Y-62668104D02*
X119354096Y-62591914D01*
X119354096Y-62591914D02*
X119316000Y-62439533D01*
X119316000Y-62439533D02*
X119316000Y-62249057D01*
X119316000Y-62249057D02*
X119354096Y-62096676D01*
X119354096Y-62096676D02*
X119392191Y-62020485D01*
X119392191Y-62020485D02*
X119430286Y-61982390D01*
X119430286Y-61982390D02*
X119506477Y-61944295D01*
X127566057Y-75429904D02*
X127518438Y-75382285D01*
X127518438Y-75382285D02*
X127470819Y-75287047D01*
X127470819Y-75287047D02*
X127470819Y-75048952D01*
X127470819Y-75048952D02*
X127518438Y-74953714D01*
X127518438Y-74953714D02*
X127566057Y-74906095D01*
X127566057Y-74906095D02*
X127661295Y-74858476D01*
X127661295Y-74858476D02*
X127756533Y-74858476D01*
X127756533Y-74858476D02*
X127899390Y-74906095D01*
X127899390Y-74906095D02*
X128470819Y-75477523D01*
X128470819Y-75477523D02*
X128470819Y-74858476D01*
X127470819Y-74239428D02*
X127470819Y-74144190D01*
X127470819Y-74144190D02*
X127518438Y-74048952D01*
X127518438Y-74048952D02*
X127566057Y-74001333D01*
X127566057Y-74001333D02*
X127661295Y-73953714D01*
X127661295Y-73953714D02*
X127851771Y-73906095D01*
X127851771Y-73906095D02*
X128089866Y-73906095D01*
X128089866Y-73906095D02*
X128280342Y-73953714D01*
X128280342Y-73953714D02*
X128375580Y-74001333D01*
X128375580Y-74001333D02*
X128423200Y-74048952D01*
X128423200Y-74048952D02*
X128470819Y-74144190D01*
X128470819Y-74144190D02*
X128470819Y-74239428D01*
X128470819Y-74239428D02*
X128423200Y-74334666D01*
X128423200Y-74334666D02*
X128375580Y-74382285D01*
X128375580Y-74382285D02*
X128280342Y-74429904D01*
X128280342Y-74429904D02*
X128089866Y-74477523D01*
X128089866Y-74477523D02*
X127851771Y-74477523D01*
X127851771Y-74477523D02*
X127661295Y-74429904D01*
X127661295Y-74429904D02*
X127566057Y-74382285D01*
X127566057Y-74382285D02*
X127518438Y-74334666D01*
X127518438Y-74334666D02*
X127470819Y-74239428D01*
X128470819Y-72906095D02*
X127994628Y-73239428D01*
X128470819Y-73477523D02*
X127470819Y-73477523D01*
X127470819Y-73477523D02*
X127470819Y-73096571D01*
X127470819Y-73096571D02*
X127518438Y-73001333D01*
X127518438Y-73001333D02*
X127566057Y-72953714D01*
X127566057Y-72953714D02*
X127661295Y-72906095D01*
X127661295Y-72906095D02*
X127804152Y-72906095D01*
X127804152Y-72906095D02*
X127899390Y-72953714D01*
X127899390Y-72953714D02*
X127947009Y-73001333D01*
X127947009Y-73001333D02*
X127994628Y-73096571D01*
X127994628Y-73096571D02*
X127994628Y-73477523D01*
X125026057Y-75429904D02*
X124978438Y-75382285D01*
X124978438Y-75382285D02*
X124930819Y-75287047D01*
X124930819Y-75287047D02*
X124930819Y-75048952D01*
X124930819Y-75048952D02*
X124978438Y-74953714D01*
X124978438Y-74953714D02*
X125026057Y-74906095D01*
X125026057Y-74906095D02*
X125121295Y-74858476D01*
X125121295Y-74858476D02*
X125216533Y-74858476D01*
X125216533Y-74858476D02*
X125359390Y-74906095D01*
X125359390Y-74906095D02*
X125930819Y-75477523D01*
X125930819Y-75477523D02*
X125930819Y-74858476D01*
X124930819Y-74239428D02*
X124930819Y-74144190D01*
X124930819Y-74144190D02*
X124978438Y-74048952D01*
X124978438Y-74048952D02*
X125026057Y-74001333D01*
X125026057Y-74001333D02*
X125121295Y-73953714D01*
X125121295Y-73953714D02*
X125311771Y-73906095D01*
X125311771Y-73906095D02*
X125549866Y-73906095D01*
X125549866Y-73906095D02*
X125740342Y-73953714D01*
X125740342Y-73953714D02*
X125835580Y-74001333D01*
X125835580Y-74001333D02*
X125883200Y-74048952D01*
X125883200Y-74048952D02*
X125930819Y-74144190D01*
X125930819Y-74144190D02*
X125930819Y-74239428D01*
X125930819Y-74239428D02*
X125883200Y-74334666D01*
X125883200Y-74334666D02*
X125835580Y-74382285D01*
X125835580Y-74382285D02*
X125740342Y-74429904D01*
X125740342Y-74429904D02*
X125549866Y-74477523D01*
X125549866Y-74477523D02*
X125311771Y-74477523D01*
X125311771Y-74477523D02*
X125121295Y-74429904D01*
X125121295Y-74429904D02*
X125026057Y-74382285D01*
X125026057Y-74382285D02*
X124978438Y-74334666D01*
X124978438Y-74334666D02*
X124930819Y-74239428D01*
X125930819Y-72906095D02*
X125454628Y-73239428D01*
X125930819Y-73477523D02*
X124930819Y-73477523D01*
X124930819Y-73477523D02*
X124930819Y-73096571D01*
X124930819Y-73096571D02*
X124978438Y-73001333D01*
X124978438Y-73001333D02*
X125026057Y-72953714D01*
X125026057Y-72953714D02*
X125121295Y-72906095D01*
X125121295Y-72906095D02*
X125264152Y-72906095D01*
X125264152Y-72906095D02*
X125359390Y-72953714D01*
X125359390Y-72953714D02*
X125407009Y-73001333D01*
X125407009Y-73001333D02*
X125454628Y-73096571D01*
X125454628Y-73096571D02*
X125454628Y-73477523D01*
D11*
X114171524Y-71483855D02*
X114171524Y-70683855D01*
X114171524Y-70683855D02*
X114362000Y-70683855D01*
X114362000Y-70683855D02*
X114476286Y-70721950D01*
X114476286Y-70721950D02*
X114552476Y-70798140D01*
X114552476Y-70798140D02*
X114590571Y-70874331D01*
X114590571Y-70874331D02*
X114628667Y-71026712D01*
X114628667Y-71026712D02*
X114628667Y-71140998D01*
X114628667Y-71140998D02*
X114590571Y-71293379D01*
X114590571Y-71293379D02*
X114552476Y-71369569D01*
X114552476Y-71369569D02*
X114476286Y-71445760D01*
X114476286Y-71445760D02*
X114362000Y-71483855D01*
X114362000Y-71483855D02*
X114171524Y-71483855D01*
X115390571Y-71483855D02*
X114933428Y-71483855D01*
X115162000Y-71483855D02*
X115162000Y-70683855D01*
X115162000Y-70683855D02*
X115085809Y-70798140D01*
X115085809Y-70798140D02*
X115009619Y-70874331D01*
X115009619Y-70874331D02*
X114933428Y-70912426D01*
D10*
X105902286Y-63319866D02*
X106664191Y-63319866D01*
X106283238Y-63700819D02*
X106283238Y-62938914D01*
X107616571Y-62700819D02*
X107140381Y-62700819D01*
X107140381Y-62700819D02*
X107092762Y-63177009D01*
X107092762Y-63177009D02*
X107140381Y-63129390D01*
X107140381Y-63129390D02*
X107235619Y-63081771D01*
X107235619Y-63081771D02*
X107473714Y-63081771D01*
X107473714Y-63081771D02*
X107568952Y-63129390D01*
X107568952Y-63129390D02*
X107616571Y-63177009D01*
X107616571Y-63177009D02*
X107664190Y-63272247D01*
X107664190Y-63272247D02*
X107664190Y-63510342D01*
X107664190Y-63510342D02*
X107616571Y-63605580D01*
X107616571Y-63605580D02*
X107568952Y-63653200D01*
X107568952Y-63653200D02*
X107473714Y-63700819D01*
X107473714Y-63700819D02*
X107235619Y-63700819D01*
X107235619Y-63700819D02*
X107140381Y-63653200D01*
X107140381Y-63653200D02*
X107092762Y-63605580D01*
X107949905Y-62700819D02*
X108283238Y-63700819D01*
X108283238Y-63700819D02*
X108616571Y-62700819D01*
X132498571Y-77878557D02*
X132498571Y-76978557D01*
X132498571Y-76978557D02*
X132841428Y-76978557D01*
X132841428Y-76978557D02*
X132927143Y-77021414D01*
X132927143Y-77021414D02*
X132970000Y-77064271D01*
X132970000Y-77064271D02*
X133012857Y-77149985D01*
X133012857Y-77149985D02*
X133012857Y-77278557D01*
X133012857Y-77278557D02*
X132970000Y-77364271D01*
X132970000Y-77364271D02*
X132927143Y-77407128D01*
X132927143Y-77407128D02*
X132841428Y-77449985D01*
X132841428Y-77449985D02*
X132498571Y-77449985D01*
X133398571Y-77878557D02*
X133398571Y-76978557D01*
X133398571Y-77321414D02*
X133484286Y-77278557D01*
X133484286Y-77278557D02*
X133655714Y-77278557D01*
X133655714Y-77278557D02*
X133741428Y-77321414D01*
X133741428Y-77321414D02*
X133784286Y-77364271D01*
X133784286Y-77364271D02*
X133827143Y-77449985D01*
X133827143Y-77449985D02*
X133827143Y-77707128D01*
X133827143Y-77707128D02*
X133784286Y-77792842D01*
X133784286Y-77792842D02*
X133741428Y-77835700D01*
X133741428Y-77835700D02*
X133655714Y-77878557D01*
X133655714Y-77878557D02*
X133484286Y-77878557D01*
X133484286Y-77878557D02*
X133398571Y-77835700D01*
X135070000Y-76978557D02*
X135241428Y-76978557D01*
X135241428Y-76978557D02*
X135327143Y-77021414D01*
X135327143Y-77021414D02*
X135412857Y-77107128D01*
X135412857Y-77107128D02*
X135455714Y-77278557D01*
X135455714Y-77278557D02*
X135455714Y-77578557D01*
X135455714Y-77578557D02*
X135412857Y-77749985D01*
X135412857Y-77749985D02*
X135327143Y-77835700D01*
X135327143Y-77835700D02*
X135241428Y-77878557D01*
X135241428Y-77878557D02*
X135070000Y-77878557D01*
X135070000Y-77878557D02*
X134984286Y-77835700D01*
X134984286Y-77835700D02*
X134898571Y-77749985D01*
X134898571Y-77749985D02*
X134855714Y-77578557D01*
X134855714Y-77578557D02*
X134855714Y-77278557D01*
X134855714Y-77278557D02*
X134898571Y-77107128D01*
X134898571Y-77107128D02*
X134984286Y-77021414D01*
X134984286Y-77021414D02*
X135070000Y-76978557D01*
X136227143Y-77278557D02*
X136227143Y-77878557D01*
X135841428Y-77278557D02*
X135841428Y-77749985D01*
X135841428Y-77749985D02*
X135884285Y-77835700D01*
X135884285Y-77835700D02*
X135970000Y-77878557D01*
X135970000Y-77878557D02*
X136098571Y-77878557D01*
X136098571Y-77878557D02*
X136184285Y-77835700D01*
X136184285Y-77835700D02*
X136227143Y-77792842D01*
X136527143Y-77278557D02*
X136870000Y-77278557D01*
X136655714Y-76978557D02*
X136655714Y-77749985D01*
X136655714Y-77749985D02*
X136698571Y-77835700D01*
X136698571Y-77835700D02*
X136784286Y-77878557D01*
X136784286Y-77878557D02*
X136870000Y-77878557D01*
X134283895Y-69504838D02*
X134188657Y-69457219D01*
X134188657Y-69457219D02*
X134045800Y-69457219D01*
X134045800Y-69457219D02*
X133902943Y-69504838D01*
X133902943Y-69504838D02*
X133807705Y-69600076D01*
X133807705Y-69600076D02*
X133760086Y-69695314D01*
X133760086Y-69695314D02*
X133712467Y-69885790D01*
X133712467Y-69885790D02*
X133712467Y-70028647D01*
X133712467Y-70028647D02*
X133760086Y-70219123D01*
X133760086Y-70219123D02*
X133807705Y-70314361D01*
X133807705Y-70314361D02*
X133902943Y-70409600D01*
X133902943Y-70409600D02*
X134045800Y-70457219D01*
X134045800Y-70457219D02*
X134141038Y-70457219D01*
X134141038Y-70457219D02*
X134283895Y-70409600D01*
X134283895Y-70409600D02*
X134331514Y-70361980D01*
X134331514Y-70361980D02*
X134331514Y-70028647D01*
X134331514Y-70028647D02*
X134141038Y-70028647D01*
X134760086Y-70457219D02*
X134760086Y-69457219D01*
X134760086Y-69457219D02*
X135331514Y-70457219D01*
X135331514Y-70457219D02*
X135331514Y-69457219D01*
X135807705Y-70457219D02*
X135807705Y-69457219D01*
X135807705Y-69457219D02*
X136045800Y-69457219D01*
X136045800Y-69457219D02*
X136188657Y-69504838D01*
X136188657Y-69504838D02*
X136283895Y-69600076D01*
X136283895Y-69600076D02*
X136331514Y-69695314D01*
X136331514Y-69695314D02*
X136379133Y-69885790D01*
X136379133Y-69885790D02*
X136379133Y-70028647D01*
X136379133Y-70028647D02*
X136331514Y-70219123D01*
X136331514Y-70219123D02*
X136283895Y-70314361D01*
X136283895Y-70314361D02*
X136188657Y-70409600D01*
X136188657Y-70409600D02*
X136045800Y-70457219D01*
X136045800Y-70457219D02*
X135807705Y-70457219D01*
X120288485Y-80955762D02*
X120250390Y-80917666D01*
X120250390Y-80917666D02*
X120212295Y-80841476D01*
X120212295Y-80841476D02*
X120212295Y-80651000D01*
X120212295Y-80651000D02*
X120250390Y-80574809D01*
X120250390Y-80574809D02*
X120288485Y-80536714D01*
X120288485Y-80536714D02*
X120364676Y-80498619D01*
X120364676Y-80498619D02*
X120440866Y-80498619D01*
X120440866Y-80498619D02*
X120555152Y-80536714D01*
X120555152Y-80536714D02*
X121012295Y-80993857D01*
X121012295Y-80993857D02*
X121012295Y-80498619D01*
X120288485Y-80193857D02*
X120250390Y-80155761D01*
X120250390Y-80155761D02*
X120212295Y-80079571D01*
X120212295Y-80079571D02*
X120212295Y-79889095D01*
X120212295Y-79889095D02*
X120250390Y-79812904D01*
X120250390Y-79812904D02*
X120288485Y-79774809D01*
X120288485Y-79774809D02*
X120364676Y-79736714D01*
X120364676Y-79736714D02*
X120440866Y-79736714D01*
X120440866Y-79736714D02*
X120555152Y-79774809D01*
X120555152Y-79774809D02*
X121012295Y-80231952D01*
X121012295Y-80231952D02*
X121012295Y-79736714D01*
X120212295Y-79241475D02*
X120212295Y-79165285D01*
X120212295Y-79165285D02*
X120250390Y-79089094D01*
X120250390Y-79089094D02*
X120288485Y-79050999D01*
X120288485Y-79050999D02*
X120364676Y-79012904D01*
X120364676Y-79012904D02*
X120517057Y-78974809D01*
X120517057Y-78974809D02*
X120707533Y-78974809D01*
X120707533Y-78974809D02*
X120859914Y-79012904D01*
X120859914Y-79012904D02*
X120936104Y-79050999D01*
X120936104Y-79050999D02*
X120974200Y-79089094D01*
X120974200Y-79089094D02*
X121012295Y-79165285D01*
X121012295Y-79165285D02*
X121012295Y-79241475D01*
X121012295Y-79241475D02*
X120974200Y-79317666D01*
X120974200Y-79317666D02*
X120936104Y-79355761D01*
X120936104Y-79355761D02*
X120859914Y-79393856D01*
X120859914Y-79393856D02*
X120707533Y-79431952D01*
X120707533Y-79431952D02*
X120517057Y-79431952D01*
X120517057Y-79431952D02*
X120364676Y-79393856D01*
X120364676Y-79393856D02*
X120288485Y-79355761D01*
X120288485Y-79355761D02*
X120250390Y-79317666D01*
X120250390Y-79317666D02*
X120212295Y-79241475D01*
X120478961Y-78289094D02*
X121012295Y-78289094D01*
X120478961Y-78631951D02*
X120898009Y-78631951D01*
X120898009Y-78631951D02*
X120974200Y-78593856D01*
X120974200Y-78593856D02*
X121012295Y-78517666D01*
X121012295Y-78517666D02*
X121012295Y-78403380D01*
X121012295Y-78403380D02*
X120974200Y-78327189D01*
X120974200Y-78327189D02*
X120936104Y-78289094D01*
X120593247Y-77641475D02*
X120593247Y-77908141D01*
X121012295Y-77908141D02*
X120212295Y-77908141D01*
X120212295Y-77908141D02*
X120212295Y-77527189D01*
X120212295Y-76689094D02*
X120212295Y-76193856D01*
X120212295Y-76193856D02*
X120517057Y-76460522D01*
X120517057Y-76460522D02*
X120517057Y-76346237D01*
X120517057Y-76346237D02*
X120555152Y-76270046D01*
X120555152Y-76270046D02*
X120593247Y-76231951D01*
X120593247Y-76231951D02*
X120669438Y-76193856D01*
X120669438Y-76193856D02*
X120859914Y-76193856D01*
X120859914Y-76193856D02*
X120936104Y-76231951D01*
X120936104Y-76231951D02*
X120974200Y-76270046D01*
X120974200Y-76270046D02*
X121012295Y-76346237D01*
X121012295Y-76346237D02*
X121012295Y-76574808D01*
X121012295Y-76574808D02*
X120974200Y-76650999D01*
X120974200Y-76650999D02*
X120936104Y-76689094D01*
X120212295Y-75470046D02*
X120212295Y-75850998D01*
X120212295Y-75850998D02*
X120593247Y-75889094D01*
X120593247Y-75889094D02*
X120555152Y-75850998D01*
X120555152Y-75850998D02*
X120517057Y-75774808D01*
X120517057Y-75774808D02*
X120517057Y-75584332D01*
X120517057Y-75584332D02*
X120555152Y-75508141D01*
X120555152Y-75508141D02*
X120593247Y-75470046D01*
X120593247Y-75470046D02*
X120669438Y-75431951D01*
X120669438Y-75431951D02*
X120859914Y-75431951D01*
X120859914Y-75431951D02*
X120936104Y-75470046D01*
X120936104Y-75470046D02*
X120974200Y-75508141D01*
X120974200Y-75508141D02*
X121012295Y-75584332D01*
X121012295Y-75584332D02*
X121012295Y-75774808D01*
X121012295Y-75774808D02*
X120974200Y-75850998D01*
X120974200Y-75850998D02*
X120936104Y-75889094D01*
X120212295Y-75203379D02*
X121012295Y-74936712D01*
X121012295Y-74936712D02*
X120212295Y-74670046D01*
X132754142Y-63654557D02*
X132754142Y-62754557D01*
X132754142Y-62754557D02*
X133096999Y-62754557D01*
X133096999Y-62754557D02*
X133182714Y-62797414D01*
X133182714Y-62797414D02*
X133225571Y-62840271D01*
X133225571Y-62840271D02*
X133268428Y-62925985D01*
X133268428Y-62925985D02*
X133268428Y-63054557D01*
X133268428Y-63054557D02*
X133225571Y-63140271D01*
X133225571Y-63140271D02*
X133182714Y-63183128D01*
X133182714Y-63183128D02*
X133096999Y-63225985D01*
X133096999Y-63225985D02*
X132754142Y-63225985D01*
X133654142Y-63654557D02*
X133654142Y-63054557D01*
X133654142Y-63225985D02*
X133696999Y-63140271D01*
X133696999Y-63140271D02*
X133739857Y-63097414D01*
X133739857Y-63097414D02*
X133825571Y-63054557D01*
X133825571Y-63054557D02*
X133911285Y-63054557D01*
X135068428Y-62754557D02*
X135239856Y-62754557D01*
X135239856Y-62754557D02*
X135325571Y-62797414D01*
X135325571Y-62797414D02*
X135411285Y-62883128D01*
X135411285Y-62883128D02*
X135454142Y-63054557D01*
X135454142Y-63054557D02*
X135454142Y-63354557D01*
X135454142Y-63354557D02*
X135411285Y-63525985D01*
X135411285Y-63525985D02*
X135325571Y-63611700D01*
X135325571Y-63611700D02*
X135239856Y-63654557D01*
X135239856Y-63654557D02*
X135068428Y-63654557D01*
X135068428Y-63654557D02*
X134982714Y-63611700D01*
X134982714Y-63611700D02*
X134896999Y-63525985D01*
X134896999Y-63525985D02*
X134854142Y-63354557D01*
X134854142Y-63354557D02*
X134854142Y-63054557D01*
X134854142Y-63054557D02*
X134896999Y-62883128D01*
X134896999Y-62883128D02*
X134982714Y-62797414D01*
X134982714Y-62797414D02*
X135068428Y-62754557D01*
X136225571Y-63054557D02*
X136225571Y-63654557D01*
X135839856Y-63054557D02*
X135839856Y-63525985D01*
X135839856Y-63525985D02*
X135882713Y-63611700D01*
X135882713Y-63611700D02*
X135968428Y-63654557D01*
X135968428Y-63654557D02*
X136096999Y-63654557D01*
X136096999Y-63654557D02*
X136182713Y-63611700D01*
X136182713Y-63611700D02*
X136225571Y-63568842D01*
X136525571Y-63054557D02*
X136868428Y-63054557D01*
X136654142Y-62754557D02*
X136654142Y-63525985D01*
X136654142Y-63525985D02*
X136696999Y-63611700D01*
X136696999Y-63611700D02*
X136782714Y-63654557D01*
X136782714Y-63654557D02*
X136868428Y-63654557D01*
X122486057Y-75429904D02*
X122438438Y-75382285D01*
X122438438Y-75382285D02*
X122390819Y-75287047D01*
X122390819Y-75287047D02*
X122390819Y-75048952D01*
X122390819Y-75048952D02*
X122438438Y-74953714D01*
X122438438Y-74953714D02*
X122486057Y-74906095D01*
X122486057Y-74906095D02*
X122581295Y-74858476D01*
X122581295Y-74858476D02*
X122676533Y-74858476D01*
X122676533Y-74858476D02*
X122819390Y-74906095D01*
X122819390Y-74906095D02*
X123390819Y-75477523D01*
X123390819Y-75477523D02*
X123390819Y-74858476D01*
X122390819Y-74239428D02*
X122390819Y-74144190D01*
X122390819Y-74144190D02*
X122438438Y-74048952D01*
X122438438Y-74048952D02*
X122486057Y-74001333D01*
X122486057Y-74001333D02*
X122581295Y-73953714D01*
X122581295Y-73953714D02*
X122771771Y-73906095D01*
X122771771Y-73906095D02*
X123009866Y-73906095D01*
X123009866Y-73906095D02*
X123200342Y-73953714D01*
X123200342Y-73953714D02*
X123295580Y-74001333D01*
X123295580Y-74001333D02*
X123343200Y-74048952D01*
X123343200Y-74048952D02*
X123390819Y-74144190D01*
X123390819Y-74144190D02*
X123390819Y-74239428D01*
X123390819Y-74239428D02*
X123343200Y-74334666D01*
X123343200Y-74334666D02*
X123295580Y-74382285D01*
X123295580Y-74382285D02*
X123200342Y-74429904D01*
X123200342Y-74429904D02*
X123009866Y-74477523D01*
X123009866Y-74477523D02*
X122771771Y-74477523D01*
X122771771Y-74477523D02*
X122581295Y-74429904D01*
X122581295Y-74429904D02*
X122486057Y-74382285D01*
X122486057Y-74382285D02*
X122438438Y-74334666D01*
X122438438Y-74334666D02*
X122390819Y-74239428D01*
X123390819Y-72906095D02*
X122914628Y-73239428D01*
X123390819Y-73477523D02*
X122390819Y-73477523D01*
X122390819Y-73477523D02*
X122390819Y-73096571D01*
X122390819Y-73096571D02*
X122438438Y-73001333D01*
X122438438Y-73001333D02*
X122486057Y-72953714D01*
X122486057Y-72953714D02*
X122581295Y-72906095D01*
X122581295Y-72906095D02*
X122724152Y-72906095D01*
X122724152Y-72906095D02*
X122819390Y-72953714D01*
X122819390Y-72953714D02*
X122867009Y-73001333D01*
X122867009Y-73001333D02*
X122914628Y-73096571D01*
X122914628Y-73096571D02*
X122914628Y-73477523D01*
X105545143Y-70558819D02*
X105545143Y-69558819D01*
X105545143Y-69558819D02*
X105926095Y-69558819D01*
X105926095Y-69558819D02*
X106021333Y-69606438D01*
X106021333Y-69606438D02*
X106068952Y-69654057D01*
X106068952Y-69654057D02*
X106116571Y-69749295D01*
X106116571Y-69749295D02*
X106116571Y-69892152D01*
X106116571Y-69892152D02*
X106068952Y-69987390D01*
X106068952Y-69987390D02*
X106021333Y-70035009D01*
X106021333Y-70035009D02*
X105926095Y-70082628D01*
X105926095Y-70082628D02*
X105545143Y-70082628D01*
X106545143Y-70558819D02*
X106545143Y-69892152D01*
X106545143Y-70082628D02*
X106592762Y-69987390D01*
X106592762Y-69987390D02*
X106640381Y-69939771D01*
X106640381Y-69939771D02*
X106735619Y-69892152D01*
X106735619Y-69892152D02*
X106830857Y-69892152D01*
X107926096Y-70558819D02*
X107926096Y-69558819D01*
X108402286Y-69892152D02*
X108402286Y-70558819D01*
X108402286Y-69987390D02*
X108449905Y-69939771D01*
X108449905Y-69939771D02*
X108545143Y-69892152D01*
X108545143Y-69892152D02*
X108688000Y-69892152D01*
X108688000Y-69892152D02*
X108783238Y-69939771D01*
X108783238Y-69939771D02*
X108830857Y-70035009D01*
X108830857Y-70035009D02*
X108830857Y-70558819D01*
D11*
%TO.C,RV1*%
X129092000Y-82064000D02*
X129092000Y-81364000D01*
X128592000Y-80464000D02*
X128592000Y-80064000D01*
X128392000Y-82064000D02*
X129092000Y-82064000D01*
X127492000Y-81864000D02*
X124592000Y-81864000D01*
X127492000Y-78664000D02*
X124592000Y-78664000D01*
X124592000Y-81864000D02*
X124592000Y-81264000D01*
X124592000Y-78664000D02*
X124592000Y-79264000D01*
%TO.C,C1*%
X120147651Y-63725000D02*
X120947651Y-63725000D01*
X120547651Y-63325000D02*
X120547651Y-64125000D01*
X124557349Y-61960000D02*
X124557349Y-70120000D01*
X124597349Y-61960000D02*
X124597349Y-70120000D01*
X124637349Y-61960000D02*
X124637349Y-70120000D01*
X124677349Y-61961000D02*
X124677349Y-70119000D01*
X124717349Y-61963000D02*
X124717349Y-70117000D01*
X124757349Y-61964000D02*
X124757349Y-70116000D01*
X124797349Y-61966000D02*
X124797349Y-70114000D01*
X124837349Y-61969000D02*
X124837349Y-70111000D01*
X124877349Y-61972000D02*
X124877349Y-70108000D01*
X124917349Y-61975000D02*
X124917349Y-70105000D01*
X124957349Y-61979000D02*
X124957349Y-70101000D01*
X124997349Y-61983000D02*
X124997349Y-70097000D01*
X125037349Y-61988000D02*
X125037349Y-70092000D01*
X125077349Y-61992000D02*
X125077349Y-70088000D01*
X125117349Y-61998000D02*
X125117349Y-70082000D01*
X125157349Y-62003000D02*
X125157349Y-70077000D01*
X125197349Y-62010000D02*
X125197349Y-70070000D01*
X125237349Y-62016000D02*
X125237349Y-70064000D01*
X125278349Y-62023000D02*
X125278349Y-65000000D01*
X125278349Y-67080000D02*
X125278349Y-70057000D01*
X125318349Y-62030000D02*
X125318349Y-65000000D01*
X125318349Y-67080000D02*
X125318349Y-70050000D01*
X125358349Y-62038000D02*
X125358349Y-65000000D01*
X125358349Y-67080000D02*
X125358349Y-70042000D01*
X125398349Y-62046000D02*
X125398349Y-65000000D01*
X125398349Y-67080000D02*
X125398349Y-70034000D01*
X125438349Y-62055000D02*
X125438349Y-65000000D01*
X125438349Y-67080000D02*
X125438349Y-70025000D01*
X125478349Y-62064000D02*
X125478349Y-65000000D01*
X125478349Y-67080000D02*
X125478349Y-70016000D01*
X125518349Y-62073000D02*
X125518349Y-65000000D01*
X125518349Y-67080000D02*
X125518349Y-70007000D01*
X125558349Y-62083000D02*
X125558349Y-65000000D01*
X125558349Y-67080000D02*
X125558349Y-69997000D01*
X125598349Y-62093000D02*
X125598349Y-65000000D01*
X125598349Y-67080000D02*
X125598349Y-69987000D01*
X125638349Y-62104000D02*
X125638349Y-65000000D01*
X125638349Y-67080000D02*
X125638349Y-69976000D01*
X125678349Y-62115000D02*
X125678349Y-65000000D01*
X125678349Y-67080000D02*
X125678349Y-69965000D01*
X125718349Y-62126000D02*
X125718349Y-65000000D01*
X125718349Y-67080000D02*
X125718349Y-69954000D01*
X125758349Y-62138000D02*
X125758349Y-65000000D01*
X125758349Y-67080000D02*
X125758349Y-69942000D01*
X125798349Y-62151000D02*
X125798349Y-65000000D01*
X125798349Y-67080000D02*
X125798349Y-69929000D01*
X125838349Y-62163000D02*
X125838349Y-65000000D01*
X125838349Y-67080000D02*
X125838349Y-69917000D01*
X125878349Y-62177000D02*
X125878349Y-65000000D01*
X125878349Y-67080000D02*
X125878349Y-69903000D01*
X125918349Y-62190000D02*
X125918349Y-65000000D01*
X125918349Y-67080000D02*
X125918349Y-69890000D01*
X125958349Y-62205000D02*
X125958349Y-65000000D01*
X125958349Y-67080000D02*
X125958349Y-69875000D01*
X125998349Y-62219000D02*
X125998349Y-65000000D01*
X125998349Y-67080000D02*
X125998349Y-69861000D01*
X126038349Y-62235000D02*
X126038349Y-65000000D01*
X126038349Y-67080000D02*
X126038349Y-69845000D01*
X126078349Y-62250000D02*
X126078349Y-65000000D01*
X126078349Y-67080000D02*
X126078349Y-69830000D01*
X126118349Y-62266000D02*
X126118349Y-65000000D01*
X126118349Y-67080000D02*
X126118349Y-69814000D01*
X126158349Y-62283000D02*
X126158349Y-65000000D01*
X126158349Y-67080000D02*
X126158349Y-69797000D01*
X126198349Y-62300000D02*
X126198349Y-65000000D01*
X126198349Y-67080000D02*
X126198349Y-69780000D01*
X126238349Y-62318000D02*
X126238349Y-65000000D01*
X126238349Y-67080000D02*
X126238349Y-69762000D01*
X126278349Y-62336000D02*
X126278349Y-65000000D01*
X126278349Y-67080000D02*
X126278349Y-69744000D01*
X126318349Y-62354000D02*
X126318349Y-65000000D01*
X126318349Y-67080000D02*
X126318349Y-69726000D01*
X126358349Y-62374000D02*
X126358349Y-65000000D01*
X126358349Y-67080000D02*
X126358349Y-69706000D01*
X126398349Y-62393000D02*
X126398349Y-65000000D01*
X126398349Y-67080000D02*
X126398349Y-69687000D01*
X126438349Y-62413000D02*
X126438349Y-65000000D01*
X126438349Y-67080000D02*
X126438349Y-69667000D01*
X126478349Y-62434000D02*
X126478349Y-65000000D01*
X126478349Y-67080000D02*
X126478349Y-69646000D01*
X126518349Y-62456000D02*
X126518349Y-65000000D01*
X126518349Y-67080000D02*
X126518349Y-69624000D01*
X126558349Y-62478000D02*
X126558349Y-65000000D01*
X126558349Y-67080000D02*
X126558349Y-69602000D01*
X126598349Y-62500000D02*
X126598349Y-65000000D01*
X126598349Y-67080000D02*
X126598349Y-69580000D01*
X126638349Y-62523000D02*
X126638349Y-65000000D01*
X126638349Y-67080000D02*
X126638349Y-69557000D01*
X126678349Y-62547000D02*
X126678349Y-65000000D01*
X126678349Y-67080000D02*
X126678349Y-69533000D01*
X126718349Y-62571000D02*
X126718349Y-65000000D01*
X126718349Y-67080000D02*
X126718349Y-69509000D01*
X126758349Y-62596000D02*
X126758349Y-65000000D01*
X126758349Y-67080000D02*
X126758349Y-69484000D01*
X126798349Y-62622000D02*
X126798349Y-65000000D01*
X126798349Y-67080000D02*
X126798349Y-69458000D01*
X126838349Y-62648000D02*
X126838349Y-65000000D01*
X126838349Y-67080000D02*
X126838349Y-69432000D01*
X126878349Y-62675000D02*
X126878349Y-65000000D01*
X126878349Y-67080000D02*
X126878349Y-69405000D01*
X126918349Y-62702000D02*
X126918349Y-65000000D01*
X126918349Y-67080000D02*
X126918349Y-69378000D01*
X126958349Y-62731000D02*
X126958349Y-65000000D01*
X126958349Y-67080000D02*
X126958349Y-69349000D01*
X126998349Y-62760000D02*
X126998349Y-65000000D01*
X126998349Y-67080000D02*
X126998349Y-69320000D01*
X127038349Y-62790000D02*
X127038349Y-65000000D01*
X127038349Y-67080000D02*
X127038349Y-69290000D01*
X127078349Y-62820000D02*
X127078349Y-65000000D01*
X127078349Y-67080000D02*
X127078349Y-69260000D01*
X127118349Y-62851000D02*
X127118349Y-65000000D01*
X127118349Y-67080000D02*
X127118349Y-69229000D01*
X127158349Y-62884000D02*
X127158349Y-65000000D01*
X127158349Y-67080000D02*
X127158349Y-69196000D01*
X127198349Y-62916000D02*
X127198349Y-65000000D01*
X127198349Y-67080000D02*
X127198349Y-69164000D01*
X127238349Y-62950000D02*
X127238349Y-65000000D01*
X127238349Y-67080000D02*
X127238349Y-69130000D01*
X127278349Y-62985000D02*
X127278349Y-65000000D01*
X127278349Y-67080000D02*
X127278349Y-69095000D01*
X127318349Y-63021000D02*
X127318349Y-65000000D01*
X127318349Y-67080000D02*
X127318349Y-69059000D01*
X127358349Y-63057000D02*
X127358349Y-69023000D01*
X127398349Y-63095000D02*
X127398349Y-68985000D01*
X127438349Y-63133000D02*
X127438349Y-68947000D01*
X127478349Y-63173000D02*
X127478349Y-68907000D01*
X127518349Y-63214000D02*
X127518349Y-68866000D01*
X127558349Y-63256000D02*
X127558349Y-68824000D01*
X127598349Y-63299000D02*
X127598349Y-68781000D01*
X127638349Y-63343000D02*
X127638349Y-68737000D01*
X127678349Y-63389000D02*
X127678349Y-68691000D01*
X127718349Y-63436000D02*
X127718349Y-68644000D01*
X127758349Y-63484000D02*
X127758349Y-68596000D01*
X127798349Y-63535000D02*
X127798349Y-68545000D01*
X127838349Y-63586000D02*
X127838349Y-68494000D01*
X127878349Y-63640000D02*
X127878349Y-68440000D01*
X127918349Y-63695000D02*
X127918349Y-68385000D01*
X127958349Y-63753000D02*
X127958349Y-68327000D01*
X127998349Y-63812000D02*
X127998349Y-68268000D01*
X128038349Y-63874000D02*
X128038349Y-68206000D01*
X128078349Y-63938000D02*
X128078349Y-68142000D01*
X128118349Y-64006000D02*
X128118349Y-68074000D01*
X128158349Y-64076000D02*
X128158349Y-68004000D01*
X128198349Y-64150000D02*
X128198349Y-67930000D01*
X128238349Y-64227000D02*
X128238349Y-67853000D01*
X128278349Y-64309000D02*
X128278349Y-67771000D01*
X128318349Y-64395000D02*
X128318349Y-67685000D01*
X128358349Y-64488000D02*
X128358349Y-67592000D01*
X128398349Y-64587000D02*
X128398349Y-67493000D01*
X128438349Y-64694000D02*
X128438349Y-67386000D01*
X128478349Y-64811000D02*
X128478349Y-67269000D01*
X128518349Y-64942000D02*
X128518349Y-67138000D01*
X128558349Y-65092000D02*
X128558349Y-66988000D01*
X128598349Y-65272000D02*
X128598349Y-66808000D01*
X128638349Y-65507000D02*
X128638349Y-66573000D01*
X128677349Y-66040000D02*
G75*
G03*
X128677349Y-66040000I-4120000J0D01*
G01*
%TO.C,R4*%
X131476000Y-72248000D02*
X131476000Y-76088000D01*
X129636000Y-72248000D02*
X129636000Y-76088000D01*
%TO.C,Q1*%
X117116000Y-63322000D02*
X113516000Y-63322000D01*
X115316000Y-67772000D02*
G75*
G03*
X117154478Y-63333522I0J2600000D01*
G01*
X113477522Y-63333522D02*
G75*
G03*
X115316000Y-67772000I1838478J-1838478D01*
G01*
%TO.C,R3*%
X128936000Y-72248000D02*
X128936000Y-76088000D01*
X127096000Y-72248000D02*
X127096000Y-76088000D01*
%TO.C,R2*%
X126396000Y-72248000D02*
X126396000Y-76088000D01*
X124556000Y-72248000D02*
X124556000Y-76088000D01*
%TO.C,D1*%
X117832000Y-71120000D02*
X117182000Y-71120000D01*
X117182000Y-72240000D02*
X117182000Y-70000000D01*
X117182000Y-70000000D02*
X112942000Y-70000000D01*
X116582000Y-72240000D02*
X116582000Y-70000000D01*
X116462000Y-72240000D02*
X116462000Y-70000000D01*
X116342000Y-72240000D02*
X116342000Y-70000000D01*
X112942000Y-72240000D02*
X117182000Y-72240000D01*
X112942000Y-70000000D02*
X112942000Y-72240000D01*
X112292000Y-71120000D02*
X112942000Y-71120000D01*
%TO.C,C2*%
X111188302Y-75536000D02*
X111988302Y-75536000D01*
X111588302Y-75136000D02*
X111588302Y-75936000D01*
X115598000Y-73771000D02*
X115598000Y-81931000D01*
X115638000Y-73771000D02*
X115638000Y-81931000D01*
X115678000Y-73771000D02*
X115678000Y-81931000D01*
X115718000Y-73772000D02*
X115718000Y-81930000D01*
X115758000Y-73774000D02*
X115758000Y-81928000D01*
X115798000Y-73775000D02*
X115798000Y-81927000D01*
X115838000Y-73777000D02*
X115838000Y-81925000D01*
X115878000Y-73780000D02*
X115878000Y-81922000D01*
X115918000Y-73783000D02*
X115918000Y-81919000D01*
X115958000Y-73786000D02*
X115958000Y-81916000D01*
X115998000Y-73790000D02*
X115998000Y-81912000D01*
X116038000Y-73794000D02*
X116038000Y-81908000D01*
X116078000Y-73799000D02*
X116078000Y-81903000D01*
X116118000Y-73803000D02*
X116118000Y-81899000D01*
X116158000Y-73809000D02*
X116158000Y-81893000D01*
X116198000Y-73814000D02*
X116198000Y-81888000D01*
X116238000Y-73821000D02*
X116238000Y-81881000D01*
X116278000Y-73827000D02*
X116278000Y-81875000D01*
X116319000Y-73834000D02*
X116319000Y-76811000D01*
X116319000Y-78891000D02*
X116319000Y-81868000D01*
X116359000Y-73841000D02*
X116359000Y-76811000D01*
X116359000Y-78891000D02*
X116359000Y-81861000D01*
X116399000Y-73849000D02*
X116399000Y-76811000D01*
X116399000Y-78891000D02*
X116399000Y-81853000D01*
X116439000Y-73857000D02*
X116439000Y-76811000D01*
X116439000Y-78891000D02*
X116439000Y-81845000D01*
X116479000Y-73866000D02*
X116479000Y-76811000D01*
X116479000Y-78891000D02*
X116479000Y-81836000D01*
X116519000Y-73875000D02*
X116519000Y-76811000D01*
X116519000Y-78891000D02*
X116519000Y-81827000D01*
X116559000Y-73884000D02*
X116559000Y-76811000D01*
X116559000Y-78891000D02*
X116559000Y-81818000D01*
X116599000Y-73894000D02*
X116599000Y-76811000D01*
X116599000Y-78891000D02*
X116599000Y-81808000D01*
X116639000Y-73904000D02*
X116639000Y-76811000D01*
X116639000Y-78891000D02*
X116639000Y-81798000D01*
X116679000Y-73915000D02*
X116679000Y-76811000D01*
X116679000Y-78891000D02*
X116679000Y-81787000D01*
X116719000Y-73926000D02*
X116719000Y-76811000D01*
X116719000Y-78891000D02*
X116719000Y-81776000D01*
X116759000Y-73937000D02*
X116759000Y-76811000D01*
X116759000Y-78891000D02*
X116759000Y-81765000D01*
X116799000Y-73949000D02*
X116799000Y-76811000D01*
X116799000Y-78891000D02*
X116799000Y-81753000D01*
X116839000Y-73962000D02*
X116839000Y-76811000D01*
X116839000Y-78891000D02*
X116839000Y-81740000D01*
X116879000Y-73974000D02*
X116879000Y-76811000D01*
X116879000Y-78891000D02*
X116879000Y-81728000D01*
X116919000Y-73988000D02*
X116919000Y-76811000D01*
X116919000Y-78891000D02*
X116919000Y-81714000D01*
X116959000Y-74001000D02*
X116959000Y-76811000D01*
X116959000Y-78891000D02*
X116959000Y-81701000D01*
X116999000Y-74016000D02*
X116999000Y-76811000D01*
X116999000Y-78891000D02*
X116999000Y-81686000D01*
X117039000Y-74030000D02*
X117039000Y-76811000D01*
X117039000Y-78891000D02*
X117039000Y-81672000D01*
X117079000Y-74046000D02*
X117079000Y-76811000D01*
X117079000Y-78891000D02*
X117079000Y-81656000D01*
X117119000Y-74061000D02*
X117119000Y-76811000D01*
X117119000Y-78891000D02*
X117119000Y-81641000D01*
X117159000Y-74077000D02*
X117159000Y-76811000D01*
X117159000Y-78891000D02*
X117159000Y-81625000D01*
X117199000Y-74094000D02*
X117199000Y-76811000D01*
X117199000Y-78891000D02*
X117199000Y-81608000D01*
X117239000Y-74111000D02*
X117239000Y-76811000D01*
X117239000Y-78891000D02*
X117239000Y-81591000D01*
X117279000Y-74129000D02*
X117279000Y-76811000D01*
X117279000Y-78891000D02*
X117279000Y-81573000D01*
X117319000Y-74147000D02*
X117319000Y-76811000D01*
X117319000Y-78891000D02*
X117319000Y-81555000D01*
X117359000Y-74165000D02*
X117359000Y-76811000D01*
X117359000Y-78891000D02*
X117359000Y-81537000D01*
X117399000Y-74185000D02*
X117399000Y-76811000D01*
X117399000Y-78891000D02*
X117399000Y-81517000D01*
X117439000Y-74204000D02*
X117439000Y-76811000D01*
X117439000Y-78891000D02*
X117439000Y-81498000D01*
X117479000Y-74224000D02*
X117479000Y-76811000D01*
X117479000Y-78891000D02*
X117479000Y-81478000D01*
X117519000Y-74245000D02*
X117519000Y-76811000D01*
X117519000Y-78891000D02*
X117519000Y-81457000D01*
X117559000Y-74267000D02*
X117559000Y-76811000D01*
X117559000Y-78891000D02*
X117559000Y-81435000D01*
X117599000Y-74289000D02*
X117599000Y-76811000D01*
X117599000Y-78891000D02*
X117599000Y-81413000D01*
X117639000Y-74311000D02*
X117639000Y-76811000D01*
X117639000Y-78891000D02*
X117639000Y-81391000D01*
X117679000Y-74334000D02*
X117679000Y-76811000D01*
X117679000Y-78891000D02*
X117679000Y-81368000D01*
X117719000Y-74358000D02*
X117719000Y-76811000D01*
X117719000Y-78891000D02*
X117719000Y-81344000D01*
X117759000Y-74382000D02*
X117759000Y-76811000D01*
X117759000Y-78891000D02*
X117759000Y-81320000D01*
X117799000Y-74407000D02*
X117799000Y-76811000D01*
X117799000Y-78891000D02*
X117799000Y-81295000D01*
X117839000Y-74433000D02*
X117839000Y-76811000D01*
X117839000Y-78891000D02*
X117839000Y-81269000D01*
X117879000Y-74459000D02*
X117879000Y-76811000D01*
X117879000Y-78891000D02*
X117879000Y-81243000D01*
X117919000Y-74486000D02*
X117919000Y-76811000D01*
X117919000Y-78891000D02*
X117919000Y-81216000D01*
X117959000Y-74513000D02*
X117959000Y-76811000D01*
X117959000Y-78891000D02*
X117959000Y-81189000D01*
X117999000Y-74542000D02*
X117999000Y-76811000D01*
X117999000Y-78891000D02*
X117999000Y-81160000D01*
X118039000Y-74571000D02*
X118039000Y-76811000D01*
X118039000Y-78891000D02*
X118039000Y-81131000D01*
X118079000Y-74601000D02*
X118079000Y-76811000D01*
X118079000Y-78891000D02*
X118079000Y-81101000D01*
X118119000Y-74631000D02*
X118119000Y-76811000D01*
X118119000Y-78891000D02*
X118119000Y-81071000D01*
X118159000Y-74662000D02*
X118159000Y-76811000D01*
X118159000Y-78891000D02*
X118159000Y-81040000D01*
X118199000Y-74695000D02*
X118199000Y-76811000D01*
X118199000Y-78891000D02*
X118199000Y-81007000D01*
X118239000Y-74727000D02*
X118239000Y-76811000D01*
X118239000Y-78891000D02*
X118239000Y-80975000D01*
X118279000Y-74761000D02*
X118279000Y-76811000D01*
X118279000Y-78891000D02*
X118279000Y-80941000D01*
X118319000Y-74796000D02*
X118319000Y-76811000D01*
X118319000Y-78891000D02*
X118319000Y-80906000D01*
X118359000Y-74832000D02*
X118359000Y-76811000D01*
X118359000Y-78891000D02*
X118359000Y-80870000D01*
X118399000Y-74868000D02*
X118399000Y-80834000D01*
X118439000Y-74906000D02*
X118439000Y-80796000D01*
X118479000Y-74944000D02*
X118479000Y-80758000D01*
X118519000Y-74984000D02*
X118519000Y-80718000D01*
X118559000Y-75025000D02*
X118559000Y-80677000D01*
X118599000Y-75067000D02*
X118599000Y-80635000D01*
X118639000Y-75110000D02*
X118639000Y-80592000D01*
X118679000Y-75154000D02*
X118679000Y-80548000D01*
X118719000Y-75200000D02*
X118719000Y-80502000D01*
X118759000Y-75247000D02*
X118759000Y-80455000D01*
X118799000Y-75295000D02*
X118799000Y-80407000D01*
X118839000Y-75346000D02*
X118839000Y-80356000D01*
X118879000Y-75397000D02*
X118879000Y-80305000D01*
X118919000Y-75451000D02*
X118919000Y-80251000D01*
X118959000Y-75506000D02*
X118959000Y-80196000D01*
X118999000Y-75564000D02*
X118999000Y-80138000D01*
X119039000Y-75623000D02*
X119039000Y-80079000D01*
X119079000Y-75685000D02*
X119079000Y-80017000D01*
X119119000Y-75749000D02*
X119119000Y-79953000D01*
X119159000Y-75817000D02*
X119159000Y-79885000D01*
X119199000Y-75887000D02*
X119199000Y-79815000D01*
X119239000Y-75961000D02*
X119239000Y-79741000D01*
X119279000Y-76038000D02*
X119279000Y-79664000D01*
X119319000Y-76120000D02*
X119319000Y-79582000D01*
X119359000Y-76206000D02*
X119359000Y-79496000D01*
X119399000Y-76299000D02*
X119399000Y-79403000D01*
X119439000Y-76398000D02*
X119439000Y-79304000D01*
X119479000Y-76505000D02*
X119479000Y-79197000D01*
X119519000Y-76622000D02*
X119519000Y-79080000D01*
X119559000Y-76753000D02*
X119559000Y-78949000D01*
X119599000Y-76903000D02*
X119599000Y-78799000D01*
X119639000Y-77083000D02*
X119639000Y-78619000D01*
X119679000Y-77318000D02*
X119679000Y-78384000D01*
X119718000Y-77851000D02*
G75*
G03*
X119718000Y-77851000I-4120000J0D01*
G01*
%TO.C,R1*%
X123856000Y-72248000D02*
X123856000Y-76088000D01*
X122016000Y-72248000D02*
X122016000Y-76088000D01*
%TD*%
M02*
