M48
; DRILL file {KiCad 7.0.9} date Sun Jan  7 22:21:06 2024
; FORMAT={-:-/ absolute / inch / decimal}
; #@! TF.CreationDate,2024-01-07T22:21:06-08:00
; #@! TF.GenerationSoftware,Kicad,Pcbnew,7.0.9
; #@! TF.FileFunction,Plated,1,2,PTH
FMAT,2
INCH
; #@! TA.AperFunction,Plated,PTH,ViaDrill
T1C0.0157
; #@! TA.AperFunction,Plated,PTH,ComponentDrill
T2C0.0315
%
G90
G05
T1
X4.41Y-2.66
X4.73Y-2.65
X4.8Y-2.2
X4.8Y-2.88
X5.26Y-2.37
X5.26Y-2.72
T2
X4.56Y-2.3
X4.56Y-2.78
X4.6242Y-2.44
X4.6242Y-2.54
X4.6242Y-2.64
X4.8242Y-2.44
X4.8242Y-2.54
X4.8242Y-2.64
X4.86Y-2.3
X4.86Y-2.78
X4.96Y-2.48
X4.96Y-2.6
X5.0416Y-2.28
X5.0416Y-2.8
X5.14Y-2.28
X5.14Y-2.8
X5.26Y-2.48
X5.26Y-2.6
T0
M30
