%TF.GenerationSoftware,KiCad,Pcbnew,7.0.9*%
%TF.CreationDate,2024-01-07T22:21:07-08:00*%
%TF.ProjectId,snesypbpr-enhanced,736e6573-7970-4627-9072-2d656e68616e,rev?*%
%TF.SameCoordinates,Original*%
%TF.FileFunction,Copper,L1,Top*%
%TF.FilePolarity,Positive*%
%FSLAX46Y46*%
G04 Gerber Fmt 4.6, Leading zero omitted, Abs format (unit mm)*
G04 Created by KiCad (PCBNEW 7.0.9) date 2024-01-07 22:21:07*
%MOMM*%
%LPD*%
G01*
G04 APERTURE LIST*
%TA.AperFunction,ComponentPad*%
%ADD10R,1.500000X1.500000*%
%TD*%
%TA.AperFunction,ComponentPad*%
%ADD11C,1.500000*%
%TD*%
%TA.AperFunction,SMDPad,CuDef*%
%ADD12R,4.000000X2.000000*%
%TD*%
%TA.AperFunction,ComponentPad*%
%ADD13R,1.600000X1.600000*%
%TD*%
%TA.AperFunction,ComponentPad*%
%ADD14C,1.600000*%
%TD*%
%TA.AperFunction,ComponentPad*%
%ADD15O,1.600000X1.600000*%
%TD*%
%TA.AperFunction,ViaPad*%
%ADD16C,0.800000*%
%TD*%
%TA.AperFunction,Conductor*%
%ADD17C,0.650000*%
%TD*%
G04 APERTURE END LIST*
D10*
%TO.P,Q1,1,E*%
%TO.N,Net-(Q1-E)*%
X122534000Y-67056000D03*
D11*
%TO.P,Q1,2,B*%
%TO.N,Net-(D1-K)*%
X122534000Y-64516000D03*
%TO.P,Q1,3,C*%
%TO.N,+5V*%
X122534000Y-61976000D03*
%TD*%
D12*
%TO.P,J1,1,Pin_1*%
%TO.N,Net-(D1-A)*%
X111760000Y-58420000D03*
%TD*%
D13*
%TO.P,C1,1*%
%TO.N,Net-(Q1-E)*%
X128056000Y-57912000D03*
D14*
%TO.P,C1,2*%
%TO.N,Net-(J5-Pin_1)*%
X130556000Y-57912000D03*
%TD*%
D12*
%TO.P,J3,1,Pin_1*%
%TO.N,+5V*%
X111760000Y-64516000D03*
%TD*%
%TO.P,J2,1,Pin_1*%
%TO.N,Net-(D2-A)*%
X111760000Y-70612000D03*
%TD*%
D13*
%TO.P,D1,1,K*%
%TO.N,Net-(D1-K)*%
X123444000Y-58420000D03*
D15*
%TO.P,D1,2,A*%
%TO.N,Net-(D1-A)*%
X115824000Y-58420000D03*
%TD*%
D13*
%TO.P,C2,1*%
%TO.N,Net-(Q2-E)*%
X128056000Y-71120000D03*
D14*
%TO.P,C2,2*%
%TO.N,Net-(J6-Pin_1)*%
X130556000Y-71120000D03*
%TD*%
D10*
%TO.P,Q2,1,E*%
%TO.N,Net-(Q2-E)*%
X117454000Y-67056000D03*
D11*
%TO.P,Q2,2,B*%
%TO.N,Net-(D2-K)*%
X117454000Y-64516000D03*
%TO.P,Q2,3,C*%
%TO.N,+5V*%
X117454000Y-61976000D03*
%TD*%
D13*
%TO.P,D2,1,K*%
%TO.N,Net-(D2-K)*%
X123444000Y-70612000D03*
D15*
%TO.P,D2,2,A*%
%TO.N,Net-(D2-A)*%
X115824000Y-70612000D03*
%TD*%
D14*
%TO.P,R1,1*%
%TO.N,Net-(Q1-E)*%
X125984000Y-62992000D03*
D15*
%TO.P,R1,2*%
%TO.N,GND*%
X133604000Y-62992000D03*
%TD*%
D12*
%TO.P,J4,1,Pin_1*%
%TO.N,GND*%
X137160000Y-64516000D03*
%TD*%
%TO.P,J5,1,Pin_1*%
%TO.N,Net-(J5-Pin_1)*%
X137160000Y-58420000D03*
%TD*%
D14*
%TO.P,R2,1*%
%TO.N,Net-(Q2-E)*%
X125984000Y-66040000D03*
D15*
%TO.P,R2,2*%
%TO.N,GND*%
X133604000Y-66040000D03*
%TD*%
D12*
%TO.P,J6,1,Pin_1*%
%TO.N,Net-(J6-Pin_1)*%
X137160000Y-70612000D03*
%TD*%
D16*
%TO.N,GND*%
X133604000Y-69088000D03*
X121920000Y-55880000D03*
X112014000Y-67564000D03*
X133604000Y-60198000D03*
X120142000Y-67310000D03*
X121920000Y-73152000D03*
%TD*%
D17*
%TO.N,Net-(Q1-E)*%
X122534000Y-67056000D02*
X124659001Y-64930999D01*
X124659001Y-62992000D02*
X125984000Y-62992000D01*
X127762000Y-57912000D02*
X128056000Y-57912000D01*
X124659001Y-64930999D02*
X124659001Y-62992000D01*
X124659001Y-61014999D02*
X127762000Y-57912000D01*
X124659001Y-62992000D02*
X124659001Y-61014999D01*
%TO.N,Net-(J5-Pin_1)*%
X130556000Y-57912000D02*
X136652000Y-57912000D01*
X136652000Y-57912000D02*
X137160000Y-58420000D01*
%TO.N,Net-(D1-K)*%
X123809000Y-63241000D02*
X122534000Y-64516000D01*
X123809000Y-58785000D02*
X123809000Y-63241000D01*
X123444000Y-58420000D02*
X123809000Y-58785000D01*
%TO.N,Net-(D1-A)*%
X111760000Y-58420000D02*
X115824000Y-58420000D01*
%TO.N,+5V*%
X114808000Y-61976000D02*
X117454000Y-61976000D01*
X112268000Y-64516000D02*
X114808000Y-61976000D01*
X111760000Y-64516000D02*
X112268000Y-64516000D01*
X117454000Y-61976000D02*
X122534000Y-61976000D01*
%TO.N,GND*%
X135636000Y-66040000D02*
X137160000Y-64516000D01*
X133604000Y-62992000D02*
X135636000Y-62992000D01*
X135636000Y-62992000D02*
X137160000Y-64516000D01*
X133604000Y-66040000D02*
X135636000Y-66040000D01*
%TO.N,Net-(J6-Pin_1)*%
X136652000Y-71120000D02*
X137160000Y-70612000D01*
X130556000Y-71120000D02*
X136652000Y-71120000D01*
%TO.N,Net-(Q2-E)*%
X117454000Y-67056000D02*
X119232000Y-68834000D01*
X125984000Y-67310000D02*
X125984000Y-66040000D01*
X128056000Y-69382000D02*
X128056000Y-71120000D01*
X119232000Y-68834000D02*
X124460000Y-68834000D01*
X124460000Y-68834000D02*
X125984000Y-67310000D01*
X125984000Y-67310000D02*
X128056000Y-69382000D01*
%TO.N,Net-(D2-K)*%
X115316000Y-64516000D02*
X117454000Y-64516000D01*
X117856000Y-70612000D02*
X115316000Y-68072000D01*
X123444000Y-70612000D02*
X117856000Y-70612000D01*
X115316000Y-68072000D02*
X115316000Y-64516000D01*
%TO.N,Net-(D2-A)*%
X111760000Y-70612000D02*
X115824000Y-70612000D01*
%TD*%
%TA.AperFunction,Conductor*%
%TO.N,GND*%
G36*
X126027332Y-68395191D02*
G01*
X126071680Y-68423692D01*
X127294181Y-69646193D01*
X127327666Y-69707516D01*
X127330500Y-69733874D01*
X127330500Y-69796802D01*
X127310815Y-69863841D01*
X127258011Y-69909596D01*
X127225898Y-69919275D01*
X127130699Y-69934352D01*
X127079613Y-69960382D01*
X127017658Y-69991950D01*
X127017657Y-69991951D01*
X127017652Y-69991954D01*
X126927954Y-70081652D01*
X126927951Y-70081657D01*
X126870352Y-70194698D01*
X126855500Y-70288475D01*
X126855500Y-71951517D01*
X126865134Y-72012343D01*
X126870354Y-72045304D01*
X126927950Y-72158342D01*
X126927952Y-72158344D01*
X126927954Y-72158347D01*
X127017652Y-72248045D01*
X127017654Y-72248046D01*
X127017658Y-72248050D01*
X127130694Y-72305645D01*
X127130698Y-72305647D01*
X127224475Y-72320499D01*
X127224481Y-72320500D01*
X128887518Y-72320499D01*
X128981304Y-72305646D01*
X129094342Y-72248050D01*
X129184050Y-72158342D01*
X129241646Y-72045304D01*
X129241646Y-72045302D01*
X129241647Y-72045301D01*
X129256499Y-71951524D01*
X129256500Y-71951519D01*
X129256499Y-71730749D01*
X129276183Y-71663712D01*
X129328987Y-71617957D01*
X129398145Y-71608013D01*
X129461701Y-71637038D01*
X129491499Y-71675479D01*
X129530938Y-71754683D01*
X129530943Y-71754691D01*
X129665020Y-71932238D01*
X129829437Y-72082123D01*
X129829439Y-72082125D01*
X130018595Y-72199245D01*
X130018596Y-72199245D01*
X130018599Y-72199247D01*
X130226060Y-72279618D01*
X130444757Y-72320500D01*
X130444759Y-72320500D01*
X130667241Y-72320500D01*
X130667243Y-72320500D01*
X130885940Y-72279618D01*
X131093401Y-72199247D01*
X131282562Y-72082124D01*
X131446981Y-71932236D01*
X131475272Y-71894773D01*
X131531381Y-71853137D01*
X131574226Y-71845500D01*
X134775746Y-71845500D01*
X134842785Y-71865185D01*
X134863422Y-71881814D01*
X134921658Y-71940050D01*
X135034694Y-71997645D01*
X135034698Y-71997647D01*
X135128475Y-72012499D01*
X135128481Y-72012500D01*
X138560000Y-72012499D01*
X138627039Y-72032184D01*
X138672794Y-72084988D01*
X138684000Y-72136499D01*
X138684000Y-74044000D01*
X138664315Y-74111039D01*
X138611511Y-74156794D01*
X138560000Y-74168000D01*
X110360000Y-74168000D01*
X110292961Y-74148315D01*
X110247206Y-74095511D01*
X110236000Y-74044000D01*
X110236000Y-72136499D01*
X110255685Y-72069460D01*
X110308489Y-72023705D01*
X110360000Y-72012499D01*
X113791517Y-72012499D01*
X113791518Y-72012499D01*
X113885304Y-71997646D01*
X113998342Y-71940050D01*
X114088050Y-71850342D01*
X114145646Y-71737304D01*
X114145646Y-71737302D01*
X114145647Y-71737301D01*
X114160500Y-71643524D01*
X114160500Y-71461500D01*
X114180185Y-71394461D01*
X114232989Y-71348706D01*
X114284500Y-71337500D01*
X114805774Y-71337500D01*
X114872813Y-71357185D01*
X114904728Y-71386773D01*
X114933019Y-71424236D01*
X115057048Y-71537304D01*
X115097437Y-71574123D01*
X115097439Y-71574125D01*
X115286595Y-71691245D01*
X115286596Y-71691245D01*
X115286599Y-71691247D01*
X115494060Y-71771618D01*
X115712757Y-71812500D01*
X115712759Y-71812500D01*
X115935241Y-71812500D01*
X115935243Y-71812500D01*
X116153940Y-71771618D01*
X116361401Y-71691247D01*
X116550562Y-71574124D01*
X116714981Y-71424236D01*
X116849058Y-71246689D01*
X116948229Y-71047528D01*
X116960765Y-71003467D01*
X116998042Y-70944377D01*
X117061352Y-70914819D01*
X117130591Y-70924180D01*
X117167711Y-70949723D01*
X117299231Y-71081243D01*
X117311007Y-71094868D01*
X117324698Y-71113258D01*
X117324699Y-71113259D01*
X117324700Y-71113260D01*
X117363327Y-71145673D01*
X117367316Y-71149328D01*
X117372873Y-71154885D01*
X117392535Y-71170431D01*
X117397739Y-71174547D01*
X117454622Y-71222277D01*
X117460654Y-71226244D01*
X117460600Y-71226326D01*
X117466339Y-71229982D01*
X117466391Y-71229898D01*
X117472533Y-71233686D01*
X117472536Y-71233689D01*
X117472539Y-71233690D01*
X117472540Y-71233691D01*
X117539822Y-71265065D01*
X117561940Y-71276172D01*
X117606175Y-71298388D01*
X117606180Y-71298389D01*
X117612967Y-71300860D01*
X117612933Y-71300951D01*
X117619363Y-71303186D01*
X117619394Y-71303093D01*
X117626239Y-71305361D01*
X117626240Y-71305361D01*
X117626244Y-71305363D01*
X117698939Y-71320373D01*
X117757090Y-71334155D01*
X117771196Y-71337499D01*
X117771197Y-71337499D01*
X117771201Y-71337500D01*
X117771205Y-71337500D01*
X117778374Y-71338338D01*
X117778362Y-71338435D01*
X117785134Y-71339127D01*
X117785143Y-71339030D01*
X117792332Y-71339659D01*
X117792336Y-71339658D01*
X117792337Y-71339659D01*
X117866533Y-71337500D01*
X122120803Y-71337500D01*
X122187842Y-71357185D01*
X122233597Y-71409989D01*
X122243277Y-71442103D01*
X122243501Y-71443517D01*
X122243501Y-71443518D01*
X122258354Y-71537304D01*
X122315950Y-71650342D01*
X122315952Y-71650344D01*
X122315954Y-71650347D01*
X122405652Y-71740045D01*
X122405654Y-71740046D01*
X122405658Y-71740050D01*
X122518694Y-71797645D01*
X122518698Y-71797647D01*
X122612475Y-71812499D01*
X122612481Y-71812500D01*
X124275518Y-71812499D01*
X124369304Y-71797646D01*
X124482342Y-71740050D01*
X124572050Y-71650342D01*
X124629646Y-71537304D01*
X124629646Y-71537302D01*
X124629647Y-71537301D01*
X124644499Y-71443524D01*
X124644500Y-71443519D01*
X124644499Y-69780482D01*
X124629646Y-69686696D01*
X124629645Y-69686694D01*
X124626631Y-69677418D01*
X124629308Y-69676548D01*
X124619233Y-69622904D01*
X124645508Y-69558163D01*
X124702613Y-69517905D01*
X124703611Y-69517570D01*
X124724438Y-69510668D01*
X124768697Y-69496003D01*
X124768705Y-69495997D01*
X124775245Y-69492949D01*
X124775286Y-69493038D01*
X124781409Y-69490074D01*
X124781365Y-69489986D01*
X124787812Y-69486746D01*
X124787820Y-69486744D01*
X124849841Y-69445952D01*
X124913044Y-69406968D01*
X124913049Y-69406962D01*
X124918708Y-69402489D01*
X124918769Y-69402566D01*
X124924048Y-69398266D01*
X124923985Y-69398190D01*
X124929507Y-69393554D01*
X124929517Y-69393549D01*
X124980468Y-69339543D01*
X125896322Y-68423689D01*
X125957641Y-68390207D01*
X126027332Y-68395191D01*
G37*
%TD.AperFunction*%
%TA.AperFunction,Conductor*%
G36*
X129461701Y-58429038D02*
G01*
X129491499Y-58467479D01*
X129530938Y-58546683D01*
X129530943Y-58546691D01*
X129665020Y-58724238D01*
X129829437Y-58874123D01*
X129829439Y-58874125D01*
X130018595Y-58991245D01*
X130018596Y-58991245D01*
X130018599Y-58991247D01*
X130226060Y-59071618D01*
X130444757Y-59112500D01*
X130444759Y-59112500D01*
X130667241Y-59112500D01*
X130667243Y-59112500D01*
X130885940Y-59071618D01*
X131093401Y-58991247D01*
X131282562Y-58874124D01*
X131446981Y-58724236D01*
X131475272Y-58686773D01*
X131531381Y-58645137D01*
X131574226Y-58637500D01*
X134635501Y-58637500D01*
X134702540Y-58657185D01*
X134748295Y-58709989D01*
X134759501Y-58761500D01*
X134759501Y-59451518D01*
X134774354Y-59545304D01*
X134831950Y-59658342D01*
X134831952Y-59658344D01*
X134831954Y-59658347D01*
X134921652Y-59748045D01*
X134921654Y-59748046D01*
X134921658Y-59748050D01*
X135034694Y-59805645D01*
X135034698Y-59805647D01*
X135128475Y-59820499D01*
X135128481Y-59820500D01*
X138560000Y-59820499D01*
X138627039Y-59840184D01*
X138672794Y-59892988D01*
X138684000Y-59944499D01*
X138684000Y-62892000D01*
X138664315Y-62959039D01*
X138611511Y-63004794D01*
X138560000Y-63016000D01*
X137410000Y-63016000D01*
X137410000Y-66016000D01*
X138560000Y-66016000D01*
X138627039Y-66035685D01*
X138672794Y-66088489D01*
X138684000Y-66140000D01*
X138684000Y-69087500D01*
X138664315Y-69154539D01*
X138611511Y-69200294D01*
X138560000Y-69211500D01*
X135128482Y-69211500D01*
X135048581Y-69224155D01*
X135034696Y-69226354D01*
X134921658Y-69283950D01*
X134921657Y-69283951D01*
X134921652Y-69283954D01*
X134831954Y-69373652D01*
X134831951Y-69373657D01*
X134831950Y-69373658D01*
X134819450Y-69398190D01*
X134774352Y-69486698D01*
X134759500Y-69580475D01*
X134759500Y-70270500D01*
X134739815Y-70337539D01*
X134687011Y-70383294D01*
X134635500Y-70394500D01*
X131574226Y-70394500D01*
X131507187Y-70374815D01*
X131475272Y-70345227D01*
X131446979Y-70307762D01*
X131282562Y-70157876D01*
X131282560Y-70157874D01*
X131093404Y-70040754D01*
X131093398Y-70040752D01*
X130885940Y-69960382D01*
X130667243Y-69919500D01*
X130444757Y-69919500D01*
X130226060Y-69960382D01*
X130094864Y-70011207D01*
X130018601Y-70040752D01*
X130018595Y-70040754D01*
X129829439Y-70157874D01*
X129829437Y-70157876D01*
X129665020Y-70307761D01*
X129530943Y-70485308D01*
X129530938Y-70485316D01*
X129491499Y-70564521D01*
X129443996Y-70615758D01*
X129376333Y-70633179D01*
X129309992Y-70611253D01*
X129266038Y-70556941D01*
X129256499Y-70509249D01*
X129256499Y-70288482D01*
X129253651Y-70270500D01*
X129241646Y-70194696D01*
X129184050Y-70081658D01*
X129184046Y-70081654D01*
X129184045Y-70081652D01*
X129094347Y-69991954D01*
X129094344Y-69991952D01*
X129094342Y-69991950D01*
X129017517Y-69952805D01*
X128981301Y-69934352D01*
X128886101Y-69919274D01*
X128822967Y-69889344D01*
X128786036Y-69830032D01*
X128781500Y-69796801D01*
X128781500Y-69443893D01*
X128782809Y-69425923D01*
X128783001Y-69424614D01*
X128786131Y-69403245D01*
X128785812Y-69399602D01*
X128781736Y-69353013D01*
X128781500Y-69347606D01*
X128781500Y-69339747D01*
X128781499Y-69339739D01*
X128781476Y-69339543D01*
X128777821Y-69308276D01*
X128771349Y-69234293D01*
X128771347Y-69234289D01*
X128769888Y-69227217D01*
X128769983Y-69227197D01*
X128768512Y-69220557D01*
X128768416Y-69220580D01*
X128766750Y-69213552D01*
X128766750Y-69213549D01*
X128741358Y-69143787D01*
X128718003Y-69073304D01*
X128717999Y-69073298D01*
X128714949Y-69066756D01*
X128715038Y-69066714D01*
X128712073Y-69060590D01*
X128711985Y-69060635D01*
X128708746Y-69054187D01*
X128708744Y-69054180D01*
X128667947Y-68992152D01*
X128628969Y-68928956D01*
X128624491Y-68923294D01*
X128624567Y-68923233D01*
X128620267Y-68917954D01*
X128620193Y-68918017D01*
X128615553Y-68912488D01*
X128615551Y-68912486D01*
X128615549Y-68912483D01*
X128585803Y-68884419D01*
X128561542Y-68861529D01*
X126797982Y-67097970D01*
X126764497Y-67036647D01*
X126769481Y-66966955D01*
X126802123Y-66918654D01*
X126874981Y-66852236D01*
X127009058Y-66674689D01*
X127108229Y-66475528D01*
X127169115Y-66261536D01*
X127189643Y-66040000D01*
X127169115Y-65818464D01*
X127161016Y-65789999D01*
X132325127Y-65789999D01*
X132325128Y-65790000D01*
X133288314Y-65790000D01*
X133276359Y-65801955D01*
X133218835Y-65914852D01*
X133199014Y-66040000D01*
X133218835Y-66165148D01*
X133276359Y-66278045D01*
X133288314Y-66290000D01*
X132325128Y-66290000D01*
X132377730Y-66486317D01*
X132377734Y-66486326D01*
X132473865Y-66692482D01*
X132604342Y-66878820D01*
X132765179Y-67039657D01*
X132951517Y-67170134D01*
X133157673Y-67266265D01*
X133157682Y-67266269D01*
X133353999Y-67318872D01*
X133354000Y-67318871D01*
X133354000Y-66355686D01*
X133365955Y-66367641D01*
X133478852Y-66425165D01*
X133572519Y-66440000D01*
X133635481Y-66440000D01*
X133729148Y-66425165D01*
X133842045Y-66367641D01*
X133854000Y-66355686D01*
X133854000Y-67318872D01*
X134050317Y-67266269D01*
X134050326Y-67266265D01*
X134256482Y-67170134D01*
X134442820Y-67039657D01*
X134603657Y-66878820D01*
X134734134Y-66692482D01*
X134830265Y-66486326D01*
X134830269Y-66486317D01*
X134882872Y-66290000D01*
X133919686Y-66290000D01*
X133931641Y-66278045D01*
X133989165Y-66165148D01*
X134008986Y-66040000D01*
X133989165Y-65914852D01*
X133931641Y-65801955D01*
X133919686Y-65790000D01*
X134820000Y-65790000D01*
X134887039Y-65809685D01*
X134932794Y-65862489D01*
X134944000Y-65914000D01*
X134944000Y-65969083D01*
X135052626Y-66009598D01*
X135112155Y-66015999D01*
X135112172Y-66016000D01*
X136910000Y-66016000D01*
X136910000Y-64766000D01*
X134660000Y-64766000D01*
X134660000Y-64958160D01*
X134640315Y-65025199D01*
X134587511Y-65070954D01*
X134518353Y-65080898D01*
X134454797Y-65051873D01*
X134448319Y-65045841D01*
X134442820Y-65040342D01*
X134256482Y-64909865D01*
X134050328Y-64813734D01*
X133854000Y-64761127D01*
X133854000Y-65724314D01*
X133842045Y-65712359D01*
X133729148Y-65654835D01*
X133635481Y-65640000D01*
X133572519Y-65640000D01*
X133478852Y-65654835D01*
X133365955Y-65712359D01*
X133354000Y-65724314D01*
X133354000Y-64761127D01*
X133157671Y-64813734D01*
X132951517Y-64909865D01*
X132765179Y-65040342D01*
X132604342Y-65201179D01*
X132473865Y-65387517D01*
X132377734Y-65593673D01*
X132377730Y-65593682D01*
X132325127Y-65789999D01*
X127161016Y-65789999D01*
X127108229Y-65604472D01*
X127108224Y-65604461D01*
X127009061Y-65405316D01*
X127009056Y-65405308D01*
X126874979Y-65227761D01*
X126710562Y-65077876D01*
X126710560Y-65077874D01*
X126521404Y-64960754D01*
X126521398Y-64960752D01*
X126313940Y-64880382D01*
X126095243Y-64839500D01*
X125872757Y-64839500D01*
X125654060Y-64880382D01*
X125654057Y-64880382D01*
X125654057Y-64880383D01*
X125553294Y-64919419D01*
X125483671Y-64925281D01*
X125421931Y-64892571D01*
X125387676Y-64831674D01*
X125384501Y-64803792D01*
X125384501Y-64228207D01*
X125404186Y-64161168D01*
X125456990Y-64115413D01*
X125526148Y-64105469D01*
X125553292Y-64112580D01*
X125654060Y-64151618D01*
X125872757Y-64192500D01*
X125872759Y-64192500D01*
X126095241Y-64192500D01*
X126095243Y-64192500D01*
X126313940Y-64151618D01*
X126521401Y-64071247D01*
X126710562Y-63954124D01*
X126850282Y-63826751D01*
X126874979Y-63804238D01*
X126879800Y-63797855D01*
X127009058Y-63626689D01*
X127108229Y-63427528D01*
X127169115Y-63213536D01*
X127189643Y-62992000D01*
X127169115Y-62770464D01*
X127161016Y-62741999D01*
X132325127Y-62741999D01*
X132325128Y-62742000D01*
X133288314Y-62742000D01*
X133276359Y-62753955D01*
X133218835Y-62866852D01*
X133199014Y-62992000D01*
X133218835Y-63117148D01*
X133276359Y-63230045D01*
X133288314Y-63242000D01*
X132325128Y-63242000D01*
X132377730Y-63438317D01*
X132377734Y-63438326D01*
X132473865Y-63644482D01*
X132604342Y-63830820D01*
X132765179Y-63991657D01*
X132951517Y-64122134D01*
X133157673Y-64218265D01*
X133157682Y-64218269D01*
X133353999Y-64270872D01*
X133354000Y-64270871D01*
X133354000Y-63307686D01*
X133365955Y-63319641D01*
X133478852Y-63377165D01*
X133572519Y-63392000D01*
X133635481Y-63392000D01*
X133729148Y-63377165D01*
X133842045Y-63319641D01*
X133854000Y-63307686D01*
X133854000Y-64270872D01*
X134050317Y-64218269D01*
X134050326Y-64218265D01*
X134256482Y-64122134D01*
X134442820Y-63991657D01*
X134448319Y-63986159D01*
X134509642Y-63952674D01*
X134579334Y-63957658D01*
X134635267Y-63999530D01*
X134659684Y-64064994D01*
X134660000Y-64073840D01*
X134660000Y-64266000D01*
X136910000Y-64266000D01*
X136910000Y-63016000D01*
X135112155Y-63016000D01*
X135052627Y-63022401D01*
X135052619Y-63022403D01*
X134944000Y-63062915D01*
X134944000Y-63118000D01*
X134924315Y-63185039D01*
X134871511Y-63230794D01*
X134820000Y-63242000D01*
X133919686Y-63242000D01*
X133931641Y-63230045D01*
X133989165Y-63117148D01*
X134008986Y-62992000D01*
X133989165Y-62866852D01*
X133931641Y-62753955D01*
X133919686Y-62742000D01*
X134882872Y-62742000D01*
X134882872Y-62741999D01*
X134830269Y-62545682D01*
X134830265Y-62545673D01*
X134734134Y-62339517D01*
X134603657Y-62153179D01*
X134442820Y-61992342D01*
X134256482Y-61861865D01*
X134050328Y-61765734D01*
X133854000Y-61713127D01*
X133854000Y-62676314D01*
X133842045Y-62664359D01*
X133729148Y-62606835D01*
X133635481Y-62592000D01*
X133572519Y-62592000D01*
X133478852Y-62606835D01*
X133365955Y-62664359D01*
X133354000Y-62676314D01*
X133354000Y-61713127D01*
X133157671Y-61765734D01*
X132951517Y-61861865D01*
X132765179Y-61992342D01*
X132604342Y-62153179D01*
X132473865Y-62339517D01*
X132377734Y-62545673D01*
X132377730Y-62545682D01*
X132325127Y-62741999D01*
X127161016Y-62741999D01*
X127108229Y-62556472D01*
X127108224Y-62556461D01*
X127009061Y-62357316D01*
X127009056Y-62357308D01*
X126874979Y-62179761D01*
X126710562Y-62029876D01*
X126710560Y-62029874D01*
X126521404Y-61912754D01*
X126521398Y-61912752D01*
X126313940Y-61832382D01*
X126095243Y-61791500D01*
X125872757Y-61791500D01*
X125654060Y-61832382D01*
X125654057Y-61832382D01*
X125654057Y-61832383D01*
X125553294Y-61871419D01*
X125483671Y-61877281D01*
X125421931Y-61844571D01*
X125387676Y-61783674D01*
X125384501Y-61755792D01*
X125384501Y-61366872D01*
X125404186Y-61299833D01*
X125420815Y-61279196D01*
X127551193Y-59148817D01*
X127612516Y-59115333D01*
X127638874Y-59112499D01*
X128887517Y-59112499D01*
X128887518Y-59112499D01*
X128981304Y-59097646D01*
X129094342Y-59040050D01*
X129184050Y-58950342D01*
X129241646Y-58837304D01*
X129241646Y-58837302D01*
X129241647Y-58837301D01*
X129256499Y-58743524D01*
X129256500Y-58743519D01*
X129256499Y-58522749D01*
X129276183Y-58455712D01*
X129328987Y-58409957D01*
X129398145Y-58400013D01*
X129461701Y-58429038D01*
G37*
%TD.AperFunction*%
%TA.AperFunction,Conductor*%
G36*
X116565469Y-62721185D02*
G01*
X116597383Y-62750772D01*
X116600128Y-62754407D01*
X116757698Y-62898052D01*
X116938981Y-63010298D01*
X117137802Y-63087321D01*
X117334613Y-63124111D01*
X117396893Y-63155779D01*
X117432166Y-63216092D01*
X117429232Y-63285900D01*
X117389023Y-63343040D01*
X117334613Y-63367888D01*
X117137802Y-63404679D01*
X117137799Y-63404679D01*
X117137799Y-63404680D01*
X116938982Y-63481701D01*
X116938980Y-63481702D01*
X116757699Y-63593947D01*
X116600128Y-63737592D01*
X116598538Y-63739698D01*
X116597383Y-63741226D01*
X116541277Y-63782862D01*
X116498430Y-63790500D01*
X115338908Y-63790500D01*
X115335307Y-63790395D01*
X115292877Y-63787923D01*
X115273530Y-63786797D01*
X115273529Y-63786797D01*
X115258044Y-63789527D01*
X115212571Y-63797544D01*
X115209005Y-63798066D01*
X115147552Y-63805249D01*
X115147549Y-63805250D01*
X115137688Y-63808838D01*
X115116833Y-63814425D01*
X115106516Y-63816245D01*
X115106509Y-63816246D01*
X115106508Y-63816247D01*
X115106506Y-63816247D01*
X115106505Y-63816248D01*
X115049674Y-63840760D01*
X115046326Y-63842091D01*
X114988180Y-63863255D01*
X114979421Y-63869016D01*
X114960411Y-63879266D01*
X114950781Y-63883420D01*
X114901130Y-63920383D01*
X114898177Y-63922451D01*
X114846482Y-63956451D01*
X114846475Y-63956457D01*
X114839287Y-63964076D01*
X114823154Y-63978435D01*
X114814739Y-63984700D01*
X114774962Y-64032104D01*
X114772565Y-64034798D01*
X114730098Y-64079810D01*
X114724854Y-64088892D01*
X114712471Y-64106578D01*
X114705728Y-64114615D01*
X114677945Y-64169931D01*
X114676234Y-64173104D01*
X114645301Y-64226682D01*
X114645297Y-64226692D01*
X114642289Y-64236737D01*
X114634315Y-64256809D01*
X114629611Y-64266175D01*
X114615340Y-64326387D01*
X114614407Y-64329869D01*
X114596657Y-64389163D01*
X114596048Y-64399624D01*
X114592918Y-64420994D01*
X114590500Y-64431199D01*
X114590500Y-64493090D01*
X114590395Y-64496695D01*
X114586796Y-64558470D01*
X114588616Y-64568786D01*
X114590500Y-64590319D01*
X114590500Y-68010111D01*
X114589191Y-68028083D01*
X114585870Y-68050755D01*
X114585869Y-68050758D01*
X114590264Y-68100977D01*
X114590500Y-68106384D01*
X114590500Y-68114256D01*
X114594179Y-68145735D01*
X114600650Y-68219707D01*
X114602110Y-68226774D01*
X114602016Y-68226793D01*
X114603493Y-68233452D01*
X114603586Y-68233431D01*
X114605249Y-68240451D01*
X114630636Y-68310202D01*
X114653995Y-68380692D01*
X114657050Y-68387244D01*
X114656962Y-68387284D01*
X114659929Y-68393411D01*
X114660015Y-68393368D01*
X114663256Y-68399821D01*
X114704046Y-68461840D01*
X114743032Y-68525044D01*
X114747514Y-68530713D01*
X114747436Y-68530773D01*
X114751733Y-68536048D01*
X114751809Y-68535985D01*
X114756450Y-68541516D01*
X114810456Y-68592468D01*
X115486576Y-69268588D01*
X115520061Y-69329911D01*
X115515077Y-69399602D01*
X115473206Y-69455536D01*
X115443689Y-69471896D01*
X115286601Y-69532751D01*
X115286595Y-69532754D01*
X115097439Y-69649874D01*
X115097437Y-69649876D01*
X114933020Y-69799762D01*
X114904728Y-69837227D01*
X114848619Y-69878863D01*
X114805774Y-69886500D01*
X114284499Y-69886500D01*
X114217460Y-69866815D01*
X114171705Y-69814011D01*
X114160499Y-69762500D01*
X114160499Y-69580482D01*
X114157518Y-69561660D01*
X114145646Y-69486696D01*
X114088050Y-69373658D01*
X114088046Y-69373654D01*
X114088045Y-69373652D01*
X113998347Y-69283954D01*
X113998344Y-69283952D01*
X113998342Y-69283950D01*
X113921517Y-69244805D01*
X113885301Y-69226352D01*
X113791524Y-69211500D01*
X113791519Y-69211500D01*
X110360000Y-69211500D01*
X110292961Y-69191815D01*
X110247206Y-69139011D01*
X110236000Y-69087500D01*
X110236000Y-66040499D01*
X110255685Y-65973460D01*
X110308489Y-65927705D01*
X110360000Y-65916499D01*
X113791517Y-65916499D01*
X113791518Y-65916499D01*
X113885304Y-65901646D01*
X113998342Y-65844050D01*
X114088050Y-65754342D01*
X114145646Y-65641304D01*
X114145646Y-65641302D01*
X114145647Y-65641301D01*
X114160499Y-65547524D01*
X114160500Y-65547519D01*
X114160499Y-63700873D01*
X114180184Y-63633835D01*
X114196818Y-63613193D01*
X115072193Y-62737819D01*
X115133516Y-62704334D01*
X115159874Y-62701500D01*
X116498430Y-62701500D01*
X116565469Y-62721185D01*
G37*
%TD.AperFunction*%
%TA.AperFunction,Conductor*%
G36*
X121645469Y-62721185D02*
G01*
X121677383Y-62750772D01*
X121680128Y-62754407D01*
X121837698Y-62898052D01*
X122018981Y-63010298D01*
X122217802Y-63087321D01*
X122414613Y-63124111D01*
X122476893Y-63155779D01*
X122512166Y-63216092D01*
X122509232Y-63285900D01*
X122469023Y-63343040D01*
X122414613Y-63367888D01*
X122217802Y-63404679D01*
X122217799Y-63404679D01*
X122217799Y-63404680D01*
X122018982Y-63481701D01*
X122018980Y-63481702D01*
X121837699Y-63593947D01*
X121680127Y-63737593D01*
X121551632Y-63907746D01*
X121456596Y-64098605D01*
X121456596Y-64098607D01*
X121407582Y-64270872D01*
X121398244Y-64303690D01*
X121378571Y-64516000D01*
X121398244Y-64728310D01*
X121452913Y-64920450D01*
X121456596Y-64933392D01*
X121456596Y-64933394D01*
X121551632Y-65124253D01*
X121677384Y-65290774D01*
X121680128Y-65294407D01*
X121837698Y-65438052D01*
X122018981Y-65550298D01*
X122217802Y-65627321D01*
X122390543Y-65659612D01*
X122452822Y-65691279D01*
X122488095Y-65751592D01*
X122485161Y-65821400D01*
X122444952Y-65878540D01*
X122380234Y-65904871D01*
X122367756Y-65905500D01*
X121752482Y-65905500D01*
X121671519Y-65918323D01*
X121658696Y-65920354D01*
X121545658Y-65977950D01*
X121545657Y-65977951D01*
X121545652Y-65977954D01*
X121455954Y-66067652D01*
X121455951Y-66067657D01*
X121398352Y-66180698D01*
X121383500Y-66274475D01*
X121383500Y-67837517D01*
X121398354Y-67931305D01*
X121401369Y-67940582D01*
X121399229Y-67941277D01*
X121409672Y-67996871D01*
X121383398Y-68061612D01*
X121326292Y-68101871D01*
X121286291Y-68108500D01*
X119583874Y-68108500D01*
X119516835Y-68088815D01*
X119496193Y-68072181D01*
X118640818Y-67216806D01*
X118607333Y-67155483D01*
X118604499Y-67129125D01*
X118604499Y-66274482D01*
X118602449Y-66261536D01*
X118589646Y-66180696D01*
X118532050Y-66067658D01*
X118532046Y-66067654D01*
X118532045Y-66067652D01*
X118442347Y-65977954D01*
X118442344Y-65977952D01*
X118442342Y-65977950D01*
X118365517Y-65938805D01*
X118329301Y-65920352D01*
X118235524Y-65905500D01*
X117620243Y-65905500D01*
X117553204Y-65885815D01*
X117507449Y-65833011D01*
X117497505Y-65763853D01*
X117526530Y-65700297D01*
X117585308Y-65662523D01*
X117597441Y-65659614D01*
X117770198Y-65627321D01*
X117969019Y-65550298D01*
X118150302Y-65438052D01*
X118307872Y-65294407D01*
X118436366Y-65124255D01*
X118459461Y-65077874D01*
X118531403Y-64933394D01*
X118531403Y-64933393D01*
X118531405Y-64933389D01*
X118589756Y-64728310D01*
X118609429Y-64516000D01*
X118589756Y-64303690D01*
X118531405Y-64098611D01*
X118531403Y-64098606D01*
X118531403Y-64098605D01*
X118436367Y-63907746D01*
X118307872Y-63737593D01*
X118211252Y-63649512D01*
X118150302Y-63593948D01*
X117969019Y-63481702D01*
X117969017Y-63481701D01*
X117829204Y-63427538D01*
X117770198Y-63404679D01*
X117573385Y-63367888D01*
X117511106Y-63336221D01*
X117475833Y-63275908D01*
X117478767Y-63206100D01*
X117518976Y-63148960D01*
X117573384Y-63124111D01*
X117770198Y-63087321D01*
X117969019Y-63010298D01*
X118150302Y-62898052D01*
X118307872Y-62754407D01*
X118310616Y-62750773D01*
X118366723Y-62709138D01*
X118409570Y-62701500D01*
X121578430Y-62701500D01*
X121645469Y-62721185D01*
G37*
%TD.AperFunction*%
%TA.AperFunction,Conductor*%
G36*
X138627039Y-54883685D02*
G01*
X138672794Y-54936489D01*
X138684000Y-54988000D01*
X138684000Y-56895500D01*
X138664315Y-56962539D01*
X138611511Y-57008294D01*
X138560000Y-57019500D01*
X135128482Y-57019500D01*
X135047519Y-57032323D01*
X135034696Y-57034354D01*
X134921658Y-57091950D01*
X134921657Y-57091951D01*
X134921656Y-57091951D01*
X134892542Y-57121066D01*
X134863425Y-57150182D01*
X134802105Y-57183666D01*
X134775746Y-57186500D01*
X131574226Y-57186500D01*
X131507187Y-57166815D01*
X131475272Y-57137227D01*
X131446979Y-57099762D01*
X131282562Y-56949876D01*
X131282560Y-56949874D01*
X131093404Y-56832754D01*
X131093398Y-56832752D01*
X130885940Y-56752382D01*
X130667243Y-56711500D01*
X130444757Y-56711500D01*
X130226060Y-56752382D01*
X130094864Y-56803207D01*
X130018601Y-56832752D01*
X130018595Y-56832754D01*
X129829439Y-56949874D01*
X129829437Y-56949876D01*
X129665020Y-57099761D01*
X129530943Y-57277308D01*
X129530938Y-57277316D01*
X129491499Y-57356521D01*
X129443996Y-57407758D01*
X129376333Y-57425179D01*
X129309992Y-57403253D01*
X129266038Y-57348941D01*
X129256499Y-57301249D01*
X129256499Y-57080482D01*
X129256498Y-57080475D01*
X129241646Y-56986696D01*
X129184050Y-56873658D01*
X129184046Y-56873654D01*
X129184045Y-56873652D01*
X129094347Y-56783954D01*
X129094344Y-56783952D01*
X129094342Y-56783950D01*
X129017517Y-56744805D01*
X128981301Y-56726352D01*
X128887524Y-56711500D01*
X127224482Y-56711500D01*
X127143519Y-56724323D01*
X127130696Y-56726354D01*
X127017658Y-56783950D01*
X127017657Y-56783951D01*
X127017652Y-56783954D01*
X126927954Y-56873652D01*
X126927951Y-56873657D01*
X126870352Y-56986698D01*
X126855500Y-57080475D01*
X126855500Y-57741125D01*
X126835815Y-57808164D01*
X126819181Y-57828806D01*
X124746181Y-59901806D01*
X124684858Y-59935291D01*
X124615166Y-59930307D01*
X124559233Y-59888435D01*
X124534816Y-59822971D01*
X124534500Y-59814125D01*
X124534500Y-59547254D01*
X124554185Y-59480215D01*
X124570819Y-59459572D01*
X124572050Y-59458342D01*
X124629646Y-59345304D01*
X124629646Y-59345302D01*
X124629647Y-59345301D01*
X124644499Y-59251524D01*
X124644500Y-59251519D01*
X124644499Y-57588482D01*
X124629646Y-57494696D01*
X124572050Y-57381658D01*
X124572046Y-57381654D01*
X124572045Y-57381652D01*
X124482347Y-57291954D01*
X124482344Y-57291952D01*
X124482342Y-57291950D01*
X124405517Y-57252805D01*
X124369301Y-57234352D01*
X124275524Y-57219500D01*
X122612482Y-57219500D01*
X122531519Y-57232323D01*
X122518696Y-57234354D01*
X122405658Y-57291950D01*
X122405657Y-57291951D01*
X122405652Y-57291954D01*
X122315954Y-57381652D01*
X122315951Y-57381657D01*
X122315950Y-57381658D01*
X122312473Y-57388482D01*
X122258352Y-57494698D01*
X122243500Y-57588475D01*
X122243500Y-59251517D01*
X122254292Y-59319657D01*
X122258354Y-59345304D01*
X122315950Y-59458342D01*
X122315952Y-59458344D01*
X122315954Y-59458347D01*
X122405652Y-59548045D01*
X122405654Y-59548046D01*
X122405658Y-59548050D01*
X122518696Y-59605646D01*
X122518698Y-59605647D01*
X122612475Y-59620499D01*
X122612481Y-59620500D01*
X122959500Y-59620499D01*
X123026539Y-59640183D01*
X123072294Y-59692987D01*
X123083500Y-59744499D01*
X123083500Y-60774042D01*
X123063815Y-60841081D01*
X123011011Y-60886836D01*
X122941853Y-60896780D01*
X122914707Y-60889669D01*
X122850203Y-60864680D01*
X122850198Y-60864679D01*
X122640610Y-60825500D01*
X122427390Y-60825500D01*
X122217802Y-60864679D01*
X122217799Y-60864679D01*
X122217799Y-60864680D01*
X122018982Y-60941701D01*
X122018980Y-60941702D01*
X121837699Y-61053947D01*
X121680128Y-61197592D01*
X121678538Y-61199698D01*
X121677383Y-61201226D01*
X121621277Y-61242862D01*
X121578430Y-61250500D01*
X118409570Y-61250500D01*
X118342531Y-61230815D01*
X118310616Y-61201227D01*
X118307872Y-61197593D01*
X118150302Y-61053948D01*
X117969019Y-60941702D01*
X117969017Y-60941701D01*
X117827392Y-60886836D01*
X117770198Y-60864679D01*
X117560610Y-60825500D01*
X117347390Y-60825500D01*
X117137802Y-60864679D01*
X117137799Y-60864679D01*
X117137799Y-60864680D01*
X116938982Y-60941701D01*
X116938980Y-60941702D01*
X116757699Y-61053947D01*
X116600128Y-61197592D01*
X116598538Y-61199698D01*
X116597383Y-61201226D01*
X116541277Y-61242862D01*
X116498430Y-61250500D01*
X114869887Y-61250500D01*
X114851918Y-61249191D01*
X114829241Y-61245869D01*
X114791283Y-61249191D01*
X114779015Y-61250264D01*
X114773615Y-61250500D01*
X114765742Y-61250500D01*
X114744757Y-61252952D01*
X114734264Y-61254179D01*
X114728756Y-61254660D01*
X114660291Y-61260650D01*
X114653224Y-61262110D01*
X114653205Y-61262017D01*
X114646549Y-61263493D01*
X114646571Y-61263586D01*
X114639543Y-61265251D01*
X114569780Y-61290643D01*
X114499301Y-61313997D01*
X114492760Y-61317048D01*
X114492719Y-61316962D01*
X114486584Y-61319932D01*
X114486627Y-61320018D01*
X114480178Y-61323256D01*
X114418148Y-61364053D01*
X114354959Y-61403030D01*
X114349289Y-61407513D01*
X114349230Y-61407438D01*
X114343953Y-61411737D01*
X114344014Y-61411809D01*
X114338489Y-61416445D01*
X114287530Y-61470457D01*
X112678807Y-63079181D01*
X112617484Y-63112666D01*
X112591126Y-63115500D01*
X110360000Y-63115500D01*
X110292961Y-63095815D01*
X110247206Y-63043011D01*
X110236000Y-62991500D01*
X110236000Y-59944499D01*
X110255685Y-59877460D01*
X110308489Y-59831705D01*
X110360000Y-59820499D01*
X113791517Y-59820499D01*
X113791518Y-59820499D01*
X113885304Y-59805646D01*
X113998342Y-59748050D01*
X114088050Y-59658342D01*
X114145646Y-59545304D01*
X114145646Y-59545302D01*
X114145647Y-59545301D01*
X114160500Y-59451524D01*
X114160500Y-59269500D01*
X114180185Y-59202461D01*
X114232989Y-59156706D01*
X114284500Y-59145500D01*
X114805774Y-59145500D01*
X114872813Y-59165185D01*
X114904728Y-59194773D01*
X114933019Y-59232236D01*
X115057048Y-59345304D01*
X115097437Y-59382123D01*
X115097439Y-59382125D01*
X115286595Y-59499245D01*
X115286596Y-59499245D01*
X115286599Y-59499247D01*
X115494060Y-59579618D01*
X115712757Y-59620500D01*
X115712759Y-59620500D01*
X115935241Y-59620500D01*
X115935243Y-59620500D01*
X116153940Y-59579618D01*
X116361401Y-59499247D01*
X116550562Y-59382124D01*
X116714981Y-59232236D01*
X116849058Y-59054689D01*
X116948229Y-58855528D01*
X117009115Y-58641536D01*
X117029643Y-58420000D01*
X117009115Y-58198464D01*
X116948229Y-57984472D01*
X116948224Y-57984461D01*
X116849061Y-57785316D01*
X116849056Y-57785308D01*
X116714979Y-57607761D01*
X116550562Y-57457876D01*
X116550560Y-57457874D01*
X116361404Y-57340754D01*
X116361398Y-57340752D01*
X116153940Y-57260382D01*
X115935243Y-57219500D01*
X115712757Y-57219500D01*
X115494060Y-57260382D01*
X115362864Y-57311207D01*
X115286601Y-57340752D01*
X115286595Y-57340754D01*
X115097439Y-57457874D01*
X115097437Y-57457876D01*
X114933020Y-57607762D01*
X114904728Y-57645227D01*
X114848619Y-57686863D01*
X114805774Y-57694500D01*
X114284499Y-57694500D01*
X114217460Y-57674815D01*
X114171705Y-57622011D01*
X114160499Y-57570500D01*
X114160499Y-57388482D01*
X114155437Y-57356521D01*
X114145646Y-57294696D01*
X114088050Y-57181658D01*
X114088046Y-57181654D01*
X114088045Y-57181652D01*
X113998347Y-57091954D01*
X113998344Y-57091952D01*
X113998342Y-57091950D01*
X113921517Y-57052805D01*
X113885301Y-57034352D01*
X113791524Y-57019500D01*
X113791519Y-57019500D01*
X110360000Y-57019500D01*
X110292961Y-56999815D01*
X110247206Y-56947011D01*
X110236000Y-56895500D01*
X110236000Y-54988000D01*
X110255685Y-54920961D01*
X110308489Y-54875206D01*
X110360000Y-54864000D01*
X138560000Y-54864000D01*
X138627039Y-54883685D01*
G37*
%TD.AperFunction*%
%TD*%
M02*
