%TF.GenerationSoftware,KiCad,Pcbnew,7.0.7*%
%TF.CreationDate,2023-08-19T23:12:14-07:00*%
%TF.ProjectId,snesypbpr-enhanced,736e6573-7970-4627-9072-2d656e68616e,rev?*%
%TF.SameCoordinates,Original*%
%TF.FileFunction,Legend,Bot*%
%TF.FilePolarity,Positive*%
%FSLAX46Y46*%
G04 Gerber Fmt 4.6, Leading zero omitted, Abs format (unit mm)*
G04 Created by KiCad (PCBNEW 7.0.7) date 2023-08-19 23:12:14*
%MOMM*%
%LPD*%
G01*
G04 APERTURE LIST*
%ADD10C,0.150000*%
G04 APERTURE END LIST*
D10*
X118989268Y-67801295D02*
X118989268Y-68372723D01*
X118989268Y-68372723D02*
X119027363Y-68487009D01*
X119027363Y-68487009D02*
X119103554Y-68563200D01*
X119103554Y-68563200D02*
X119217839Y-68601295D01*
X119217839Y-68601295D02*
X119294030Y-68601295D01*
X118227363Y-68601295D02*
X118608315Y-68601295D01*
X118608315Y-68601295D02*
X118608315Y-67801295D01*
X117503553Y-68525104D02*
X117541649Y-68563200D01*
X117541649Y-68563200D02*
X117655934Y-68601295D01*
X117655934Y-68601295D02*
X117732125Y-68601295D01*
X117732125Y-68601295D02*
X117846411Y-68563200D01*
X117846411Y-68563200D02*
X117922601Y-68487009D01*
X117922601Y-68487009D02*
X117960696Y-68410819D01*
X117960696Y-68410819D02*
X117998792Y-68258438D01*
X117998792Y-68258438D02*
X117998792Y-68144152D01*
X117998792Y-68144152D02*
X117960696Y-67991771D01*
X117960696Y-67991771D02*
X117922601Y-67915580D01*
X117922601Y-67915580D02*
X117846411Y-67839390D01*
X117846411Y-67839390D02*
X117732125Y-67801295D01*
X117732125Y-67801295D02*
X117655934Y-67801295D01*
X117655934Y-67801295D02*
X117541649Y-67839390D01*
X117541649Y-67839390D02*
X117503553Y-67877485D01*
X116932125Y-67801295D02*
X116932125Y-68372723D01*
X116932125Y-68372723D02*
X116970220Y-68487009D01*
X116970220Y-68487009D02*
X117046411Y-68563200D01*
X117046411Y-68563200D02*
X117160696Y-68601295D01*
X117160696Y-68601295D02*
X117236887Y-68601295D01*
X116170220Y-68601295D02*
X116551172Y-68601295D01*
X116551172Y-68601295D02*
X116551172Y-67801295D01*
X115446410Y-68525104D02*
X115484506Y-68563200D01*
X115484506Y-68563200D02*
X115598791Y-68601295D01*
X115598791Y-68601295D02*
X115674982Y-68601295D01*
X115674982Y-68601295D02*
X115789268Y-68563200D01*
X115789268Y-68563200D02*
X115865458Y-68487009D01*
X115865458Y-68487009D02*
X115903553Y-68410819D01*
X115903553Y-68410819D02*
X115941649Y-68258438D01*
X115941649Y-68258438D02*
X115941649Y-68144152D01*
X115941649Y-68144152D02*
X115903553Y-67991771D01*
X115903553Y-67991771D02*
X115865458Y-67915580D01*
X115865458Y-67915580D02*
X115789268Y-67839390D01*
X115789268Y-67839390D02*
X115674982Y-67801295D01*
X115674982Y-67801295D02*
X115598791Y-67801295D01*
X115598791Y-67801295D02*
X115484506Y-67839390D01*
X115484506Y-67839390D02*
X115446410Y-67877485D01*
X114874982Y-67801295D02*
X114874982Y-68372723D01*
X114874982Y-68372723D02*
X114913077Y-68487009D01*
X114913077Y-68487009D02*
X114989268Y-68563200D01*
X114989268Y-68563200D02*
X115103553Y-68601295D01*
X115103553Y-68601295D02*
X115179744Y-68601295D01*
X114113077Y-68601295D02*
X114494029Y-68601295D01*
X114494029Y-68601295D02*
X114494029Y-67801295D01*
X113389267Y-68525104D02*
X113427363Y-68563200D01*
X113427363Y-68563200D02*
X113541648Y-68601295D01*
X113541648Y-68601295D02*
X113617839Y-68601295D01*
X113617839Y-68601295D02*
X113732125Y-68563200D01*
X113732125Y-68563200D02*
X113808315Y-68487009D01*
X113808315Y-68487009D02*
X113846410Y-68410819D01*
X113846410Y-68410819D02*
X113884506Y-68258438D01*
X113884506Y-68258438D02*
X113884506Y-68144152D01*
X113884506Y-68144152D02*
X113846410Y-67991771D01*
X113846410Y-67991771D02*
X113808315Y-67915580D01*
X113808315Y-67915580D02*
X113732125Y-67839390D01*
X113732125Y-67839390D02*
X113617839Y-67801295D01*
X113617839Y-67801295D02*
X113541648Y-67801295D01*
X113541648Y-67801295D02*
X113427363Y-67839390D01*
X113427363Y-67839390D02*
X113389267Y-67877485D01*
X112817839Y-67801295D02*
X112817839Y-68372723D01*
X112817839Y-68372723D02*
X112855934Y-68487009D01*
X112855934Y-68487009D02*
X112932125Y-68563200D01*
X112932125Y-68563200D02*
X113046410Y-68601295D01*
X113046410Y-68601295D02*
X113122601Y-68601295D01*
X112055934Y-68601295D02*
X112436886Y-68601295D01*
X112436886Y-68601295D02*
X112436886Y-67801295D01*
X111332124Y-68525104D02*
X111370220Y-68563200D01*
X111370220Y-68563200D02*
X111484505Y-68601295D01*
X111484505Y-68601295D02*
X111560696Y-68601295D01*
X111560696Y-68601295D02*
X111674982Y-68563200D01*
X111674982Y-68563200D02*
X111751172Y-68487009D01*
X111751172Y-68487009D02*
X111789267Y-68410819D01*
X111789267Y-68410819D02*
X111827363Y-68258438D01*
X111827363Y-68258438D02*
X111827363Y-68144152D01*
X111827363Y-68144152D02*
X111789267Y-67991771D01*
X111789267Y-67991771D02*
X111751172Y-67915580D01*
X111751172Y-67915580D02*
X111674982Y-67839390D01*
X111674982Y-67839390D02*
X111560696Y-67801295D01*
X111560696Y-67801295D02*
X111484505Y-67801295D01*
X111484505Y-67801295D02*
X111370220Y-67839390D01*
X111370220Y-67839390D02*
X111332124Y-67877485D01*
X136251744Y-72861819D02*
X136061268Y-72861819D01*
X136061268Y-72861819D02*
X135966030Y-72909438D01*
X135966030Y-72909438D02*
X135870792Y-73004676D01*
X135870792Y-73004676D02*
X135823173Y-73195152D01*
X135823173Y-73195152D02*
X135823173Y-73528485D01*
X135823173Y-73528485D02*
X135870792Y-73718961D01*
X135870792Y-73718961D02*
X135966030Y-73814200D01*
X135966030Y-73814200D02*
X136061268Y-73861819D01*
X136061268Y-73861819D02*
X136251744Y-73861819D01*
X136251744Y-73861819D02*
X136346982Y-73814200D01*
X136346982Y-73814200D02*
X136442220Y-73718961D01*
X136442220Y-73718961D02*
X136489839Y-73528485D01*
X136489839Y-73528485D02*
X136489839Y-73195152D01*
X136489839Y-73195152D02*
X136442220Y-73004676D01*
X136442220Y-73004676D02*
X136346982Y-72909438D01*
X136346982Y-72909438D02*
X136251744Y-72861819D01*
X135394601Y-73861819D02*
X135394601Y-73195152D01*
X135394601Y-73385628D02*
X135346982Y-73290390D01*
X135346982Y-73290390D02*
X135299363Y-73242771D01*
X135299363Y-73242771D02*
X135204125Y-73195152D01*
X135204125Y-73195152D02*
X135108887Y-73195152D01*
X134775553Y-73861819D02*
X134775553Y-73195152D01*
X134775553Y-72861819D02*
X134823172Y-72909438D01*
X134823172Y-72909438D02*
X134775553Y-72957057D01*
X134775553Y-72957057D02*
X134727934Y-72909438D01*
X134727934Y-72909438D02*
X134775553Y-72861819D01*
X134775553Y-72861819D02*
X134775553Y-72957057D01*
X133870792Y-73195152D02*
X133870792Y-74004676D01*
X133870792Y-74004676D02*
X133918411Y-74099914D01*
X133918411Y-74099914D02*
X133966030Y-74147533D01*
X133966030Y-74147533D02*
X134061268Y-74195152D01*
X134061268Y-74195152D02*
X134204125Y-74195152D01*
X134204125Y-74195152D02*
X134299363Y-74147533D01*
X133870792Y-73814200D02*
X133966030Y-73861819D01*
X133966030Y-73861819D02*
X134156506Y-73861819D01*
X134156506Y-73861819D02*
X134251744Y-73814200D01*
X134251744Y-73814200D02*
X134299363Y-73766580D01*
X134299363Y-73766580D02*
X134346982Y-73671342D01*
X134346982Y-73671342D02*
X134346982Y-73385628D01*
X134346982Y-73385628D02*
X134299363Y-73290390D01*
X134299363Y-73290390D02*
X134251744Y-73242771D01*
X134251744Y-73242771D02*
X134156506Y-73195152D01*
X134156506Y-73195152D02*
X133966030Y-73195152D01*
X133966030Y-73195152D02*
X133870792Y-73242771D01*
X133394601Y-73861819D02*
X133394601Y-73195152D01*
X133394601Y-72861819D02*
X133442220Y-72909438D01*
X133442220Y-72909438D02*
X133394601Y-72957057D01*
X133394601Y-72957057D02*
X133346982Y-72909438D01*
X133346982Y-72909438D02*
X133394601Y-72861819D01*
X133394601Y-72861819D02*
X133394601Y-72957057D01*
X132918411Y-73195152D02*
X132918411Y-73861819D01*
X132918411Y-73290390D02*
X132870792Y-73242771D01*
X132870792Y-73242771D02*
X132775554Y-73195152D01*
X132775554Y-73195152D02*
X132632697Y-73195152D01*
X132632697Y-73195152D02*
X132537459Y-73242771D01*
X132537459Y-73242771D02*
X132489840Y-73338009D01*
X132489840Y-73338009D02*
X132489840Y-73861819D01*
X131585078Y-73861819D02*
X131585078Y-73338009D01*
X131585078Y-73338009D02*
X131632697Y-73242771D01*
X131632697Y-73242771D02*
X131727935Y-73195152D01*
X131727935Y-73195152D02*
X131918411Y-73195152D01*
X131918411Y-73195152D02*
X132013649Y-73242771D01*
X131585078Y-73814200D02*
X131680316Y-73861819D01*
X131680316Y-73861819D02*
X131918411Y-73861819D01*
X131918411Y-73861819D02*
X132013649Y-73814200D01*
X132013649Y-73814200D02*
X132061268Y-73718961D01*
X132061268Y-73718961D02*
X132061268Y-73623723D01*
X132061268Y-73623723D02*
X132013649Y-73528485D01*
X132013649Y-73528485D02*
X131918411Y-73480866D01*
X131918411Y-73480866D02*
X131680316Y-73480866D01*
X131680316Y-73480866D02*
X131585078Y-73433247D01*
X130966030Y-73861819D02*
X131061268Y-73814200D01*
X131061268Y-73814200D02*
X131108887Y-73718961D01*
X131108887Y-73718961D02*
X131108887Y-72861819D01*
X129251744Y-73766580D02*
X129299363Y-73814200D01*
X129299363Y-73814200D02*
X129442220Y-73861819D01*
X129442220Y-73861819D02*
X129537458Y-73861819D01*
X129537458Y-73861819D02*
X129680315Y-73814200D01*
X129680315Y-73814200D02*
X129775553Y-73718961D01*
X129775553Y-73718961D02*
X129823172Y-73623723D01*
X129823172Y-73623723D02*
X129870791Y-73433247D01*
X129870791Y-73433247D02*
X129870791Y-73290390D01*
X129870791Y-73290390D02*
X129823172Y-73099914D01*
X129823172Y-73099914D02*
X129775553Y-73004676D01*
X129775553Y-73004676D02*
X129680315Y-72909438D01*
X129680315Y-72909438D02*
X129537458Y-72861819D01*
X129537458Y-72861819D02*
X129442220Y-72861819D01*
X129442220Y-72861819D02*
X129299363Y-72909438D01*
X129299363Y-72909438D02*
X129251744Y-72957057D01*
X128823172Y-73861819D02*
X128823172Y-73195152D01*
X128823172Y-72861819D02*
X128870791Y-72909438D01*
X128870791Y-72909438D02*
X128823172Y-72957057D01*
X128823172Y-72957057D02*
X128775553Y-72909438D01*
X128775553Y-72909438D02*
X128823172Y-72861819D01*
X128823172Y-72861819D02*
X128823172Y-72957057D01*
X128346982Y-73861819D02*
X128346982Y-73195152D01*
X128346982Y-73385628D02*
X128299363Y-73290390D01*
X128299363Y-73290390D02*
X128251744Y-73242771D01*
X128251744Y-73242771D02*
X128156506Y-73195152D01*
X128156506Y-73195152D02*
X128061268Y-73195152D01*
X127299363Y-73814200D02*
X127394601Y-73861819D01*
X127394601Y-73861819D02*
X127585077Y-73861819D01*
X127585077Y-73861819D02*
X127680315Y-73814200D01*
X127680315Y-73814200D02*
X127727934Y-73766580D01*
X127727934Y-73766580D02*
X127775553Y-73671342D01*
X127775553Y-73671342D02*
X127775553Y-73385628D01*
X127775553Y-73385628D02*
X127727934Y-73290390D01*
X127727934Y-73290390D02*
X127680315Y-73242771D01*
X127680315Y-73242771D02*
X127585077Y-73195152D01*
X127585077Y-73195152D02*
X127394601Y-73195152D01*
X127394601Y-73195152D02*
X127299363Y-73242771D01*
X126442220Y-73195152D02*
X126442220Y-73861819D01*
X126870791Y-73195152D02*
X126870791Y-73718961D01*
X126870791Y-73718961D02*
X126823172Y-73814200D01*
X126823172Y-73814200D02*
X126727934Y-73861819D01*
X126727934Y-73861819D02*
X126585077Y-73861819D01*
X126585077Y-73861819D02*
X126489839Y-73814200D01*
X126489839Y-73814200D02*
X126442220Y-73766580D01*
X125966029Y-73861819D02*
X125966029Y-73195152D01*
X125966029Y-72861819D02*
X126013648Y-72909438D01*
X126013648Y-72909438D02*
X125966029Y-72957057D01*
X125966029Y-72957057D02*
X125918410Y-72909438D01*
X125918410Y-72909438D02*
X125966029Y-72861819D01*
X125966029Y-72861819D02*
X125966029Y-72957057D01*
X125632696Y-73195152D02*
X125251744Y-73195152D01*
X125489839Y-72861819D02*
X125489839Y-73718961D01*
X125489839Y-73718961D02*
X125442220Y-73814200D01*
X125442220Y-73814200D02*
X125346982Y-73861819D01*
X125346982Y-73861819D02*
X125251744Y-73861819D01*
X124156505Y-73861819D02*
X124156505Y-72861819D01*
X124156505Y-72861819D02*
X123918410Y-72861819D01*
X123918410Y-72861819D02*
X123775553Y-72909438D01*
X123775553Y-72909438D02*
X123680315Y-73004676D01*
X123680315Y-73004676D02*
X123632696Y-73099914D01*
X123632696Y-73099914D02*
X123585077Y-73290390D01*
X123585077Y-73290390D02*
X123585077Y-73433247D01*
X123585077Y-73433247D02*
X123632696Y-73623723D01*
X123632696Y-73623723D02*
X123680315Y-73718961D01*
X123680315Y-73718961D02*
X123775553Y-73814200D01*
X123775553Y-73814200D02*
X123918410Y-73861819D01*
X123918410Y-73861819D02*
X124156505Y-73861819D01*
X122775553Y-73814200D02*
X122870791Y-73861819D01*
X122870791Y-73861819D02*
X123061267Y-73861819D01*
X123061267Y-73861819D02*
X123156505Y-73814200D01*
X123156505Y-73814200D02*
X123204124Y-73718961D01*
X123204124Y-73718961D02*
X123204124Y-73338009D01*
X123204124Y-73338009D02*
X123156505Y-73242771D01*
X123156505Y-73242771D02*
X123061267Y-73195152D01*
X123061267Y-73195152D02*
X122870791Y-73195152D01*
X122870791Y-73195152D02*
X122775553Y-73242771D01*
X122775553Y-73242771D02*
X122727934Y-73338009D01*
X122727934Y-73338009D02*
X122727934Y-73433247D01*
X122727934Y-73433247D02*
X123204124Y-73528485D01*
X122346981Y-73814200D02*
X122251743Y-73861819D01*
X122251743Y-73861819D02*
X122061267Y-73861819D01*
X122061267Y-73861819D02*
X121966029Y-73814200D01*
X121966029Y-73814200D02*
X121918410Y-73718961D01*
X121918410Y-73718961D02*
X121918410Y-73671342D01*
X121918410Y-73671342D02*
X121966029Y-73576104D01*
X121966029Y-73576104D02*
X122061267Y-73528485D01*
X122061267Y-73528485D02*
X122204124Y-73528485D01*
X122204124Y-73528485D02*
X122299362Y-73480866D01*
X122299362Y-73480866D02*
X122346981Y-73385628D01*
X122346981Y-73385628D02*
X122346981Y-73338009D01*
X122346981Y-73338009D02*
X122299362Y-73242771D01*
X122299362Y-73242771D02*
X122204124Y-73195152D01*
X122204124Y-73195152D02*
X122061267Y-73195152D01*
X122061267Y-73195152D02*
X121966029Y-73242771D01*
X121489838Y-73861819D02*
X121489838Y-73195152D01*
X121489838Y-72861819D02*
X121537457Y-72909438D01*
X121537457Y-72909438D02*
X121489838Y-72957057D01*
X121489838Y-72957057D02*
X121442219Y-72909438D01*
X121442219Y-72909438D02*
X121489838Y-72861819D01*
X121489838Y-72861819D02*
X121489838Y-72957057D01*
X120585077Y-73195152D02*
X120585077Y-74004676D01*
X120585077Y-74004676D02*
X120632696Y-74099914D01*
X120632696Y-74099914D02*
X120680315Y-74147533D01*
X120680315Y-74147533D02*
X120775553Y-74195152D01*
X120775553Y-74195152D02*
X120918410Y-74195152D01*
X120918410Y-74195152D02*
X121013648Y-74147533D01*
X120585077Y-73814200D02*
X120680315Y-73861819D01*
X120680315Y-73861819D02*
X120870791Y-73861819D01*
X120870791Y-73861819D02*
X120966029Y-73814200D01*
X120966029Y-73814200D02*
X121013648Y-73766580D01*
X121013648Y-73766580D02*
X121061267Y-73671342D01*
X121061267Y-73671342D02*
X121061267Y-73385628D01*
X121061267Y-73385628D02*
X121013648Y-73290390D01*
X121013648Y-73290390D02*
X120966029Y-73242771D01*
X120966029Y-73242771D02*
X120870791Y-73195152D01*
X120870791Y-73195152D02*
X120680315Y-73195152D01*
X120680315Y-73195152D02*
X120585077Y-73242771D01*
X120108886Y-73195152D02*
X120108886Y-73861819D01*
X120108886Y-73290390D02*
X120061267Y-73242771D01*
X120061267Y-73242771D02*
X119966029Y-73195152D01*
X119966029Y-73195152D02*
X119823172Y-73195152D01*
X119823172Y-73195152D02*
X119727934Y-73242771D01*
X119727934Y-73242771D02*
X119680315Y-73338009D01*
X119680315Y-73338009D02*
X119680315Y-73861819D01*
X119204124Y-73766580D02*
X119156505Y-73814200D01*
X119156505Y-73814200D02*
X119204124Y-73861819D01*
X119204124Y-73861819D02*
X119251743Y-73814200D01*
X119251743Y-73814200D02*
X119204124Y-73766580D01*
X119204124Y-73766580D02*
X119204124Y-73861819D01*
X119204124Y-73242771D02*
X119156505Y-73290390D01*
X119156505Y-73290390D02*
X119204124Y-73338009D01*
X119204124Y-73338009D02*
X119251743Y-73290390D01*
X119251743Y-73290390D02*
X119204124Y-73242771D01*
X119204124Y-73242771D02*
X119204124Y-73338009D01*
X136442220Y-75471819D02*
X136442220Y-74471819D01*
X136442220Y-74471819D02*
X135870792Y-75471819D01*
X135870792Y-75471819D02*
X135870792Y-74471819D01*
X135394601Y-75471819D02*
X135394601Y-74805152D01*
X135394601Y-74471819D02*
X135442220Y-74519438D01*
X135442220Y-74519438D02*
X135394601Y-74567057D01*
X135394601Y-74567057D02*
X135346982Y-74519438D01*
X135346982Y-74519438D02*
X135394601Y-74471819D01*
X135394601Y-74471819D02*
X135394601Y-74567057D01*
X134489840Y-74805152D02*
X134489840Y-75614676D01*
X134489840Y-75614676D02*
X134537459Y-75709914D01*
X134537459Y-75709914D02*
X134585078Y-75757533D01*
X134585078Y-75757533D02*
X134680316Y-75805152D01*
X134680316Y-75805152D02*
X134823173Y-75805152D01*
X134823173Y-75805152D02*
X134918411Y-75757533D01*
X134489840Y-75424200D02*
X134585078Y-75471819D01*
X134585078Y-75471819D02*
X134775554Y-75471819D01*
X134775554Y-75471819D02*
X134870792Y-75424200D01*
X134870792Y-75424200D02*
X134918411Y-75376580D01*
X134918411Y-75376580D02*
X134966030Y-75281342D01*
X134966030Y-75281342D02*
X134966030Y-74995628D01*
X134966030Y-74995628D02*
X134918411Y-74900390D01*
X134918411Y-74900390D02*
X134870792Y-74852771D01*
X134870792Y-74852771D02*
X134775554Y-74805152D01*
X134775554Y-74805152D02*
X134585078Y-74805152D01*
X134585078Y-74805152D02*
X134489840Y-74852771D01*
X134013649Y-75471819D02*
X134013649Y-74471819D01*
X133585078Y-75471819D02*
X133585078Y-74948009D01*
X133585078Y-74948009D02*
X133632697Y-74852771D01*
X133632697Y-74852771D02*
X133727935Y-74805152D01*
X133727935Y-74805152D02*
X133870792Y-74805152D01*
X133870792Y-74805152D02*
X133966030Y-74852771D01*
X133966030Y-74852771D02*
X134013649Y-74900390D01*
X133251744Y-74805152D02*
X132870792Y-74805152D01*
X133108887Y-74471819D02*
X133108887Y-75328961D01*
X133108887Y-75328961D02*
X133061268Y-75424200D01*
X133061268Y-75424200D02*
X132966030Y-75471819D01*
X132966030Y-75471819D02*
X132870792Y-75471819D01*
X132632696Y-74471819D02*
X132394601Y-75471819D01*
X132394601Y-75471819D02*
X132204125Y-74757533D01*
X132204125Y-74757533D02*
X132013649Y-75471819D01*
X132013649Y-75471819D02*
X131775554Y-74471819D01*
X131251744Y-75471819D02*
X131346982Y-75424200D01*
X131346982Y-75424200D02*
X131394601Y-75376580D01*
X131394601Y-75376580D02*
X131442220Y-75281342D01*
X131442220Y-75281342D02*
X131442220Y-74995628D01*
X131442220Y-74995628D02*
X131394601Y-74900390D01*
X131394601Y-74900390D02*
X131346982Y-74852771D01*
X131346982Y-74852771D02*
X131251744Y-74805152D01*
X131251744Y-74805152D02*
X131108887Y-74805152D01*
X131108887Y-74805152D02*
X131013649Y-74852771D01*
X131013649Y-74852771D02*
X130966030Y-74900390D01*
X130966030Y-74900390D02*
X130918411Y-74995628D01*
X130918411Y-74995628D02*
X130918411Y-75281342D01*
X130918411Y-75281342D02*
X130966030Y-75376580D01*
X130966030Y-75376580D02*
X131013649Y-75424200D01*
X131013649Y-75424200D02*
X131108887Y-75471819D01*
X131108887Y-75471819D02*
X131251744Y-75471819D01*
X130346982Y-75471819D02*
X130442220Y-75424200D01*
X130442220Y-75424200D02*
X130489839Y-75328961D01*
X130489839Y-75328961D02*
X130489839Y-74471819D01*
X130061267Y-74805152D02*
X129823172Y-75471819D01*
X129823172Y-75471819D02*
X129585077Y-74805152D01*
X128823172Y-75424200D02*
X128918410Y-75471819D01*
X128918410Y-75471819D02*
X129108886Y-75471819D01*
X129108886Y-75471819D02*
X129204124Y-75424200D01*
X129204124Y-75424200D02*
X129251743Y-75328961D01*
X129251743Y-75328961D02*
X129251743Y-74948009D01*
X129251743Y-74948009D02*
X129204124Y-74852771D01*
X129204124Y-74852771D02*
X129108886Y-74805152D01*
X129108886Y-74805152D02*
X128918410Y-74805152D01*
X128918410Y-74805152D02*
X128823172Y-74852771D01*
X128823172Y-74852771D02*
X128775553Y-74948009D01*
X128775553Y-74948009D02*
X128775553Y-75043247D01*
X128775553Y-75043247D02*
X129251743Y-75138485D01*
X127299362Y-75852771D02*
X127346981Y-75805152D01*
X127346981Y-75805152D02*
X127442219Y-75662295D01*
X127442219Y-75662295D02*
X127489838Y-75567057D01*
X127489838Y-75567057D02*
X127537457Y-75424200D01*
X127537457Y-75424200D02*
X127585076Y-75186104D01*
X127585076Y-75186104D02*
X127585076Y-74995628D01*
X127585076Y-74995628D02*
X127537457Y-74757533D01*
X127537457Y-74757533D02*
X127489838Y-74614676D01*
X127489838Y-74614676D02*
X127442219Y-74519438D01*
X127442219Y-74519438D02*
X127346981Y-74376580D01*
X127346981Y-74376580D02*
X127299362Y-74328961D01*
X126918409Y-75471819D02*
X126918409Y-74471819D01*
X126918409Y-74471819D02*
X126346981Y-75471819D01*
X126346981Y-75471819D02*
X126346981Y-74471819D01*
X125870790Y-75471819D02*
X125870790Y-74805152D01*
X125870790Y-74471819D02*
X125918409Y-74519438D01*
X125918409Y-74519438D02*
X125870790Y-74567057D01*
X125870790Y-74567057D02*
X125823171Y-74519438D01*
X125823171Y-74519438D02*
X125870790Y-74471819D01*
X125870790Y-74471819D02*
X125870790Y-74567057D01*
X124966029Y-75424200D02*
X125061267Y-75471819D01*
X125061267Y-75471819D02*
X125251743Y-75471819D01*
X125251743Y-75471819D02*
X125346981Y-75424200D01*
X125346981Y-75424200D02*
X125394600Y-75376580D01*
X125394600Y-75376580D02*
X125442219Y-75281342D01*
X125442219Y-75281342D02*
X125442219Y-74995628D01*
X125442219Y-74995628D02*
X125394600Y-74900390D01*
X125394600Y-74900390D02*
X125346981Y-74852771D01*
X125346981Y-74852771D02*
X125251743Y-74805152D01*
X125251743Y-74805152D02*
X125061267Y-74805152D01*
X125061267Y-74805152D02*
X124966029Y-74852771D01*
X124537457Y-75471819D02*
X124537457Y-74471819D01*
X124108886Y-75471819D02*
X124108886Y-74948009D01*
X124108886Y-74948009D02*
X124156505Y-74852771D01*
X124156505Y-74852771D02*
X124251743Y-74805152D01*
X124251743Y-74805152D02*
X124394600Y-74805152D01*
X124394600Y-74805152D02*
X124489838Y-74852771D01*
X124489838Y-74852771D02*
X124537457Y-74900390D01*
X123489838Y-75471819D02*
X123585076Y-75424200D01*
X123585076Y-75424200D02*
X123632695Y-75376580D01*
X123632695Y-75376580D02*
X123680314Y-75281342D01*
X123680314Y-75281342D02*
X123680314Y-74995628D01*
X123680314Y-74995628D02*
X123632695Y-74900390D01*
X123632695Y-74900390D02*
X123585076Y-74852771D01*
X123585076Y-74852771D02*
X123489838Y-74805152D01*
X123489838Y-74805152D02*
X123346981Y-74805152D01*
X123346981Y-74805152D02*
X123251743Y-74852771D01*
X123251743Y-74852771D02*
X123204124Y-74900390D01*
X123204124Y-74900390D02*
X123156505Y-74995628D01*
X123156505Y-74995628D02*
X123156505Y-75281342D01*
X123156505Y-75281342D02*
X123204124Y-75376580D01*
X123204124Y-75376580D02*
X123251743Y-75424200D01*
X123251743Y-75424200D02*
X123346981Y-75471819D01*
X123346981Y-75471819D02*
X123489838Y-75471819D01*
X122585076Y-75471819D02*
X122680314Y-75424200D01*
X122680314Y-75424200D02*
X122727933Y-75328961D01*
X122727933Y-75328961D02*
X122727933Y-74471819D01*
X121775552Y-75471819D02*
X121775552Y-74948009D01*
X121775552Y-74948009D02*
X121823171Y-74852771D01*
X121823171Y-74852771D02*
X121918409Y-74805152D01*
X121918409Y-74805152D02*
X122108885Y-74805152D01*
X122108885Y-74805152D02*
X122204123Y-74852771D01*
X121775552Y-75424200D02*
X121870790Y-75471819D01*
X121870790Y-75471819D02*
X122108885Y-75471819D01*
X122108885Y-75471819D02*
X122204123Y-75424200D01*
X122204123Y-75424200D02*
X122251742Y-75328961D01*
X122251742Y-75328961D02*
X122251742Y-75233723D01*
X122251742Y-75233723D02*
X122204123Y-75138485D01*
X122204123Y-75138485D02*
X122108885Y-75090866D01*
X122108885Y-75090866D02*
X121870790Y-75090866D01*
X121870790Y-75090866D02*
X121775552Y-75043247D01*
X121346980Y-75424200D02*
X121251742Y-75471819D01*
X121251742Y-75471819D02*
X121061266Y-75471819D01*
X121061266Y-75471819D02*
X120966028Y-75424200D01*
X120966028Y-75424200D02*
X120918409Y-75328961D01*
X120918409Y-75328961D02*
X120918409Y-75281342D01*
X120918409Y-75281342D02*
X120966028Y-75186104D01*
X120966028Y-75186104D02*
X121061266Y-75138485D01*
X121061266Y-75138485D02*
X121204123Y-75138485D01*
X121204123Y-75138485D02*
X121299361Y-75090866D01*
X121299361Y-75090866D02*
X121346980Y-74995628D01*
X121346980Y-74995628D02*
X121346980Y-74948009D01*
X121346980Y-74948009D02*
X121299361Y-74852771D01*
X121299361Y-74852771D02*
X121204123Y-74805152D01*
X121204123Y-74805152D02*
X121061266Y-74805152D01*
X121061266Y-74805152D02*
X120966028Y-74852771D01*
X119251742Y-75471819D02*
X119727932Y-75471819D01*
X119727932Y-75471819D02*
X119727932Y-74471819D01*
X118918408Y-75471819D02*
X118918408Y-74805152D01*
X118918408Y-74471819D02*
X118966027Y-74519438D01*
X118966027Y-74519438D02*
X118918408Y-74567057D01*
X118918408Y-74567057D02*
X118870789Y-74519438D01*
X118870789Y-74519438D02*
X118918408Y-74471819D01*
X118918408Y-74471819D02*
X118918408Y-74567057D01*
X118537456Y-74805152D02*
X118299361Y-75471819D01*
X118299361Y-75471819D02*
X118061266Y-74805152D01*
X117251742Y-75471819D02*
X117251742Y-74948009D01*
X117251742Y-74948009D02*
X117299361Y-74852771D01*
X117299361Y-74852771D02*
X117394599Y-74805152D01*
X117394599Y-74805152D02*
X117585075Y-74805152D01*
X117585075Y-74805152D02*
X117680313Y-74852771D01*
X117251742Y-75424200D02*
X117346980Y-75471819D01*
X117346980Y-75471819D02*
X117585075Y-75471819D01*
X117585075Y-75471819D02*
X117680313Y-75424200D01*
X117680313Y-75424200D02*
X117727932Y-75328961D01*
X117727932Y-75328961D02*
X117727932Y-75233723D01*
X117727932Y-75233723D02*
X117680313Y-75138485D01*
X117680313Y-75138485D02*
X117585075Y-75090866D01*
X117585075Y-75090866D02*
X117346980Y-75090866D01*
X117346980Y-75090866D02*
X117251742Y-75043247D01*
X116346980Y-75471819D02*
X116346980Y-74471819D01*
X116346980Y-75424200D02*
X116442218Y-75471819D01*
X116442218Y-75471819D02*
X116632694Y-75471819D01*
X116632694Y-75471819D02*
X116727932Y-75424200D01*
X116727932Y-75424200D02*
X116775551Y-75376580D01*
X116775551Y-75376580D02*
X116823170Y-75281342D01*
X116823170Y-75281342D02*
X116823170Y-74995628D01*
X116823170Y-74995628D02*
X116775551Y-74900390D01*
X116775551Y-74900390D02*
X116727932Y-74852771D01*
X116727932Y-74852771D02*
X116632694Y-74805152D01*
X116632694Y-74805152D02*
X116442218Y-74805152D01*
X116442218Y-74805152D02*
X116346980Y-74852771D01*
X115870789Y-75471819D02*
X115870789Y-74805152D01*
X115870789Y-74471819D02*
X115918408Y-74519438D01*
X115918408Y-74519438D02*
X115870789Y-74567057D01*
X115870789Y-74567057D02*
X115823170Y-74519438D01*
X115823170Y-74519438D02*
X115870789Y-74471819D01*
X115870789Y-74471819D02*
X115870789Y-74567057D01*
X115537456Y-74805152D02*
X115156504Y-74805152D01*
X115394599Y-74471819D02*
X115394599Y-75328961D01*
X115394599Y-75328961D02*
X115346980Y-75424200D01*
X115346980Y-75424200D02*
X115251742Y-75471819D01*
X115251742Y-75471819D02*
X115156504Y-75471819D01*
X114823170Y-75471819D02*
X114823170Y-74805152D01*
X114823170Y-74471819D02*
X114870789Y-74519438D01*
X114870789Y-74519438D02*
X114823170Y-74567057D01*
X114823170Y-74567057D02*
X114775551Y-74519438D01*
X114775551Y-74519438D02*
X114823170Y-74471819D01*
X114823170Y-74471819D02*
X114823170Y-74567057D01*
X114394599Y-75424200D02*
X114299361Y-75471819D01*
X114299361Y-75471819D02*
X114108885Y-75471819D01*
X114108885Y-75471819D02*
X114013647Y-75424200D01*
X114013647Y-75424200D02*
X113966028Y-75328961D01*
X113966028Y-75328961D02*
X113966028Y-75281342D01*
X113966028Y-75281342D02*
X114013647Y-75186104D01*
X114013647Y-75186104D02*
X114108885Y-75138485D01*
X114108885Y-75138485D02*
X114251742Y-75138485D01*
X114251742Y-75138485D02*
X114346980Y-75090866D01*
X114346980Y-75090866D02*
X114394599Y-74995628D01*
X114394599Y-74995628D02*
X114394599Y-74948009D01*
X114394599Y-74948009D02*
X114346980Y-74852771D01*
X114346980Y-74852771D02*
X114251742Y-74805152D01*
X114251742Y-74805152D02*
X114108885Y-74805152D01*
X114108885Y-74805152D02*
X114013647Y-74852771D01*
X113632694Y-75852771D02*
X113585075Y-75805152D01*
X113585075Y-75805152D02*
X113489837Y-75662295D01*
X113489837Y-75662295D02*
X113442218Y-75567057D01*
X113442218Y-75567057D02*
X113394599Y-75424200D01*
X113394599Y-75424200D02*
X113346980Y-75186104D01*
X113346980Y-75186104D02*
X113346980Y-74995628D01*
X113346980Y-74995628D02*
X113394599Y-74757533D01*
X113394599Y-74757533D02*
X113442218Y-74614676D01*
X113442218Y-74614676D02*
X113489837Y-74519438D01*
X113489837Y-74519438D02*
X113585075Y-74376580D01*
X113585075Y-74376580D02*
X113632694Y-74328961D01*
X136251744Y-79301819D02*
X136061268Y-79301819D01*
X136061268Y-79301819D02*
X135966030Y-79349438D01*
X135966030Y-79349438D02*
X135870792Y-79444676D01*
X135870792Y-79444676D02*
X135823173Y-79635152D01*
X135823173Y-79635152D02*
X135823173Y-79968485D01*
X135823173Y-79968485D02*
X135870792Y-80158961D01*
X135870792Y-80158961D02*
X135966030Y-80254200D01*
X135966030Y-80254200D02*
X136061268Y-80301819D01*
X136061268Y-80301819D02*
X136251744Y-80301819D01*
X136251744Y-80301819D02*
X136346982Y-80254200D01*
X136346982Y-80254200D02*
X136442220Y-80158961D01*
X136442220Y-80158961D02*
X136489839Y-79968485D01*
X136489839Y-79968485D02*
X136489839Y-79635152D01*
X136489839Y-79635152D02*
X136442220Y-79444676D01*
X136442220Y-79444676D02*
X136346982Y-79349438D01*
X136346982Y-79349438D02*
X136251744Y-79301819D01*
X135537458Y-79635152D02*
X135156506Y-79635152D01*
X135394601Y-79301819D02*
X135394601Y-80158961D01*
X135394601Y-80158961D02*
X135346982Y-80254200D01*
X135346982Y-80254200D02*
X135251744Y-80301819D01*
X135251744Y-80301819D02*
X135156506Y-80301819D01*
X134823172Y-80301819D02*
X134823172Y-79301819D01*
X134394601Y-80301819D02*
X134394601Y-79778009D01*
X134394601Y-79778009D02*
X134442220Y-79682771D01*
X134442220Y-79682771D02*
X134537458Y-79635152D01*
X134537458Y-79635152D02*
X134680315Y-79635152D01*
X134680315Y-79635152D02*
X134775553Y-79682771D01*
X134775553Y-79682771D02*
X134823172Y-79730390D01*
X133537458Y-80254200D02*
X133632696Y-80301819D01*
X133632696Y-80301819D02*
X133823172Y-80301819D01*
X133823172Y-80301819D02*
X133918410Y-80254200D01*
X133918410Y-80254200D02*
X133966029Y-80158961D01*
X133966029Y-80158961D02*
X133966029Y-79778009D01*
X133966029Y-79778009D02*
X133918410Y-79682771D01*
X133918410Y-79682771D02*
X133823172Y-79635152D01*
X133823172Y-79635152D02*
X133632696Y-79635152D01*
X133632696Y-79635152D02*
X133537458Y-79682771D01*
X133537458Y-79682771D02*
X133489839Y-79778009D01*
X133489839Y-79778009D02*
X133489839Y-79873247D01*
X133489839Y-79873247D02*
X133966029Y-79968485D01*
X133061267Y-80301819D02*
X133061267Y-79635152D01*
X133061267Y-79825628D02*
X133013648Y-79730390D01*
X133013648Y-79730390D02*
X132966029Y-79682771D01*
X132966029Y-79682771D02*
X132870791Y-79635152D01*
X132870791Y-79635152D02*
X132775553Y-79635152D01*
X131108886Y-80206580D02*
X131156505Y-80254200D01*
X131156505Y-80254200D02*
X131299362Y-80301819D01*
X131299362Y-80301819D02*
X131394600Y-80301819D01*
X131394600Y-80301819D02*
X131537457Y-80254200D01*
X131537457Y-80254200D02*
X131632695Y-80158961D01*
X131632695Y-80158961D02*
X131680314Y-80063723D01*
X131680314Y-80063723D02*
X131727933Y-79873247D01*
X131727933Y-79873247D02*
X131727933Y-79730390D01*
X131727933Y-79730390D02*
X131680314Y-79539914D01*
X131680314Y-79539914D02*
X131632695Y-79444676D01*
X131632695Y-79444676D02*
X131537457Y-79349438D01*
X131537457Y-79349438D02*
X131394600Y-79301819D01*
X131394600Y-79301819D02*
X131299362Y-79301819D01*
X131299362Y-79301819D02*
X131156505Y-79349438D01*
X131156505Y-79349438D02*
X131108886Y-79397057D01*
X130680314Y-80301819D02*
X130680314Y-79635152D01*
X130680314Y-79825628D02*
X130632695Y-79730390D01*
X130632695Y-79730390D02*
X130585076Y-79682771D01*
X130585076Y-79682771D02*
X130489838Y-79635152D01*
X130489838Y-79635152D02*
X130394600Y-79635152D01*
X129680314Y-80254200D02*
X129775552Y-80301819D01*
X129775552Y-80301819D02*
X129966028Y-80301819D01*
X129966028Y-80301819D02*
X130061266Y-80254200D01*
X130061266Y-80254200D02*
X130108885Y-80158961D01*
X130108885Y-80158961D02*
X130108885Y-79778009D01*
X130108885Y-79778009D02*
X130061266Y-79682771D01*
X130061266Y-79682771D02*
X129966028Y-79635152D01*
X129966028Y-79635152D02*
X129775552Y-79635152D01*
X129775552Y-79635152D02*
X129680314Y-79682771D01*
X129680314Y-79682771D02*
X129632695Y-79778009D01*
X129632695Y-79778009D02*
X129632695Y-79873247D01*
X129632695Y-79873247D02*
X130108885Y-79968485D01*
X128775552Y-80301819D02*
X128775552Y-79301819D01*
X128775552Y-80254200D02*
X128870790Y-80301819D01*
X128870790Y-80301819D02*
X129061266Y-80301819D01*
X129061266Y-80301819D02*
X129156504Y-80254200D01*
X129156504Y-80254200D02*
X129204123Y-80206580D01*
X129204123Y-80206580D02*
X129251742Y-80111342D01*
X129251742Y-80111342D02*
X129251742Y-79825628D01*
X129251742Y-79825628D02*
X129204123Y-79730390D01*
X129204123Y-79730390D02*
X129156504Y-79682771D01*
X129156504Y-79682771D02*
X129061266Y-79635152D01*
X129061266Y-79635152D02*
X128870790Y-79635152D01*
X128870790Y-79635152D02*
X128775552Y-79682771D01*
X128299361Y-80301819D02*
X128299361Y-79635152D01*
X128299361Y-79301819D02*
X128346980Y-79349438D01*
X128346980Y-79349438D02*
X128299361Y-79397057D01*
X128299361Y-79397057D02*
X128251742Y-79349438D01*
X128251742Y-79349438D02*
X128299361Y-79301819D01*
X128299361Y-79301819D02*
X128299361Y-79397057D01*
X127966028Y-79635152D02*
X127585076Y-79635152D01*
X127823171Y-79301819D02*
X127823171Y-80158961D01*
X127823171Y-80158961D02*
X127775552Y-80254200D01*
X127775552Y-80254200D02*
X127680314Y-80301819D01*
X127680314Y-80301819D02*
X127585076Y-80301819D01*
X127299361Y-80254200D02*
X127204123Y-80301819D01*
X127204123Y-80301819D02*
X127013647Y-80301819D01*
X127013647Y-80301819D02*
X126918409Y-80254200D01*
X126918409Y-80254200D02*
X126870790Y-80158961D01*
X126870790Y-80158961D02*
X126870790Y-80111342D01*
X126870790Y-80111342D02*
X126918409Y-80016104D01*
X126918409Y-80016104D02*
X127013647Y-79968485D01*
X127013647Y-79968485D02*
X127156504Y-79968485D01*
X127156504Y-79968485D02*
X127251742Y-79920866D01*
X127251742Y-79920866D02*
X127299361Y-79825628D01*
X127299361Y-79825628D02*
X127299361Y-79778009D01*
X127299361Y-79778009D02*
X127251742Y-79682771D01*
X127251742Y-79682771D02*
X127156504Y-79635152D01*
X127156504Y-79635152D02*
X127013647Y-79635152D01*
X127013647Y-79635152D02*
X126918409Y-79682771D01*
X126442218Y-80206580D02*
X126394599Y-80254200D01*
X126394599Y-80254200D02*
X126442218Y-80301819D01*
X126442218Y-80301819D02*
X126489837Y-80254200D01*
X126489837Y-80254200D02*
X126442218Y-80206580D01*
X126442218Y-80206580D02*
X126442218Y-80301819D01*
X126442218Y-79682771D02*
X126394599Y-79730390D01*
X126394599Y-79730390D02*
X126442218Y-79778009D01*
X126442218Y-79778009D02*
X126489837Y-79730390D01*
X126489837Y-79730390D02*
X126442218Y-79682771D01*
X126442218Y-79682771D02*
X126442218Y-79778009D01*
X136585077Y-81245152D02*
X136204125Y-81245152D01*
X136442220Y-80911819D02*
X136442220Y-81768961D01*
X136442220Y-81768961D02*
X136394601Y-81864200D01*
X136394601Y-81864200D02*
X136299363Y-81911819D01*
X136299363Y-81911819D02*
X136204125Y-81911819D01*
X135870791Y-81911819D02*
X135870791Y-80911819D01*
X135442220Y-81911819D02*
X135442220Y-81388009D01*
X135442220Y-81388009D02*
X135489839Y-81292771D01*
X135489839Y-81292771D02*
X135585077Y-81245152D01*
X135585077Y-81245152D02*
X135727934Y-81245152D01*
X135727934Y-81245152D02*
X135823172Y-81292771D01*
X135823172Y-81292771D02*
X135870791Y-81340390D01*
X134585077Y-81864200D02*
X134680315Y-81911819D01*
X134680315Y-81911819D02*
X134870791Y-81911819D01*
X134870791Y-81911819D02*
X134966029Y-81864200D01*
X134966029Y-81864200D02*
X135013648Y-81768961D01*
X135013648Y-81768961D02*
X135013648Y-81388009D01*
X135013648Y-81388009D02*
X134966029Y-81292771D01*
X134966029Y-81292771D02*
X134870791Y-81245152D01*
X134870791Y-81245152D02*
X134680315Y-81245152D01*
X134680315Y-81245152D02*
X134585077Y-81292771D01*
X134585077Y-81292771D02*
X134537458Y-81388009D01*
X134537458Y-81388009D02*
X134537458Y-81483247D01*
X134537458Y-81483247D02*
X135013648Y-81578485D01*
X134156505Y-81864200D02*
X134061267Y-81911819D01*
X134061267Y-81911819D02*
X133870791Y-81911819D01*
X133870791Y-81911819D02*
X133775553Y-81864200D01*
X133775553Y-81864200D02*
X133727934Y-81768961D01*
X133727934Y-81768961D02*
X133727934Y-81721342D01*
X133727934Y-81721342D02*
X133775553Y-81626104D01*
X133775553Y-81626104D02*
X133870791Y-81578485D01*
X133870791Y-81578485D02*
X134013648Y-81578485D01*
X134013648Y-81578485D02*
X134108886Y-81530866D01*
X134108886Y-81530866D02*
X134156505Y-81435628D01*
X134156505Y-81435628D02*
X134156505Y-81388009D01*
X134156505Y-81388009D02*
X134108886Y-81292771D01*
X134108886Y-81292771D02*
X134013648Y-81245152D01*
X134013648Y-81245152D02*
X133870791Y-81245152D01*
X133870791Y-81245152D02*
X133775553Y-81292771D01*
X133442219Y-81245152D02*
X133061267Y-81245152D01*
X133299362Y-80911819D02*
X133299362Y-81768961D01*
X133299362Y-81768961D02*
X133251743Y-81864200D01*
X133251743Y-81864200D02*
X133156505Y-81911819D01*
X133156505Y-81911819D02*
X133061267Y-81911819D01*
X132346981Y-81864200D02*
X132442219Y-81911819D01*
X132442219Y-81911819D02*
X132632695Y-81911819D01*
X132632695Y-81911819D02*
X132727933Y-81864200D01*
X132727933Y-81864200D02*
X132775552Y-81768961D01*
X132775552Y-81768961D02*
X132775552Y-81388009D01*
X132775552Y-81388009D02*
X132727933Y-81292771D01*
X132727933Y-81292771D02*
X132632695Y-81245152D01*
X132632695Y-81245152D02*
X132442219Y-81245152D01*
X132442219Y-81245152D02*
X132346981Y-81292771D01*
X132346981Y-81292771D02*
X132299362Y-81388009D01*
X132299362Y-81388009D02*
X132299362Y-81483247D01*
X132299362Y-81483247D02*
X132775552Y-81578485D01*
X131966028Y-81245152D02*
X131727933Y-81911819D01*
X131727933Y-81911819D02*
X131489838Y-81245152D01*
X130727933Y-81864200D02*
X130823171Y-81911819D01*
X130823171Y-81911819D02*
X131013647Y-81911819D01*
X131013647Y-81911819D02*
X131108885Y-81864200D01*
X131108885Y-81864200D02*
X131156504Y-81768961D01*
X131156504Y-81768961D02*
X131156504Y-81388009D01*
X131156504Y-81388009D02*
X131108885Y-81292771D01*
X131108885Y-81292771D02*
X131013647Y-81245152D01*
X131013647Y-81245152D02*
X130823171Y-81245152D01*
X130823171Y-81245152D02*
X130727933Y-81292771D01*
X130727933Y-81292771D02*
X130680314Y-81388009D01*
X130680314Y-81388009D02*
X130680314Y-81483247D01*
X130680314Y-81483247D02*
X131156504Y-81578485D01*
X130204123Y-81864200D02*
X130204123Y-81911819D01*
X130204123Y-81911819D02*
X130251742Y-82007057D01*
X130251742Y-82007057D02*
X130299361Y-82054676D01*
X129013647Y-81911819D02*
X129013647Y-80911819D01*
X129013647Y-80911819D02*
X128775552Y-80911819D01*
X128775552Y-80911819D02*
X128632695Y-80959438D01*
X128632695Y-80959438D02*
X128537457Y-81054676D01*
X128537457Y-81054676D02*
X128489838Y-81149914D01*
X128489838Y-81149914D02*
X128442219Y-81340390D01*
X128442219Y-81340390D02*
X128442219Y-81483247D01*
X128442219Y-81483247D02*
X128489838Y-81673723D01*
X128489838Y-81673723D02*
X128537457Y-81768961D01*
X128537457Y-81768961D02*
X128632695Y-81864200D01*
X128632695Y-81864200D02*
X128775552Y-81911819D01*
X128775552Y-81911819D02*
X129013647Y-81911819D01*
X127585076Y-81245152D02*
X127585076Y-81911819D01*
X128013647Y-81245152D02*
X128013647Y-81768961D01*
X128013647Y-81768961D02*
X127966028Y-81864200D01*
X127966028Y-81864200D02*
X127870790Y-81911819D01*
X127870790Y-81911819D02*
X127727933Y-81911819D01*
X127727933Y-81911819D02*
X127632695Y-81864200D01*
X127632695Y-81864200D02*
X127585076Y-81816580D01*
X126966028Y-81911819D02*
X127061266Y-81864200D01*
X127061266Y-81864200D02*
X127108885Y-81816580D01*
X127108885Y-81816580D02*
X127156504Y-81721342D01*
X127156504Y-81721342D02*
X127156504Y-81435628D01*
X127156504Y-81435628D02*
X127108885Y-81340390D01*
X127108885Y-81340390D02*
X127061266Y-81292771D01*
X127061266Y-81292771D02*
X126966028Y-81245152D01*
X126966028Y-81245152D02*
X126823171Y-81245152D01*
X126823171Y-81245152D02*
X126727933Y-81292771D01*
X126727933Y-81292771D02*
X126680314Y-81340390D01*
X126680314Y-81340390D02*
X126632695Y-81435628D01*
X126632695Y-81435628D02*
X126632695Y-81721342D01*
X126632695Y-81721342D02*
X126680314Y-81816580D01*
X126680314Y-81816580D02*
X126727933Y-81864200D01*
X126727933Y-81864200D02*
X126823171Y-81911819D01*
X126823171Y-81911819D02*
X126966028Y-81911819D01*
X126442219Y-82007057D02*
X125680314Y-82007057D01*
X124870790Y-81911819D02*
X125204123Y-81435628D01*
X125442218Y-81911819D02*
X125442218Y-80911819D01*
X125442218Y-80911819D02*
X125061266Y-80911819D01*
X125061266Y-80911819D02*
X124966028Y-80959438D01*
X124966028Y-80959438D02*
X124918409Y-81007057D01*
X124918409Y-81007057D02*
X124870790Y-81102295D01*
X124870790Y-81102295D02*
X124870790Y-81245152D01*
X124870790Y-81245152D02*
X124918409Y-81340390D01*
X124918409Y-81340390D02*
X124966028Y-81388009D01*
X124966028Y-81388009D02*
X125061266Y-81435628D01*
X125061266Y-81435628D02*
X125442218Y-81435628D01*
X124394599Y-81864200D02*
X124394599Y-81911819D01*
X124394599Y-81911819D02*
X124442218Y-82007057D01*
X124442218Y-82007057D02*
X124489837Y-82054676D01*
X123204123Y-81911819D02*
X123204123Y-80911819D01*
X123204123Y-80911819D02*
X122870790Y-81626104D01*
X122870790Y-81626104D02*
X122537457Y-80911819D01*
X122537457Y-80911819D02*
X122537457Y-81911819D01*
X122061266Y-81911819D02*
X122061266Y-81245152D01*
X122061266Y-80911819D02*
X122108885Y-80959438D01*
X122108885Y-80959438D02*
X122061266Y-81007057D01*
X122061266Y-81007057D02*
X122013647Y-80959438D01*
X122013647Y-80959438D02*
X122061266Y-80911819D01*
X122061266Y-80911819D02*
X122061266Y-81007057D01*
X121156505Y-81864200D02*
X121251743Y-81911819D01*
X121251743Y-81911819D02*
X121442219Y-81911819D01*
X121442219Y-81911819D02*
X121537457Y-81864200D01*
X121537457Y-81864200D02*
X121585076Y-81816580D01*
X121585076Y-81816580D02*
X121632695Y-81721342D01*
X121632695Y-81721342D02*
X121632695Y-81435628D01*
X121632695Y-81435628D02*
X121585076Y-81340390D01*
X121585076Y-81340390D02*
X121537457Y-81292771D01*
X121537457Y-81292771D02*
X121442219Y-81245152D01*
X121442219Y-81245152D02*
X121251743Y-81245152D01*
X121251743Y-81245152D02*
X121156505Y-81292771D01*
X120727933Y-81911819D02*
X120727933Y-80911819D01*
X120299362Y-81911819D02*
X120299362Y-81388009D01*
X120299362Y-81388009D02*
X120346981Y-81292771D01*
X120346981Y-81292771D02*
X120442219Y-81245152D01*
X120442219Y-81245152D02*
X120585076Y-81245152D01*
X120585076Y-81245152D02*
X120680314Y-81292771D01*
X120680314Y-81292771D02*
X120727933Y-81340390D01*
X119394600Y-81911819D02*
X119394600Y-81388009D01*
X119394600Y-81388009D02*
X119442219Y-81292771D01*
X119442219Y-81292771D02*
X119537457Y-81245152D01*
X119537457Y-81245152D02*
X119727933Y-81245152D01*
X119727933Y-81245152D02*
X119823171Y-81292771D01*
X119394600Y-81864200D02*
X119489838Y-81911819D01*
X119489838Y-81911819D02*
X119727933Y-81911819D01*
X119727933Y-81911819D02*
X119823171Y-81864200D01*
X119823171Y-81864200D02*
X119870790Y-81768961D01*
X119870790Y-81768961D02*
X119870790Y-81673723D01*
X119870790Y-81673723D02*
X119823171Y-81578485D01*
X119823171Y-81578485D02*
X119727933Y-81530866D01*
X119727933Y-81530866D02*
X119489838Y-81530866D01*
X119489838Y-81530866D02*
X119394600Y-81483247D01*
X118537457Y-81864200D02*
X118632695Y-81911819D01*
X118632695Y-81911819D02*
X118823171Y-81911819D01*
X118823171Y-81911819D02*
X118918409Y-81864200D01*
X118918409Y-81864200D02*
X118966028Y-81768961D01*
X118966028Y-81768961D02*
X118966028Y-81388009D01*
X118966028Y-81388009D02*
X118918409Y-81292771D01*
X118918409Y-81292771D02*
X118823171Y-81245152D01*
X118823171Y-81245152D02*
X118632695Y-81245152D01*
X118632695Y-81245152D02*
X118537457Y-81292771D01*
X118537457Y-81292771D02*
X118489838Y-81388009D01*
X118489838Y-81388009D02*
X118489838Y-81483247D01*
X118489838Y-81483247D02*
X118966028Y-81578485D01*
X117918409Y-81911819D02*
X118013647Y-81864200D01*
X118013647Y-81864200D02*
X118061266Y-81768961D01*
X118061266Y-81768961D02*
X118061266Y-80911819D01*
X116775551Y-81911819D02*
X116775551Y-80911819D01*
X116775551Y-80911819D02*
X116442218Y-81626104D01*
X116442218Y-81626104D02*
X116108885Y-80911819D01*
X116108885Y-80911819D02*
X116108885Y-81911819D01*
X115489837Y-81911819D02*
X115585075Y-81864200D01*
X115585075Y-81864200D02*
X115632694Y-81816580D01*
X115632694Y-81816580D02*
X115680313Y-81721342D01*
X115680313Y-81721342D02*
X115680313Y-81435628D01*
X115680313Y-81435628D02*
X115632694Y-81340390D01*
X115632694Y-81340390D02*
X115585075Y-81292771D01*
X115585075Y-81292771D02*
X115489837Y-81245152D01*
X115489837Y-81245152D02*
X115346980Y-81245152D01*
X115346980Y-81245152D02*
X115251742Y-81292771D01*
X115251742Y-81292771D02*
X115204123Y-81340390D01*
X115204123Y-81340390D02*
X115156504Y-81435628D01*
X115156504Y-81435628D02*
X115156504Y-81721342D01*
X115156504Y-81721342D02*
X115204123Y-81816580D01*
X115204123Y-81816580D02*
X115251742Y-81864200D01*
X115251742Y-81864200D02*
X115346980Y-81911819D01*
X115346980Y-81911819D02*
X115489837Y-81911819D01*
X114870789Y-81245152D02*
X114489837Y-81245152D01*
X114727932Y-81911819D02*
X114727932Y-81054676D01*
X114727932Y-81054676D02*
X114680313Y-80959438D01*
X114680313Y-80959438D02*
X114585075Y-80911819D01*
X114585075Y-80911819D02*
X114489837Y-80911819D01*
X114299360Y-81245152D02*
X113918408Y-81245152D01*
X114156503Y-81911819D02*
X114156503Y-81054676D01*
X114156503Y-81054676D02*
X114108884Y-80959438D01*
X114108884Y-80959438D02*
X114013646Y-80911819D01*
X114013646Y-80911819D02*
X113918408Y-80911819D01*
X113585074Y-81911819D02*
X113585074Y-81245152D01*
X113585074Y-80911819D02*
X113632693Y-80959438D01*
X113632693Y-80959438D02*
X113585074Y-81007057D01*
X113585074Y-81007057D02*
X113537455Y-80959438D01*
X113537455Y-80959438D02*
X113585074Y-80911819D01*
X113585074Y-80911819D02*
X113585074Y-81007057D01*
X113251741Y-81245152D02*
X112870789Y-81245152D01*
X113108884Y-80911819D02*
X113108884Y-81768961D01*
X113108884Y-81768961D02*
X113061265Y-81864200D01*
X113061265Y-81864200D02*
X112966027Y-81911819D01*
X112966027Y-81911819D02*
X112870789Y-81911819D01*
X112680312Y-81245152D02*
X112299360Y-81245152D01*
X112537455Y-80911819D02*
X112537455Y-81768961D01*
X112537455Y-81768961D02*
X112489836Y-81864200D01*
X112489836Y-81864200D02*
X112394598Y-81911819D01*
X112394598Y-81911819D02*
X112299360Y-81911819D01*
X136616839Y-62728200D02*
X136473982Y-62775819D01*
X136473982Y-62775819D02*
X136235887Y-62775819D01*
X136235887Y-62775819D02*
X136140649Y-62728200D01*
X136140649Y-62728200D02*
X136093030Y-62680580D01*
X136093030Y-62680580D02*
X136045411Y-62585342D01*
X136045411Y-62585342D02*
X136045411Y-62490104D01*
X136045411Y-62490104D02*
X136093030Y-62394866D01*
X136093030Y-62394866D02*
X136140649Y-62347247D01*
X136140649Y-62347247D02*
X136235887Y-62299628D01*
X136235887Y-62299628D02*
X136426363Y-62252009D01*
X136426363Y-62252009D02*
X136521601Y-62204390D01*
X136521601Y-62204390D02*
X136569220Y-62156771D01*
X136569220Y-62156771D02*
X136616839Y-62061533D01*
X136616839Y-62061533D02*
X136616839Y-61966295D01*
X136616839Y-61966295D02*
X136569220Y-61871057D01*
X136569220Y-61871057D02*
X136521601Y-61823438D01*
X136521601Y-61823438D02*
X136426363Y-61775819D01*
X136426363Y-61775819D02*
X136188268Y-61775819D01*
X136188268Y-61775819D02*
X136045411Y-61823438D01*
X135616839Y-62775819D02*
X135616839Y-61775819D01*
X135616839Y-61775819D02*
X135045411Y-62775819D01*
X135045411Y-62775819D02*
X135045411Y-61775819D01*
X134569220Y-62252009D02*
X134235887Y-62252009D01*
X134093030Y-62775819D02*
X134569220Y-62775819D01*
X134569220Y-62775819D02*
X134569220Y-61775819D01*
X134569220Y-61775819D02*
X134093030Y-61775819D01*
X133712077Y-62728200D02*
X133569220Y-62775819D01*
X133569220Y-62775819D02*
X133331125Y-62775819D01*
X133331125Y-62775819D02*
X133235887Y-62728200D01*
X133235887Y-62728200D02*
X133188268Y-62680580D01*
X133188268Y-62680580D02*
X133140649Y-62585342D01*
X133140649Y-62585342D02*
X133140649Y-62490104D01*
X133140649Y-62490104D02*
X133188268Y-62394866D01*
X133188268Y-62394866D02*
X133235887Y-62347247D01*
X133235887Y-62347247D02*
X133331125Y-62299628D01*
X133331125Y-62299628D02*
X133521601Y-62252009D01*
X133521601Y-62252009D02*
X133616839Y-62204390D01*
X133616839Y-62204390D02*
X133664458Y-62156771D01*
X133664458Y-62156771D02*
X133712077Y-62061533D01*
X133712077Y-62061533D02*
X133712077Y-61966295D01*
X133712077Y-61966295D02*
X133664458Y-61871057D01*
X133664458Y-61871057D02*
X133616839Y-61823438D01*
X133616839Y-61823438D02*
X133521601Y-61775819D01*
X133521601Y-61775819D02*
X133283506Y-61775819D01*
X133283506Y-61775819D02*
X133140649Y-61823438D01*
X131997791Y-61775819D02*
X131997791Y-61966295D01*
X131616839Y-61775819D02*
X131616839Y-61966295D01*
X131188267Y-62252009D02*
X130854934Y-62252009D01*
X130712077Y-62775819D02*
X131188267Y-62775819D01*
X131188267Y-62775819D02*
X131188267Y-61775819D01*
X131188267Y-61775819D02*
X130712077Y-61775819D01*
X130283505Y-62109152D02*
X130283505Y-62775819D01*
X130283505Y-62204390D02*
X130235886Y-62156771D01*
X130235886Y-62156771D02*
X130140648Y-62109152D01*
X130140648Y-62109152D02*
X129997791Y-62109152D01*
X129997791Y-62109152D02*
X129902553Y-62156771D01*
X129902553Y-62156771D02*
X129854934Y-62252009D01*
X129854934Y-62252009D02*
X129854934Y-62775819D01*
X129378743Y-62775819D02*
X129378743Y-61775819D01*
X128950172Y-62775819D02*
X128950172Y-62252009D01*
X128950172Y-62252009D02*
X128997791Y-62156771D01*
X128997791Y-62156771D02*
X129093029Y-62109152D01*
X129093029Y-62109152D02*
X129235886Y-62109152D01*
X129235886Y-62109152D02*
X129331124Y-62156771D01*
X129331124Y-62156771D02*
X129378743Y-62204390D01*
X128045410Y-62775819D02*
X128045410Y-62252009D01*
X128045410Y-62252009D02*
X128093029Y-62156771D01*
X128093029Y-62156771D02*
X128188267Y-62109152D01*
X128188267Y-62109152D02*
X128378743Y-62109152D01*
X128378743Y-62109152D02*
X128473981Y-62156771D01*
X128045410Y-62728200D02*
X128140648Y-62775819D01*
X128140648Y-62775819D02*
X128378743Y-62775819D01*
X128378743Y-62775819D02*
X128473981Y-62728200D01*
X128473981Y-62728200D02*
X128521600Y-62632961D01*
X128521600Y-62632961D02*
X128521600Y-62537723D01*
X128521600Y-62537723D02*
X128473981Y-62442485D01*
X128473981Y-62442485D02*
X128378743Y-62394866D01*
X128378743Y-62394866D02*
X128140648Y-62394866D01*
X128140648Y-62394866D02*
X128045410Y-62347247D01*
X127569219Y-62109152D02*
X127569219Y-62775819D01*
X127569219Y-62204390D02*
X127521600Y-62156771D01*
X127521600Y-62156771D02*
X127426362Y-62109152D01*
X127426362Y-62109152D02*
X127283505Y-62109152D01*
X127283505Y-62109152D02*
X127188267Y-62156771D01*
X127188267Y-62156771D02*
X127140648Y-62252009D01*
X127140648Y-62252009D02*
X127140648Y-62775819D01*
X126235886Y-62728200D02*
X126331124Y-62775819D01*
X126331124Y-62775819D02*
X126521600Y-62775819D01*
X126521600Y-62775819D02*
X126616838Y-62728200D01*
X126616838Y-62728200D02*
X126664457Y-62680580D01*
X126664457Y-62680580D02*
X126712076Y-62585342D01*
X126712076Y-62585342D02*
X126712076Y-62299628D01*
X126712076Y-62299628D02*
X126664457Y-62204390D01*
X126664457Y-62204390D02*
X126616838Y-62156771D01*
X126616838Y-62156771D02*
X126521600Y-62109152D01*
X126521600Y-62109152D02*
X126331124Y-62109152D01*
X126331124Y-62109152D02*
X126235886Y-62156771D01*
X125426362Y-62728200D02*
X125521600Y-62775819D01*
X125521600Y-62775819D02*
X125712076Y-62775819D01*
X125712076Y-62775819D02*
X125807314Y-62728200D01*
X125807314Y-62728200D02*
X125854933Y-62632961D01*
X125854933Y-62632961D02*
X125854933Y-62252009D01*
X125854933Y-62252009D02*
X125807314Y-62156771D01*
X125807314Y-62156771D02*
X125712076Y-62109152D01*
X125712076Y-62109152D02*
X125521600Y-62109152D01*
X125521600Y-62109152D02*
X125426362Y-62156771D01*
X125426362Y-62156771D02*
X125378743Y-62252009D01*
X125378743Y-62252009D02*
X125378743Y-62347247D01*
X125378743Y-62347247D02*
X125854933Y-62442485D01*
X124521600Y-62775819D02*
X124521600Y-61775819D01*
X124521600Y-62728200D02*
X124616838Y-62775819D01*
X124616838Y-62775819D02*
X124807314Y-62775819D01*
X124807314Y-62775819D02*
X124902552Y-62728200D01*
X124902552Y-62728200D02*
X124950171Y-62680580D01*
X124950171Y-62680580D02*
X124997790Y-62585342D01*
X124997790Y-62585342D02*
X124997790Y-62299628D01*
X124997790Y-62299628D02*
X124950171Y-62204390D01*
X124950171Y-62204390D02*
X124902552Y-62156771D01*
X124902552Y-62156771D02*
X124807314Y-62109152D01*
X124807314Y-62109152D02*
X124616838Y-62109152D01*
X124616838Y-62109152D02*
X124521600Y-62156771D01*
X124093028Y-61775819D02*
X124093028Y-61966295D01*
X123712076Y-61775819D02*
X123712076Y-61966295D01*
X121950171Y-62680580D02*
X121997790Y-62728200D01*
X121997790Y-62728200D02*
X122140647Y-62775819D01*
X122140647Y-62775819D02*
X122235885Y-62775819D01*
X122235885Y-62775819D02*
X122378742Y-62728200D01*
X122378742Y-62728200D02*
X122473980Y-62632961D01*
X122473980Y-62632961D02*
X122521599Y-62537723D01*
X122521599Y-62537723D02*
X122569218Y-62347247D01*
X122569218Y-62347247D02*
X122569218Y-62204390D01*
X122569218Y-62204390D02*
X122521599Y-62013914D01*
X122521599Y-62013914D02*
X122473980Y-61918676D01*
X122473980Y-61918676D02*
X122378742Y-61823438D01*
X122378742Y-61823438D02*
X122235885Y-61775819D01*
X122235885Y-61775819D02*
X122140647Y-61775819D01*
X122140647Y-61775819D02*
X121997790Y-61823438D01*
X121997790Y-61823438D02*
X121950171Y-61871057D01*
X121378742Y-62775819D02*
X121473980Y-62728200D01*
X121473980Y-62728200D02*
X121521599Y-62680580D01*
X121521599Y-62680580D02*
X121569218Y-62585342D01*
X121569218Y-62585342D02*
X121569218Y-62299628D01*
X121569218Y-62299628D02*
X121521599Y-62204390D01*
X121521599Y-62204390D02*
X121473980Y-62156771D01*
X121473980Y-62156771D02*
X121378742Y-62109152D01*
X121378742Y-62109152D02*
X121235885Y-62109152D01*
X121235885Y-62109152D02*
X121140647Y-62156771D01*
X121140647Y-62156771D02*
X121093028Y-62204390D01*
X121093028Y-62204390D02*
X121045409Y-62299628D01*
X121045409Y-62299628D02*
X121045409Y-62585342D01*
X121045409Y-62585342D02*
X121093028Y-62680580D01*
X121093028Y-62680580D02*
X121140647Y-62728200D01*
X121140647Y-62728200D02*
X121235885Y-62775819D01*
X121235885Y-62775819D02*
X121378742Y-62775819D01*
X120616837Y-62775819D02*
X120616837Y-62109152D01*
X120616837Y-62204390D02*
X120569218Y-62156771D01*
X120569218Y-62156771D02*
X120473980Y-62109152D01*
X120473980Y-62109152D02*
X120331123Y-62109152D01*
X120331123Y-62109152D02*
X120235885Y-62156771D01*
X120235885Y-62156771D02*
X120188266Y-62252009D01*
X120188266Y-62252009D02*
X120188266Y-62775819D01*
X120188266Y-62252009D02*
X120140647Y-62156771D01*
X120140647Y-62156771D02*
X120045409Y-62109152D01*
X120045409Y-62109152D02*
X119902552Y-62109152D01*
X119902552Y-62109152D02*
X119807313Y-62156771D01*
X119807313Y-62156771D02*
X119759694Y-62252009D01*
X119759694Y-62252009D02*
X119759694Y-62775819D01*
X119283504Y-62109152D02*
X119283504Y-63109152D01*
X119283504Y-62156771D02*
X119188266Y-62109152D01*
X119188266Y-62109152D02*
X118997790Y-62109152D01*
X118997790Y-62109152D02*
X118902552Y-62156771D01*
X118902552Y-62156771D02*
X118854933Y-62204390D01*
X118854933Y-62204390D02*
X118807314Y-62299628D01*
X118807314Y-62299628D02*
X118807314Y-62585342D01*
X118807314Y-62585342D02*
X118854933Y-62680580D01*
X118854933Y-62680580D02*
X118902552Y-62728200D01*
X118902552Y-62728200D02*
X118997790Y-62775819D01*
X118997790Y-62775819D02*
X119188266Y-62775819D01*
X119188266Y-62775819D02*
X119283504Y-62728200D01*
X118235885Y-62775819D02*
X118331123Y-62728200D01*
X118331123Y-62728200D02*
X118378742Y-62680580D01*
X118378742Y-62680580D02*
X118426361Y-62585342D01*
X118426361Y-62585342D02*
X118426361Y-62299628D01*
X118426361Y-62299628D02*
X118378742Y-62204390D01*
X118378742Y-62204390D02*
X118331123Y-62156771D01*
X118331123Y-62156771D02*
X118235885Y-62109152D01*
X118235885Y-62109152D02*
X118093028Y-62109152D01*
X118093028Y-62109152D02*
X117997790Y-62156771D01*
X117997790Y-62156771D02*
X117950171Y-62204390D01*
X117950171Y-62204390D02*
X117902552Y-62299628D01*
X117902552Y-62299628D02*
X117902552Y-62585342D01*
X117902552Y-62585342D02*
X117950171Y-62680580D01*
X117950171Y-62680580D02*
X117997790Y-62728200D01*
X117997790Y-62728200D02*
X118093028Y-62775819D01*
X118093028Y-62775819D02*
X118235885Y-62775819D01*
X117473980Y-62109152D02*
X117473980Y-62775819D01*
X117473980Y-62204390D02*
X117426361Y-62156771D01*
X117426361Y-62156771D02*
X117331123Y-62109152D01*
X117331123Y-62109152D02*
X117188266Y-62109152D01*
X117188266Y-62109152D02*
X117093028Y-62156771D01*
X117093028Y-62156771D02*
X117045409Y-62252009D01*
X117045409Y-62252009D02*
X117045409Y-62775819D01*
X116188266Y-62728200D02*
X116283504Y-62775819D01*
X116283504Y-62775819D02*
X116473980Y-62775819D01*
X116473980Y-62775819D02*
X116569218Y-62728200D01*
X116569218Y-62728200D02*
X116616837Y-62632961D01*
X116616837Y-62632961D02*
X116616837Y-62252009D01*
X116616837Y-62252009D02*
X116569218Y-62156771D01*
X116569218Y-62156771D02*
X116473980Y-62109152D01*
X116473980Y-62109152D02*
X116283504Y-62109152D01*
X116283504Y-62109152D02*
X116188266Y-62156771D01*
X116188266Y-62156771D02*
X116140647Y-62252009D01*
X116140647Y-62252009D02*
X116140647Y-62347247D01*
X116140647Y-62347247D02*
X116616837Y-62442485D01*
X115712075Y-62109152D02*
X115712075Y-62775819D01*
X115712075Y-62204390D02*
X115664456Y-62156771D01*
X115664456Y-62156771D02*
X115569218Y-62109152D01*
X115569218Y-62109152D02*
X115426361Y-62109152D01*
X115426361Y-62109152D02*
X115331123Y-62156771D01*
X115331123Y-62156771D02*
X115283504Y-62252009D01*
X115283504Y-62252009D02*
X115283504Y-62775819D01*
X114950170Y-62109152D02*
X114569218Y-62109152D01*
X114807313Y-61775819D02*
X114807313Y-62632961D01*
X114807313Y-62632961D02*
X114759694Y-62728200D01*
X114759694Y-62728200D02*
X114664456Y-62775819D01*
X114664456Y-62775819D02*
X114569218Y-62775819D01*
X113616836Y-61775819D02*
X113283503Y-62775819D01*
X113283503Y-62775819D02*
X112950170Y-61775819D01*
X112616836Y-62775819D02*
X112616836Y-62109152D01*
X112616836Y-61775819D02*
X112664455Y-61823438D01*
X112664455Y-61823438D02*
X112616836Y-61871057D01*
X112616836Y-61871057D02*
X112569217Y-61823438D01*
X112569217Y-61823438D02*
X112616836Y-61775819D01*
X112616836Y-61775819D02*
X112616836Y-61871057D01*
X111712075Y-62775819D02*
X111712075Y-61775819D01*
X111712075Y-62728200D02*
X111807313Y-62775819D01*
X111807313Y-62775819D02*
X111997789Y-62775819D01*
X111997789Y-62775819D02*
X112093027Y-62728200D01*
X112093027Y-62728200D02*
X112140646Y-62680580D01*
X112140646Y-62680580D02*
X112188265Y-62585342D01*
X112188265Y-62585342D02*
X112188265Y-62299628D01*
X112188265Y-62299628D02*
X112140646Y-62204390D01*
X112140646Y-62204390D02*
X112093027Y-62156771D01*
X112093027Y-62156771D02*
X111997789Y-62109152D01*
X111997789Y-62109152D02*
X111807313Y-62109152D01*
X111807313Y-62109152D02*
X111712075Y-62156771D01*
X110854932Y-62728200D02*
X110950170Y-62775819D01*
X110950170Y-62775819D02*
X111140646Y-62775819D01*
X111140646Y-62775819D02*
X111235884Y-62728200D01*
X111235884Y-62728200D02*
X111283503Y-62632961D01*
X111283503Y-62632961D02*
X111283503Y-62252009D01*
X111283503Y-62252009D02*
X111235884Y-62156771D01*
X111235884Y-62156771D02*
X111140646Y-62109152D01*
X111140646Y-62109152D02*
X110950170Y-62109152D01*
X110950170Y-62109152D02*
X110854932Y-62156771D01*
X110854932Y-62156771D02*
X110807313Y-62252009D01*
X110807313Y-62252009D02*
X110807313Y-62347247D01*
X110807313Y-62347247D02*
X111283503Y-62442485D01*
X110235884Y-62775819D02*
X110331122Y-62728200D01*
X110331122Y-62728200D02*
X110378741Y-62680580D01*
X110378741Y-62680580D02*
X110426360Y-62585342D01*
X110426360Y-62585342D02*
X110426360Y-62299628D01*
X110426360Y-62299628D02*
X110378741Y-62204390D01*
X110378741Y-62204390D02*
X110331122Y-62156771D01*
X110331122Y-62156771D02*
X110235884Y-62109152D01*
X110235884Y-62109152D02*
X110093027Y-62109152D01*
X110093027Y-62109152D02*
X109997789Y-62156771D01*
X109997789Y-62156771D02*
X109950170Y-62204390D01*
X109950170Y-62204390D02*
X109902551Y-62299628D01*
X109902551Y-62299628D02*
X109902551Y-62585342D01*
X109902551Y-62585342D02*
X109950170Y-62680580D01*
X109950170Y-62680580D02*
X109997789Y-62728200D01*
X109997789Y-62728200D02*
X110093027Y-62775819D01*
X110093027Y-62775819D02*
X110235884Y-62775819D01*
X108712074Y-62775819D02*
X108712074Y-61775819D01*
X108712074Y-61775819D02*
X108331122Y-61775819D01*
X108331122Y-61775819D02*
X108235884Y-61823438D01*
X108235884Y-61823438D02*
X108188265Y-61871057D01*
X108188265Y-61871057D02*
X108140646Y-61966295D01*
X108140646Y-61966295D02*
X108140646Y-62109152D01*
X108140646Y-62109152D02*
X108188265Y-62204390D01*
X108188265Y-62204390D02*
X108235884Y-62252009D01*
X108235884Y-62252009D02*
X108331122Y-62299628D01*
X108331122Y-62299628D02*
X108712074Y-62299628D01*
X107140646Y-62680580D02*
X107188265Y-62728200D01*
X107188265Y-62728200D02*
X107331122Y-62775819D01*
X107331122Y-62775819D02*
X107426360Y-62775819D01*
X107426360Y-62775819D02*
X107569217Y-62728200D01*
X107569217Y-62728200D02*
X107664455Y-62632961D01*
X107664455Y-62632961D02*
X107712074Y-62537723D01*
X107712074Y-62537723D02*
X107759693Y-62347247D01*
X107759693Y-62347247D02*
X107759693Y-62204390D01*
X107759693Y-62204390D02*
X107712074Y-62013914D01*
X107712074Y-62013914D02*
X107664455Y-61918676D01*
X107664455Y-61918676D02*
X107569217Y-61823438D01*
X107569217Y-61823438D02*
X107426360Y-61775819D01*
X107426360Y-61775819D02*
X107331122Y-61775819D01*
X107331122Y-61775819D02*
X107188265Y-61823438D01*
X107188265Y-61823438D02*
X107140646Y-61871057D01*
X106378741Y-62252009D02*
X106235884Y-62299628D01*
X106235884Y-62299628D02*
X106188265Y-62347247D01*
X106188265Y-62347247D02*
X106140646Y-62442485D01*
X106140646Y-62442485D02*
X106140646Y-62585342D01*
X106140646Y-62585342D02*
X106188265Y-62680580D01*
X106188265Y-62680580D02*
X106235884Y-62728200D01*
X106235884Y-62728200D02*
X106331122Y-62775819D01*
X106331122Y-62775819D02*
X106712074Y-62775819D01*
X106712074Y-62775819D02*
X106712074Y-61775819D01*
X106712074Y-61775819D02*
X106378741Y-61775819D01*
X106378741Y-61775819D02*
X106283503Y-61823438D01*
X106283503Y-61823438D02*
X106235884Y-61871057D01*
X106235884Y-61871057D02*
X106188265Y-61966295D01*
X106188265Y-61966295D02*
X106188265Y-62061533D01*
X106188265Y-62061533D02*
X106235884Y-62156771D01*
X106235884Y-62156771D02*
X106283503Y-62204390D01*
X106283503Y-62204390D02*
X106378741Y-62252009D01*
X106378741Y-62252009D02*
X106712074Y-62252009D01*
X136569220Y-64385819D02*
X136569220Y-63385819D01*
X136569220Y-63766771D02*
X136473982Y-63719152D01*
X136473982Y-63719152D02*
X136283506Y-63719152D01*
X136283506Y-63719152D02*
X136188268Y-63766771D01*
X136188268Y-63766771D02*
X136140649Y-63814390D01*
X136140649Y-63814390D02*
X136093030Y-63909628D01*
X136093030Y-63909628D02*
X136093030Y-64195342D01*
X136093030Y-64195342D02*
X136140649Y-64290580D01*
X136140649Y-64290580D02*
X136188268Y-64338200D01*
X136188268Y-64338200D02*
X136283506Y-64385819D01*
X136283506Y-64385819D02*
X136473982Y-64385819D01*
X136473982Y-64385819D02*
X136569220Y-64338200D01*
X135759696Y-63719152D02*
X135521601Y-64385819D01*
X135283506Y-63719152D02*
X135521601Y-64385819D01*
X135521601Y-64385819D02*
X135616839Y-64623914D01*
X135616839Y-64623914D02*
X135664458Y-64671533D01*
X135664458Y-64671533D02*
X135759696Y-64719152D01*
X134140648Y-63719152D02*
X134140648Y-64576295D01*
X134140648Y-64576295D02*
X134188267Y-64671533D01*
X134188267Y-64671533D02*
X134283505Y-64719152D01*
X134283505Y-64719152D02*
X134331124Y-64719152D01*
X134140648Y-63385819D02*
X134188267Y-63433438D01*
X134188267Y-63433438D02*
X134140648Y-63481057D01*
X134140648Y-63481057D02*
X134093029Y-63433438D01*
X134093029Y-63433438D02*
X134140648Y-63385819D01*
X134140648Y-63385819D02*
X134140648Y-63481057D01*
X133521601Y-64385819D02*
X133616839Y-64338200D01*
X133616839Y-64338200D02*
X133664458Y-64290580D01*
X133664458Y-64290580D02*
X133712077Y-64195342D01*
X133712077Y-64195342D02*
X133712077Y-63909628D01*
X133712077Y-63909628D02*
X133664458Y-63814390D01*
X133664458Y-63814390D02*
X133616839Y-63766771D01*
X133616839Y-63766771D02*
X133521601Y-63719152D01*
X133521601Y-63719152D02*
X133378744Y-63719152D01*
X133378744Y-63719152D02*
X133283506Y-63766771D01*
X133283506Y-63766771D02*
X133235887Y-63814390D01*
X133235887Y-63814390D02*
X133188268Y-63909628D01*
X133188268Y-63909628D02*
X133188268Y-64195342D01*
X133188268Y-64195342D02*
X133235887Y-64290580D01*
X133235887Y-64290580D02*
X133283506Y-64338200D01*
X133283506Y-64338200D02*
X133378744Y-64385819D01*
X133378744Y-64385819D02*
X133521601Y-64385819D01*
X132807315Y-64338200D02*
X132712077Y-64385819D01*
X132712077Y-64385819D02*
X132521601Y-64385819D01*
X132521601Y-64385819D02*
X132426363Y-64338200D01*
X132426363Y-64338200D02*
X132378744Y-64242961D01*
X132378744Y-64242961D02*
X132378744Y-64195342D01*
X132378744Y-64195342D02*
X132426363Y-64100104D01*
X132426363Y-64100104D02*
X132521601Y-64052485D01*
X132521601Y-64052485D02*
X132664458Y-64052485D01*
X132664458Y-64052485D02*
X132759696Y-64004866D01*
X132759696Y-64004866D02*
X132807315Y-63909628D01*
X132807315Y-63909628D02*
X132807315Y-63862009D01*
X132807315Y-63862009D02*
X132759696Y-63766771D01*
X132759696Y-63766771D02*
X132664458Y-63719152D01*
X132664458Y-63719152D02*
X132521601Y-63719152D01*
X132521601Y-63719152D02*
X132426363Y-63766771D01*
X131950172Y-64385819D02*
X131950172Y-63385819D01*
X131521601Y-64385819D02*
X131521601Y-63862009D01*
X131521601Y-63862009D02*
X131569220Y-63766771D01*
X131569220Y-63766771D02*
X131664458Y-63719152D01*
X131664458Y-63719152D02*
X131807315Y-63719152D01*
X131807315Y-63719152D02*
X131902553Y-63766771D01*
X131902553Y-63766771D02*
X131950172Y-63814390D01*
X131045410Y-64385819D02*
X131045410Y-63719152D01*
X131045410Y-63814390D02*
X130997791Y-63766771D01*
X130997791Y-63766771D02*
X130902553Y-63719152D01*
X130902553Y-63719152D02*
X130759696Y-63719152D01*
X130759696Y-63719152D02*
X130664458Y-63766771D01*
X130664458Y-63766771D02*
X130616839Y-63862009D01*
X130616839Y-63862009D02*
X130616839Y-64385819D01*
X130616839Y-63862009D02*
X130569220Y-63766771D01*
X130569220Y-63766771D02*
X130473982Y-63719152D01*
X130473982Y-63719152D02*
X130331125Y-63719152D01*
X130331125Y-63719152D02*
X130235886Y-63766771D01*
X130235886Y-63766771D02*
X130188267Y-63862009D01*
X130188267Y-63862009D02*
X130188267Y-64385819D01*
X129283506Y-64385819D02*
X129283506Y-63862009D01*
X129283506Y-63862009D02*
X129331125Y-63766771D01*
X129331125Y-63766771D02*
X129426363Y-63719152D01*
X129426363Y-63719152D02*
X129616839Y-63719152D01*
X129616839Y-63719152D02*
X129712077Y-63766771D01*
X129283506Y-64338200D02*
X129378744Y-64385819D01*
X129378744Y-64385819D02*
X129616839Y-64385819D01*
X129616839Y-64385819D02*
X129712077Y-64338200D01*
X129712077Y-64338200D02*
X129759696Y-64242961D01*
X129759696Y-64242961D02*
X129759696Y-64147723D01*
X129759696Y-64147723D02*
X129712077Y-64052485D01*
X129712077Y-64052485D02*
X129616839Y-64004866D01*
X129616839Y-64004866D02*
X129378744Y-64004866D01*
X129378744Y-64004866D02*
X129283506Y-63957247D01*
X128807315Y-63719152D02*
X128807315Y-64385819D01*
X128807315Y-63814390D02*
X128759696Y-63766771D01*
X128759696Y-63766771D02*
X128664458Y-63719152D01*
X128664458Y-63719152D02*
X128521601Y-63719152D01*
X128521601Y-63719152D02*
X128426363Y-63766771D01*
X128426363Y-63766771D02*
X128378744Y-63862009D01*
X128378744Y-63862009D02*
X128378744Y-64385819D01*
X127378744Y-64385819D02*
X127950172Y-64385819D01*
X127664458Y-64385819D02*
X127664458Y-63385819D01*
X127664458Y-63385819D02*
X127759696Y-63528676D01*
X127759696Y-63528676D02*
X127854934Y-63623914D01*
X127854934Y-63623914D02*
X127950172Y-63671533D01*
X126902553Y-64385819D02*
X126712077Y-64385819D01*
X126712077Y-64385819D02*
X126616839Y-64338200D01*
X126616839Y-64338200D02*
X126569220Y-64290580D01*
X126569220Y-64290580D02*
X126473982Y-64147723D01*
X126473982Y-64147723D02*
X126426363Y-63957247D01*
X126426363Y-63957247D02*
X126426363Y-63576295D01*
X126426363Y-63576295D02*
X126473982Y-63481057D01*
X126473982Y-63481057D02*
X126521601Y-63433438D01*
X126521601Y-63433438D02*
X126616839Y-63385819D01*
X126616839Y-63385819D02*
X126807315Y-63385819D01*
X126807315Y-63385819D02*
X126902553Y-63433438D01*
X126902553Y-63433438D02*
X126950172Y-63481057D01*
X126950172Y-63481057D02*
X126997791Y-63576295D01*
X126997791Y-63576295D02*
X126997791Y-63814390D01*
X126997791Y-63814390D02*
X126950172Y-63909628D01*
X126950172Y-63909628D02*
X126902553Y-63957247D01*
X126902553Y-63957247D02*
X126807315Y-64004866D01*
X126807315Y-64004866D02*
X126616839Y-64004866D01*
X126616839Y-64004866D02*
X126521601Y-63957247D01*
X126521601Y-63957247D02*
X126473982Y-63909628D01*
X126473982Y-63909628D02*
X126426363Y-63814390D01*
X125569220Y-63385819D02*
X125759696Y-63385819D01*
X125759696Y-63385819D02*
X125854934Y-63433438D01*
X125854934Y-63433438D02*
X125902553Y-63481057D01*
X125902553Y-63481057D02*
X125997791Y-63623914D01*
X125997791Y-63623914D02*
X126045410Y-63814390D01*
X126045410Y-63814390D02*
X126045410Y-64195342D01*
X126045410Y-64195342D02*
X125997791Y-64290580D01*
X125997791Y-64290580D02*
X125950172Y-64338200D01*
X125950172Y-64338200D02*
X125854934Y-64385819D01*
X125854934Y-64385819D02*
X125664458Y-64385819D01*
X125664458Y-64385819D02*
X125569220Y-64338200D01*
X125569220Y-64338200D02*
X125521601Y-64290580D01*
X125521601Y-64290580D02*
X125473982Y-64195342D01*
X125473982Y-64195342D02*
X125473982Y-63957247D01*
X125473982Y-63957247D02*
X125521601Y-63862009D01*
X125521601Y-63862009D02*
X125569220Y-63814390D01*
X125569220Y-63814390D02*
X125664458Y-63766771D01*
X125664458Y-63766771D02*
X125854934Y-63766771D01*
X125854934Y-63766771D02*
X125950172Y-63814390D01*
X125950172Y-63814390D02*
X125997791Y-63862009D01*
X125997791Y-63862009D02*
X126045410Y-63957247D01*
M02*
